<svg width="32" height="33" viewBox="0 0 32 33" fill="none" xmlns="http://www.w3.org/2000/svg">
<path d="M19.3724 16.1541L18.5045 17.2615L18.6731 18.6578L17.2768 18.8275L16.4089 19.9349L15.3003 19.067L12.627 16.9702L13.4948 15.8628L13.3263 14.4666L14.7226 14.2968L15.5916 13.1895L16.699 14.0573L18.265 15.2851L19.3724 16.1541Z" fill="#BCBEC0"/>
<path d="M26.3079 12.8934L21.4679 13.4796L24.4759 9.64226C25.2944 8.59867 25.1114 7.08805 24.0678 6.26954C23.0242 5.45103 21.5136 5.63399 20.6951 6.67759L17.6871 10.5149L17.1009 5.67492C16.9408 4.35809 15.7443 3.41921 14.4275 3.5793C13.1107 3.73939 12.1718 4.93586 12.3319 6.25269L12.9181 11.0927L9.08074 8.0847C8.03714 7.26619 6.52652 7.44915 5.70801 8.49275C4.88951 9.53634 5.07247 11.047 6.11606 11.8655L9.95341 14.8735L5.11339 15.4597C3.79656 15.6198 2.85769 16.8162 3.01778 18.1331C3.17787 19.4499 4.37433 20.3888 5.69116 20.2287L10.5312 19.6425L7.52317 23.4798C7.11392 24.0022 6.95503 24.6402 7.02845 25.2504C7.10188 25.8607 7.40881 26.4433 7.93121 26.8525C8.97481 27.6711 10.4854 27.4881 11.3039 26.4445L14.3119 22.6072L14.8981 27.4472C14.9776 28.1056 15.317 28.6701 15.8009 29.0493C16.2848 29.4284 16.9131 29.6234 17.5715 29.544C18.8884 29.3839 19.8272 28.1874 19.6671 26.8706L19.0809 22.0306L22.9183 25.0386C23.4407 25.4479 24.0786 25.6067 24.6889 25.5333C25.2992 25.4599 25.8818 25.1529 26.291 24.6305C27.1095 23.587 26.9266 22.0763 25.883 21.2578L22.0456 18.2498L26.8856 17.6636C27.5441 17.5842 28.1074 17.2447 28.4877 16.7609C28.8669 16.277 29.0619 15.6487 28.9825 14.9902C28.8224 13.6734 27.6259 12.7345 26.3091 12.8946L26.3079 12.8934ZM18.5044 17.2604L18.6741 18.6567L17.2778 18.8264L16.41 19.9338L15.3026 19.0659L13.9063 19.2356L13.7366 17.8394L12.6292 16.9715L13.4971 15.8641L13.3273 14.4678L14.7236 14.2981L15.5915 13.1907L16.6989 14.0586L18.0951 13.8889L18.2649 15.2851L19.3722 16.153L18.5044 17.2604Z" fill="#FFC33F"/>
<path d="M19.3724 16.1541L18.5045 17.2615L17.2768 18.8275L16.4089 19.9349L15.3003 19.067L13.9041 19.2356L13.7343 17.8393L12.627 16.9702L13.4948 15.8628L14.7226 14.2968L15.5916 13.1895L16.699 14.0573L18.0953 13.8888L18.265 15.2851L19.3724 16.1541Z" fill="#BCBEC0"/>
<path d="M19.3724 16.155L18.5045 17.2624L18.6731 18.6586L13.9041 19.2364L13.7343 17.8401L12.627 16.9711L13.4948 15.8637L13.3263 14.4674L18.0953 13.8896L18.265 15.2859L19.3724 16.155Z" fill="#BCBEC0"/>
<path d="M18.0952 13.8888L18.6729 18.6578L17.2767 18.8275L16.4088 19.9349L15.3002 19.067L13.9039 19.2356L13.3262 14.4666L14.7225 14.2968L15.5915 13.1895L16.6989 14.0573L18.0952 13.8888Z" fill="#BCBEC0"/>
<path d="M15.9999 21.1462C18.532 21.1462 20.5847 19.0935 20.5847 16.5614C20.5847 14.0293 18.532 11.9766 15.9999 11.9766C13.4677 11.9766 11.415 14.0293 11.415 16.5614C11.415 19.0935 13.4677 21.1462 15.9999 21.1462Z" fill="#FF6835"/>
</svg>
