<svg width="32" height="33" viewBox="0 0 32 33" fill="none" xmlns="http://www.w3.org/2000/svg">
<path d="M30.0446 15.9445C30.4784 16.2415 30.4784 16.8816 30.0446 17.1786L25.6898 20.1607C25.4258 20.3415 25.306 20.6703 25.392 20.9787L27.0253 26.8337C27.1821 27.3958 26.6636 27.9128 26.102 27.7544L20.2399 26.101C19.9775 26.0269 19.6956 26.1016 19.5043 26.2958L16.5052 29.3387C16.2123 29.6358 15.7328 29.6358 15.4399 29.3387L12.4408 26.2958C12.2494 26.1016 11.9675 26.0269 11.7051 26.101L5.84311 27.7544C5.28152 27.9128 4.76292 27.3958 4.91971 26.8337L6.55385 20.9758C6.63946 20.6689 6.52124 20.3414 6.25933 20.16L1.95191 17.1763C1.52254 16.8789 1.52254 16.2442 1.95191 15.9467L6.25894 12.9634C6.52104 12.7818 6.63922 12.454 6.55329 12.1469L4.91185 6.28194C4.75443 5.71947 5.27368 5.20171 5.83569 5.36074L11.7048 7.02159C11.9674 7.0959 12.2495 7.0213 12.4411 6.82696L15.4399 3.78442C15.7328 3.48722 16.2123 3.48723 16.5052 3.78442L19.5039 6.82696C19.6955 7.0213 19.9776 7.0959 20.2403 7.02159L26.1093 5.36074C26.6714 5.20171 27.1906 5.71947 27.0332 6.28194L25.3926 12.1441C25.3062 12.4525 25.4259 12.7817 25.6902 12.9627L30.0446 15.9445Z" fill="#69B06C"/>
</svg>
