<svg width="32" height="33" viewBox="0 0 32 33" fill="none" xmlns="http://www.w3.org/2000/svg">
<path d="M13.1036 6.30291C13.1036 6.99984 12.9278 7.65574 12.6177 8.22859C12.2059 8.99019 11.5568 9.60604 10.7694 9.97733C10.2467 10.2242 9.66278 10.3631 9.04659 10.3654C9.0377 10.3654 9.02881 10.3654 9.01959 10.3654H9.01334C9.00972 10.3654 9.0061 10.3654 9.00248 10.3654C8.99688 10.3654 8.99129 10.3654 8.98569 10.3654C8.35896 10.3588 7.76613 10.2111 7.23782 9.95238C6.53077 9.6067 5.93926 9.06209 5.5357 8.39207C5.5357 8.39207 5.5357 8.39207 5.5357 8.39141C5.16836 7.78114 4.95703 7.06681 4.95703 6.30291C4.95703 6.17849 4.96263 6.05539 4.97382 5.93359C7.16705 5.94246 8.95146 7.67938 9.02815 9.85028C9.03013 9.85028 9.03177 9.85028 9.03342 9.85028C9.11011 7.67971 10.8942 5.94213 13.0878 5.93359C13.0986 6.05506 13.1045 6.17849 13.1045 6.30291H13.1036Z" fill="#69B06C"/>
<path d="M11.467 3.79906C11.467 4.21597 11.362 4.60826 11.1764 4.95099C10.9302 5.40664 10.5418 5.77496 10.0711 5.99688C9.75835 6.14461 9.4091 6.22766 9.04044 6.22897C9.03517 6.22897 9.02958 6.22897 9.02431 6.22897H9.02036C9.01806 6.22897 9.01608 6.22897 9.01378 6.22897C9.01048 6.22897 9.00719 6.22897 9.00357 6.22897C8.62865 6.22503 8.27414 6.13673 7.95814 5.98178C7.53516 5.77496 7.18131 5.44931 6.94003 5.04848C6.72015 4.68344 6.59375 4.25602 6.59375 3.79938C6.59375 3.72487 6.59704 3.65133 6.60362 3.57845C7.91568 3.58371 8.98283 4.62271 9.02859 5.92105C9.02958 5.92105 9.03089 5.92105 9.03188 5.92105C9.07763 4.62271 10.1451 3.58338 11.4568 3.57812C11.4634 3.651 11.4667 3.72454 11.4667 3.79906H11.467Z" fill="#00A79D"/>
<path d="M15.5558 10.0629C15.5558 11.1777 15.2744 12.2269 14.7786 13.1441C14.1196 14.3627 13.0814 15.3479 11.8217 15.9417C10.9853 16.3366 10.0511 16.5589 9.0653 16.5628C9.05114 16.5628 9.03666 16.5628 9.02218 16.5628H9.01197C9.00638 16.5628 9.00045 16.5628 8.99486 16.5628C8.98597 16.5628 8.97675 16.5628 8.96786 16.5628C7.96523 16.5523 7.0169 16.3159 6.1716 15.902H6.17127C5.04026 15.3485 4.09358 14.4776 3.44776 13.4058C3.44776 13.4054 3.44776 13.4051 3.44743 13.4051C2.85954 12.4288 2.52148 11.2857 2.52148 10.0636C2.52148 9.86429 2.53037 9.66733 2.54815 9.47298C6.05738 9.48677 8.91191 12.2663 9.03469 15.7392C9.03765 15.7392 9.04061 15.7392 9.04324 15.7392C9.16602 12.2663 12.0205 9.48677 15.5298 9.47266C15.5476 9.667 15.5564 9.86429 15.5564 10.0632L15.5558 10.0629Z" fill="#69B06C"/>
<path d="M26.1377 19.3C26.1377 19.9969 25.962 20.6528 25.6519 21.2257C25.2401 21.9873 24.591 22.6031 23.8036 22.9744C23.2809 23.2213 22.697 23.3601 22.0808 23.3624C22.0719 23.3624 22.063 23.3624 22.0538 23.3624H22.0475C22.0439 23.3624 22.0403 23.3624 22.0367 23.3624C22.0311 23.3624 22.0255 23.3624 22.0199 23.3624C21.3931 23.3559 20.8003 23.2081 20.272 22.9494C19.565 22.6038 18.9734 22.0592 18.5699 21.3891C18.5699 21.3891 18.5699 21.3891 18.5699 21.3885C18.2025 20.7782 17.9912 20.0639 17.9912 19.3C17.9912 19.1756 17.9968 19.0525 18.008 18.9307C20.2012 18.9395 21.9856 20.6764 22.0623 22.8474C22.0643 22.8474 22.066 22.8474 22.0676 22.8474C22.1443 20.6768 23.9284 18.9392 26.1219 18.9307C26.1328 19.0521 26.1387 19.1756 26.1387 19.3H26.1377Z" fill="#69B06C"/>
<path d="M24.5012 16.7961C24.5012 17.213 24.3962 17.6053 24.2106 17.9481C23.9644 18.4037 23.5759 18.772 23.1052 18.994C22.7925 19.1417 22.4433 19.2247 22.0746 19.226C22.0694 19.226 22.0638 19.226 22.0585 19.226H22.0545C22.0522 19.226 22.0503 19.226 22.048 19.226C22.0447 19.226 22.0414 19.226 22.0378 19.226C21.6628 19.2221 21.3083 19.1338 20.9923 18.9788C20.5693 18.772 20.2155 18.4464 19.9742 18.0456C19.7543 17.6805 19.6279 17.2531 19.6279 16.7965C19.6279 16.7219 19.6312 16.6484 19.6378 16.5755C20.9499 16.5808 22.017 17.6198 22.0628 18.9181C22.0638 18.9181 22.0651 18.9181 22.0661 18.9181C22.1118 17.6198 23.1793 16.5804 24.491 16.5752C24.4976 16.6481 24.5009 16.7216 24.5009 16.7961H24.5012Z" fill="#00A79D"/>
<path d="M28.59 23.06C28.59 24.1748 28.3085 25.224 27.8128 26.1412C27.1538 27.3598 26.1156 28.3449 24.8559 28.9388C24.0195 29.3337 23.0853 29.5559 22.0995 29.5599C22.0853 29.5599 22.0708 29.5599 22.0564 29.5599H22.0462C22.0406 29.5599 22.0346 29.5599 22.029 29.5599C22.0201 29.5599 22.0109 29.5599 22.002 29.5599C20.9994 29.5494 20.0511 29.313 19.2058 28.8991H19.2055C18.0744 28.3456 17.1278 27.4747 16.4819 26.4028C16.4819 26.4025 16.4819 26.4022 16.4816 26.4022C15.8937 25.4259 15.5557 24.2828 15.5557 23.0606C15.5557 22.8614 15.5646 22.6644 15.5823 22.4701C19.0916 22.4838 21.9461 25.2634 22.0689 28.7362C22.0718 28.7362 22.0748 28.7362 22.0774 28.7362C22.2002 25.2634 25.0547 22.4838 28.564 22.4697C28.5817 22.6641 28.5906 22.8614 28.5906 23.0603L28.59 23.06Z" fill="#69B06C"/>
<path d="M27.5702 14.657L27.5705 14.6567C28.038 14.1905 28.038 13.4345 27.5705 12.9683L20.0464 5.46448C19.5789 4.99822 18.8209 4.99822 18.3534 5.46448L18.3531 5.46472C17.8856 5.93098 17.8856 6.68695 18.3531 7.15321L25.8772 14.657C26.3447 15.1232 27.1027 15.1232 27.5702 14.657Z" fill="#69B06C"/>
<path d="M18.3534 14.6575L18.3537 14.6577C18.8212 15.124 19.5792 15.124 20.0467 14.6577L27.5708 7.15394C28.0383 6.68767 28.0383 5.93171 27.5708 5.46544L27.5705 5.46521C27.103 4.99894 26.345 4.99894 25.8775 5.46521L18.3534 12.969C17.8859 13.4352 17.8859 14.1912 18.3534 14.6575Z" fill="#69B06C"/>
<path d="M29.4795 10.0615V10.0611C29.4795 9.40174 28.9435 8.86719 28.2823 8.86719H17.6417C16.9805 8.86719 16.4445 9.40174 16.4445 10.0611V10.0615C16.4445 10.7209 16.9805 11.2554 17.6417 11.2554H28.2823C28.9435 11.2554 29.4795 10.7209 29.4795 10.0615Z" fill="#69B06C"/>
<path d="M22.9617 16.5615H22.962C23.6232 16.5615 24.1592 16.027 24.1592 15.3676V4.75565C24.1592 4.09625 23.6232 3.5617 22.962 3.5617H22.9617C22.3005 3.5617 21.7645 4.09625 21.7645 4.75565V15.3676C21.7645 16.027 22.3005 16.5615 22.9617 16.5615Z" fill="#69B06C"/>
<path d="M22.9617 12.0388C24.057 12.0388 24.945 11.1532 24.945 10.0609C24.945 8.96853 24.057 8.08301 22.9617 8.08301C21.8664 8.08301 20.9785 8.96853 20.9785 10.0609C20.9785 11.1532 21.8664 12.0388 22.9617 12.0388Z" fill="#FFC33F"/>
<path d="M13.6474 27.657L13.6476 27.6567C14.1151 27.1905 14.1151 26.4345 13.6476 25.9683L6.12356 18.4645C5.65604 17.9982 4.89803 17.9982 4.4305 18.4645L4.43027 18.4647C3.96274 18.931 3.96274 19.6869 4.43027 20.1532L11.9543 27.657C12.4218 28.1232 13.1799 28.1232 13.6474 27.657Z" fill="#69B06C"/>
<path d="M4.43058 27.6575L4.43081 27.6577C4.89834 28.124 5.65635 28.124 6.12387 27.6577L13.6479 20.1539C14.1154 19.6877 14.1154 18.9317 13.6479 18.4654L13.6477 18.4652C13.1802 17.9989 12.4222 17.9989 11.9546 18.4652L4.43058 25.969C3.96305 26.4352 3.96305 27.1912 4.43058 27.6575Z" fill="#69B06C"/>
<path d="M15.5566 23.0615V23.0611C15.5566 22.4017 15.0206 21.8672 14.3595 21.8672H3.71885C3.05767 21.8672 2.52168 22.4017 2.52168 23.0611V23.0615C2.52168 23.7209 3.05767 24.2554 3.71885 24.2554H14.3595C15.0206 24.2554 15.5566 23.7209 15.5566 23.0615Z" fill="#69B06C"/>
<path d="M9.03882 29.5615H9.03915C9.70033 29.5615 10.2363 29.027 10.2363 28.3676L10.2363 17.7556C10.2363 17.0962 9.70033 16.5617 9.03915 16.5617H9.03882C8.37764 16.5617 7.84165 17.0962 7.84165 17.7556L7.84165 28.3676C7.84165 29.027 8.37764 29.5615 9.03882 29.5615Z" fill="#69B06C"/>
<path d="M9.03889 25.0388C10.1342 25.0388 11.0221 24.1532 11.0221 23.0609C11.0221 21.9685 10.1342 21.083 9.03889 21.083C7.94358 21.083 7.05566 21.9685 7.05566 23.0609C7.05566 24.1532 7.94358 25.0388 9.03889 25.0388Z" fill="#FFC33F"/>
</svg>
