<svg width="195" height="121" viewBox="0 0 195 121" fill="none" xmlns="http://www.w3.org/2000/svg">
<g clip-path="url(#clip0_232_440)">
<path d="M172.324 64.156C174.369 65.8769 174.046 69.1144 171.703 70.3984L148.174 83.289C146.747 84.0708 145.976 85.6739 146.256 87.2767L151.568 117.715C152.078 120.637 149.195 122.991 146.434 121.907L117.616 110.592C116.326 110.085 114.862 110.321 113.797 111.206L97.0944 125.087C95.4631 126.443 93.0379 126.202 91.7059 124.551L78.0685 107.649C77.1983 106.571 75.81 106.051 74.4455 106.293L43.9618 111.705C41.0414 112.223 38.6787 109.346 39.7548 106.582L50.9706 77.7749C51.5582 76.2657 51.1252 74.55 49.8917 73.5004L29.6067 56.2392C27.5847 54.5186 27.9044 51.3079 30.2259 50.0198L53.5141 37.0982C54.9313 36.3119 55.6941 34.7135 55.4141 33.1172L50.065 2.62429C49.5521 -0.300026 52.4393 -2.65742 55.2019 -1.56995L84.0524 9.78663C85.3431 10.2947 86.808 10.0595 87.8747 9.17293L104.575 -4.70652C106.207 -6.06225 108.632 -5.82078 109.964 -4.17002L123.6 12.7298C124.471 13.8093 125.86 14.3287 127.226 14.0851L157.749 8.64003C160.672 8.11863 163.038 10.999 161.958 13.7648L150.708 42.5901C150.116 44.1068 150.555 45.8322 151.801 46.8807L172.324 64.156Z" fill="#69B06C"/>
<mask id="mask0_232_440" style="mask-type:alpha" maskUnits="userSpaceOnUse" x="68" y="37" width="29" height="36">
<ellipse cx="82.5108" cy="54.9855" rx="14.0591" ry="17.8082" transform="rotate(5.68584 82.5108 54.9855)" fill="white"/>
</mask>
<g mask="url(#mask0_232_440)">
<rect x="62.1416" y="34.5957" width="44.58" height="36.4943" transform="rotate(5.68584 62.1416 34.5957)" fill="white"/>
<rect x="77.877" y="45.0693" width="17.9956" height="19.5042" rx="8.99782" transform="rotate(5.68584 77.877 45.0693)" fill="black"/>
</g>
<path fill-rule="evenodd" clip-rule="evenodd" d="M123.356 66.6184C123.356 66.6185 123.356 66.6183 123.356 66.6184C123.845 67.4267 123.587 68.4784 122.779 68.9676C121.97 69.4568 120.918 69.1981 120.429 68.3898L121.893 67.504C120.429 68.3898 120.429 68.39 120.429 68.3898L120.425 68.3834L120.416 68.3682L120.383 68.3122C120.354 68.2639 120.312 68.1939 120.26 68.1048C120.155 67.9266 120.006 67.6714 119.828 67.3595C119.474 66.7373 119.002 65.8819 118.534 64.9574C118.069 64.0394 117.591 63.021 117.239 62.0796C117.063 61.6089 116.908 61.1291 116.803 60.6721C116.703 60.237 116.622 59.7138 116.674 59.1957C116.724 58.6866 116.903 58.1826 117.082 57.767C117.271 57.3264 117.514 56.8606 117.778 56.399C118.308 55.4751 118.978 54.4703 119.622 53.558C120.269 52.6406 120.907 51.7908 121.382 51.172C121.62 50.8619 121.818 50.6084 121.957 50.4317C122.027 50.3433 122.082 50.274 122.12 50.2263L122.164 50.1714L122.18 50.1514C122.18 50.1512 122.18 50.1507 123.514 51.2226L122.18 50.1514C122.772 49.415 123.849 49.2973 124.586 49.8893C125.322 50.4813 125.439 51.558 124.847 52.2944L124.835 52.3092L124.796 52.3578C124.762 52.4011 124.711 52.4657 124.645 52.5492C124.513 52.7162 124.324 52.9583 124.096 53.2554C123.639 53.8509 123.03 54.6619 122.417 55.5301C121.801 56.4036 121.2 57.3094 120.747 58.0997C120.521 58.4953 120.345 58.8374 120.226 59.1155C120.111 59.3838 120.083 59.5128 120.079 59.5325C120.079 59.5329 120.079 59.5322 120.079 59.5325C120.079 59.5331 120.079 59.5352 120.079 59.5367C120.08 59.5585 120.083 59.6716 120.137 59.9058C120.197 60.1672 120.299 60.4951 120.444 60.8812C120.733 61.6533 121.147 62.5447 121.586 63.4114C122.022 64.2717 122.466 65.0761 122.802 65.6675C122.97 65.9624 123.11 66.2025 123.207 66.3679C123.256 66.4505 123.294 66.5144 123.319 66.5569L123.348 66.6045L123.356 66.6184Z" fill="#1B1B1B"/>
<path d="M83.6753 83.6458C86.5069 88.9729 95.2376 96.9054 107.508 86.0186M106.645 81.2527C106.26 84.0001 108.231 89.5003 112.573 88.8629" stroke="black" stroke-width="2.8512" stroke-linecap="round"/>
</g>
<defs>
<clipPath id="clip0_232_440">
<rect width="194" height="120" fill="white" transform="translate(0.588867 0.272461)"/>
</clipPath>
</defs>
</svg>
