<svg width="195" height="121" viewBox="0 0 195 121" fill="none" xmlns="http://www.w3.org/2000/svg">
<g clip-path="url(#clip0_232_387)">
<path d="M138.244 122.994L157.711 103.527L51.7413 -2.44225L32.2743 17.0248L138.244 122.994Z" fill="#C383D9"/>
<path d="M32.2693 103.528L51.7363 122.995L157.706 17.0255L138.239 -2.44147L32.2693 103.528Z" fill="#C383D9"/>
<path d="M169.921 74.0373V46.5068L20.0573 46.5068V74.0373L169.921 74.0373Z" fill="#C383D9"/>
<path d="M81.2234 135.205H108.754L108.754 -14.6586H81.2234L81.2234 135.205Z" fill="#C383D9"/>
<path d="M129.68 60.2734L119.526 70.5941V85.1905H105.153L94.9895 95.5019L84.8264 85.1905H70.4529V70.5941L60.2988 60.2734L70.4529 49.9527V35.3564H84.8264L94.9895 25.0449L105.153 35.3564H119.526V49.9527L129.68 60.2734Z" fill="#EFD9F9"/>
<mask id="mask0_232_387" style="mask-type:alpha" maskUnits="userSpaceOnUse" x="78" y="46" width="15" height="19">
<ellipse cx="85.3454" cy="55.4586" rx="7.0085" ry="8.83072" fill="white"/>
</mask>
<g mask="url(#mask0_232_387)">
<rect x="74.2715" y="46.126" width="22.2233" height="18.6084" fill="white"/>
<rect x="78.3369" y="50.6016" width="7.63194" height="9.67174" rx="3.81597" fill="black"/>
</g>
<mask id="mask1_232_387" style="mask-type:alpha" maskUnits="userSpaceOnUse" x="97" y="46" width="15" height="19">
<ellipse cx="104.772" cy="55.4586" rx="7.0085" ry="8.83072" fill="white"/>
</mask>
<g mask="url(#mask1_232_387)">
<rect x="93.6982" y="46.126" width="22.2233" height="18.6084" fill="white"/>
<path d="M98.248 52.6324C98.248 50.5249 99.9565 48.8164 102.064 48.8164V48.8164C104.172 48.8164 105.88 50.5249 105.88 52.6324V54.6722C105.88 56.7797 104.172 58.4881 102.064 58.4881V58.4881C99.9565 58.4881 98.248 56.7797 98.248 54.6722V52.6324Z" fill="black"/>
</g>
<path d="M89.6758 70.2109C91.6252 73.0064 97.1456 76.92 103.632 70.2109" stroke="black" stroke-width="2.77525" stroke-linecap="round"/>
</g>
<defs>
<clipPath id="clip0_232_387">
<rect width="194" height="120" fill="white" transform="translate(0.988281 0.272461)"/>
</clipPath>
</defs>
</svg>
