<svg width="146" height="146" viewBox="0 0 146 146" fill="none" xmlns="http://www.w3.org/2000/svg">
<path d="M114.95 133.584L133.785 114.749L31.2547 12.2186L12.4195 31.0538L114.95 133.584Z" fill="#C383D9"/>
<path d="M12.4148 114.749L31.25 133.584L133.78 31.0535L114.945 12.2183L12.4148 114.749Z" fill="#C383D9"/>
<path d="M145.599 86.2161V59.5791L0.598633 59.5791V86.2161H145.599Z" fill="#C383D9"/>
<path d="M59.78 145.398H86.417L86.417 0.398453H59.78L59.78 145.398Z" fill="#C383D9"/>
<path d="M106.663 72.8977L96.8383 82.8834V97.0061H82.9313L73.098 106.983L63.2647 97.0061H49.3577V82.8834L39.5332 72.8977L49.3577 62.912V48.7893H63.2647L73.098 38.8125L82.9313 48.7893H96.8383V62.912L106.663 72.8977Z" fill="#EFD9F9"/>
</svg>
