<svg width="128" height="128" viewBox="0 0 128 128" fill="none" xmlns="http://www.w3.org/2000/svg">
<g clip-path="url(#clip0_361_7880)">
<mask id="mask0_361_7880" style="mask-type:luminance" maskUnits="userSpaceOnUse" x="9" y="9" width="110" height="110">
<path d="M118.935 9.0647H9.0647V118.935H118.935V9.0647Z" fill="white"/>
</mask>
<g mask="url(#mask0_361_7880)">
<path d="M118.077 27.2535C118.077 17.6914 110.3 9.9231 100.747 9.9231H27.9831C18.0347 9.9231 9.93161 18.0175 9.93161 27.9746V58.206H9.9231V100.489C9.9231 110.189 17.8114 118.077 27.5024 118.077H100.266C110.086 118.077 118.077 110.086 118.077 100.266V58.206H118.043L118.077 27.2535Z" fill="white" stroke="#EAE3DC" stroke-width="1.25" stroke-miterlimit="10"/>
<path d="M62.9356 62.9272H48.5322C48.5837 63.2705 48.6181 63.6309 48.6181 64.0001C48.6181 67.9657 45.3991 71.1846 41.4335 71.1846C37.4679 71.1846 34.2491 67.9657 34.2491 64.0001C34.2491 63.6309 34.2748 63.2705 34.3349 62.9272H16.7985V27.9746C16.7985 21.8029 21.8028 16.79 27.983 16.79H58.9956L59.279 18.8158V18.8673L60.927 32.5066C60.3175 32.6354 59.7338 32.8414 59.176 33.0903H59.1501C58.4721 33.3993 57.8369 33.7943 57.2704 34.2492C57.2361 34.275 57.2017 34.3093 57.1674 34.3437C57.1674 34.3437 57.1587 34.3435 57.1587 34.3522C57.1587 34.3522 57.1502 34.3607 57.1331 34.3607C57.1072 34.3865 57.0816 34.3952 57.0729 34.4208C57.0214 34.4723 56.9785 34.5067 56.927 34.5497C56.8669 34.6012 56.8069 34.644 56.7639 34.7042C56.7639 34.7042 56.7554 34.7127 56.7382 34.7127L56.5922 34.8585C56.5922 34.8585 56.5579 34.893 56.5322 34.9102L56.4292 35.013L56.3262 35.1162C56.2575 35.1848 56.1974 35.262 56.1374 35.3307C56.1115 35.3565 56.103 35.3822 56.0772 35.3994C56.0257 35.4595 55.9828 35.5195 55.9313 35.5796C55.897 35.6311 55.8627 35.6655 55.8283 35.7084C55.7768 35.7685 55.7425 35.8114 55.6995 35.8714C55.6308 35.9659 55.5537 36.0602 55.485 36.1719C54.4463 37.6225 53.8283 39.3994 53.7939 41.3134C53.7339 44.4122 55.2103 47.1761 57.5107 48.8929C57.5794 48.953 57.6652 48.9959 57.7339 49.056C57.9228 49.1847 58.1116 49.3049 58.3089 49.425C58.3691 49.4594 58.4291 49.4937 58.4893 49.528C58.5493 49.5624 58.5923 49.5882 58.6523 49.6224C58.7124 49.6567 58.7725 49.6825 58.8411 49.7169C58.9356 49.7684 59.0471 49.8112 59.1416 49.8627C59.2446 49.9142 59.3476 49.9572 59.4506 49.9916C59.5536 50.0431 59.6738 50.086 59.7853 50.1204C59.9055 50.1719 60.0085 50.2062 60.1287 50.2406C60.309 50.3006 60.4978 50.3606 60.6867 50.4036C60.7467 50.4121 60.8154 50.4379 60.8755 50.4551C60.9355 50.4722 61.0042 50.4808 61.0644 50.5066C61.0987 50.5151 61.1244 50.5152 61.1587 50.5324C61.2189 50.5409 61.2789 50.5581 61.339 50.5666C61.4935 50.5924 61.6394 50.6182 61.7939 50.6354C62.1631 50.6869 62.5407 50.7039 62.9356 50.7039V62.9014V62.9272Z" fill="#FF6835"/>
<path d="M71.1846 87.605C71.1846 91.5706 67.9657 94.7895 64.0001 94.7895C63.6309 94.7895 63.2705 94.7637 62.9272 94.7037V111.201H27.5024C21.5797 111.201 16.79 106.412 16.79 100.48V65.0643H32.2492C32.7814 69.6566 36.6869 73.2274 41.4251 73.2274C46.1633 73.2274 50.0687 69.6652 50.6009 65.0643H62.9272V80.4892C63.2705 80.4377 63.6309 80.4034 64.0001 80.4034C67.9572 80.4119 71.176 83.6308 71.176 87.5878L71.1846 87.605Z" fill="#C383D9"/>
<path d="M111.21 65.0728V100.266C111.21 106.309 106.309 111.21 100.266 111.21H65.0814V96.7807C69.6736 96.2486 73.2444 92.3431 73.2444 87.6049C73.2444 82.8667 69.6823 78.9611 65.0814 78.4289V65.0728H80.5062C80.4547 64.7294 80.4203 64.3689 80.4203 63.9999C80.4203 60.0342 83.6393 56.8153 87.6049 56.8153C91.5705 56.8153 94.7893 60.0342 94.7893 63.9999C94.7893 64.3689 94.7637 64.7294 94.7035 65.0728H111.201H111.21Z" fill="#FFC33F"/>
<path d="M111.21 27.2534L111.176 57.0472L98.2059 58.7124C97.1243 54.2146 92.8153 51.1416 88.12 51.7168C83.4077 52.2918 79.9655 56.309 79.9999 60.9356L66.7211 62.5407L64.9785 48.249C64.6352 48.3433 64.2833 48.412 63.9141 48.4635C59.9828 48.9442 56.3949 46.1374 55.9142 42.1889C55.4335 38.2576 58.2404 34.6697 62.1802 34.189C62.5408 34.1375 62.8927 34.1288 63.2533 34.1375L61.1674 16.7814H100.729C106.515 16.7814 111.193 21.468 111.193 27.2448L111.21 27.2534Z" fill="#6692FD"/>
<path d="M92.4373 82.7295C92.7722 82.7295 93.1069 82.7553 93.4245 82.7982L93.6134 76.3519H91.2529L91.4418 82.7982C91.7765 82.7467 92.0941 82.7295 92.4288 82.7295H92.4373Z" fill="#F7EDDA"/>
<path d="M96.4891 84.1459L99.8625 78.6352L97.8283 77.4678L94.7723 83.1587C95.0728 83.2788 95.3647 83.4248 95.6652 83.5878C95.9484 83.751 96.2402 83.9484 96.4891 84.1459Z" fill="#F7EDDA"/>
<path d="M98.0342 85.9484C98.1972 86.2317 98.3432 86.5407 98.4719 86.8411L104.146 83.7511L102.953 81.7252L97.4677 85.1502C97.6737 85.3905 97.8625 85.648 98.0255 85.9484H98.0342Z" fill="#F7EDDA"/>
<path d="M98.9181 89.1671C98.9181 89.5019 98.8924 89.8366 98.8495 90.1543L105.313 90.3001L105.287 87.9397L98.8409 88.18C98.8924 88.5062 98.9268 88.8324 98.9268 89.1671H98.9181Z" fill="#F7EDDA"/>
<path d="M98.0859 92.3948C97.9228 92.6953 97.7425 92.9699 97.5365 93.2188L103.064 96.5579L104.223 94.5063L98.515 91.5021C98.3864 91.8026 98.249 92.0944 98.0859 92.3948Z" fill="#F7EDDA"/>
<path d="M95.7508 94.781C95.4675 94.9442 95.1672 95.1072 94.8582 95.2188L97.9911 100.867L100.017 99.6652L96.5577 94.2145C96.2915 94.4205 96.034 94.6093 95.7508 94.7725V94.781Z" fill="#F7EDDA"/>
<path d="M92.5321 95.6908C92.1974 95.6908 91.8626 95.6822 91.545 95.6307L91.4506 102.094L93.8025 102.06L93.5193 95.6135C93.2103 95.665 92.8754 95.6994 92.5408 95.6994L92.5321 95.6908Z" fill="#F7EDDA"/>
<path d="M88.4635 94.326L85.1587 99.8796L87.2189 101.021L90.1889 95.2874C89.8884 95.1672 89.5793 95.0384 89.296 94.8667C88.9957 94.7037 88.721 94.5234 88.4635 94.3174V94.326Z" fill="#F7EDDA"/>
<path d="M86.8927 92.5664C86.7123 92.2832 86.575 91.9827 86.4377 91.6737L80.8154 94.8411L82.0343 96.8582L87.4592 93.3648C87.2532 93.1158 87.0643 92.8411 86.9012 92.5664H86.8927Z" fill="#F7EDDA"/>
<path d="M85.9655 89.3561C85.9569 89.0212 85.9742 88.6865 86.0257 88.3689L79.5621 88.3174L79.6136 90.6693L86.0599 90.3346C85.9999 90.0084 85.9655 89.6908 85.9655 89.3561Z" fill="#F7EDDA"/>
<path d="M86.7466 86.1029C86.9011 85.8024 87.09 85.5277 87.2788 85.2702L81.6994 82.0171L80.5664 84.0772L86.326 86.9956C86.4461 86.6951 86.5921 86.4033 86.7466 86.1029Z" fill="#F7EDDA"/>
<path d="M89.0472 83.6825C89.3304 83.5022 89.6308 83.3477 89.9313 83.2275L86.7123 77.6224L84.7124 78.8498L88.2489 84.249C88.4979 84.043 88.7639 83.8542 89.0472 83.6738V83.6825Z" fill="#F7EDDA"/>
<path d="M92.4375 94.3947C95.2962 94.3947 97.6135 92.0773 97.6135 89.2187C97.6135 86.3602 95.2962 84.0428 92.4375 84.0428C89.5789 84.0428 87.2616 86.3602 87.2616 89.2187C87.2616 92.0773 89.5789 94.3947 92.4375 94.3947Z" fill="#FF6835"/>
<path d="M92.4377 94.3862C94.789 94.3862 96.6951 92.4801 96.6951 90.1287C96.6951 87.7775 94.789 85.8712 92.4377 85.8712C90.0863 85.8712 88.1802 87.7775 88.1802 90.1287C88.1802 92.4801 90.0863 94.3862 92.4377 94.3862Z" fill="#EFE1C3"/>
<path d="M29.7498 28.5492L26.4055 31.8935L44.6142 50.1022L47.9586 46.7579L29.7498 28.5492Z" fill="#F2DFDA"/>
<path d="M44.6262 28.5519L26.4176 46.7605L29.7619 50.1048L47.9705 31.8962L44.6262 28.5519Z" fill="#F2DFDA"/>
<path d="M50.0601 36.9614H24.3092V41.6909H50.0601V36.9614Z" fill="#F2DFDA"/>
<path d="M39.5451 26.4467H34.8156V52.1976H39.5451V26.4467Z" fill="#F2DFDA"/>
<path d="M41.7428 39.322L40.4037 40.6611V42.5495H38.5238L37.1848 43.8885L35.8544 42.5495H33.9573V40.6611L32.6183 39.322L33.9573 37.983V36.1031H35.8544L37.1848 34.764L38.5238 36.1031H40.4037V37.983L41.7428 39.322Z" fill="#FF6835"/>
<path d="M45.2102 82.3089C45.2102 83.6909 44.8669 84.987 44.2575 86.12C43.4506 87.6307 42.1631 88.8496 40.6094 89.5878C39.5708 90.0771 38.4291 90.3518 37.2103 90.3603H37.0816C35.8455 90.3518 34.6695 90.0513 33.6223 89.5363C32.2318 88.8411 31.0559 87.7681 30.2575 86.4462C29.528 85.2445 29.116 83.8196 29.116 82.3089C29.116 82.06 29.1245 81.8197 29.1503 81.5793C33.4765 81.5879 37.0043 85.0385 37.1588 89.3389H37.1674C37.3219 85.0385 40.8412 81.605 45.1759 81.5793C45.1845 81.8025 45.2017 82.0429 45.2017 82.2917L45.2102 82.3089Z" fill="#EFD9F9"/>
<path d="M50.06 89.7509C50.06 91.9568 49.5022 94.0427 48.5236 95.8538C47.2276 98.2658 45.176 100.214 42.6867 101.399C41.03 102.188 39.1933 102.618 37.2362 102.626H37.0302C35.0473 102.601 33.1761 102.137 31.5108 101.313C29.2791 100.214 27.4079 98.489 26.1375 96.3688C24.9788 94.4375 24.3177 92.1715 24.3177 89.7509C24.3177 89.356 24.3264 88.9612 24.3692 88.5835C31.3048 88.6092 36.9442 94.1114 37.1846 100.995H37.1932C37.4336 94.1199 43.0731 88.6092 50.0087 88.5835C50.043 88.9783 50.0687 89.356 50.0687 89.7509H50.06Z" fill="#EFD9F9"/>
<path d="M45.2102 82.3089C45.2102 83.6909 44.8669 84.987 44.2575 86.12C43.4506 87.6307 42.1631 88.8496 40.6094 89.5878C39.5708 90.0771 38.4291 90.3518 37.2103 90.3603H37.0816C35.8455 90.3518 34.6695 90.0513 33.6223 89.5363C32.2318 88.8411 31.0559 87.7681 30.2575 86.4462C29.528 85.2445 29.116 83.8196 29.116 82.3089C29.116 82.06 29.1245 81.8197 29.1503 81.5793C33.4765 81.5879 37.0043 85.0385 37.1588 89.3389H37.1674C37.3219 85.0385 40.8412 81.605 45.1759 81.5793C45.1845 81.8025 45.2017 82.0429 45.2017 82.2917L45.2102 82.3089Z" fill="#EFD9F9"/>
<path d="M50.06 89.7509C50.06 91.9568 49.5022 94.0427 48.5236 95.8538C47.2276 98.2658 45.176 100.214 42.6867 101.399C41.03 102.188 39.1933 102.618 37.2362 102.626H37.0302C35.0473 102.601 33.1761 102.137 31.5108 101.313C29.2791 100.214 27.4079 98.489 26.1375 96.3688C24.9788 94.4375 24.3177 92.1715 24.3177 89.7509C24.3177 89.356 24.3264 88.9612 24.3692 88.5835C31.3048 88.6092 36.9442 94.1114 37.1846 100.995H37.1932C37.4336 94.1199 43.0731 88.6092 50.0087 88.5835C50.043 88.9783 50.0687 89.356 50.0687 89.7509H50.06Z" fill="#EFD9F9"/>
<path d="M37.2361 100.884H37.1073C36.7726 100.884 36.4979 100.609 36.4979 100.275V82.1631C36.4979 81.8284 36.7726 81.5536 37.1073 81.5536H37.2361C37.5708 81.5536 37.8455 81.8284 37.8455 82.1631V100.275C37.8455 100.618 37.5708 100.884 37.2361 100.884Z" fill="#EFD9F9"/>
<path d="M41.9916 77.339C41.9916 78.1716 41.777 78.9441 41.4165 79.6308C40.9272 80.5406 40.1633 81.2617 39.2191 81.708C38.6011 82.0085 37.9057 82.163 37.1847 82.1715H37.0989C36.3607 82.163 35.6568 81.9913 35.0216 81.6823C34.1891 81.2617 33.4852 80.618 33.0046 79.8368C32.5667 79.1072 32.3092 78.266 32.3092 77.3562C32.3092 77.2102 32.3179 77.0557 32.335 76.9183C34.9358 76.927 37.0474 78.9956 37.1419 81.5707C37.2362 78.9956 39.3478 76.9183 41.9487 76.9183C41.983 77.0472 41.983 77.193 41.983 77.3477L41.9916 77.339Z" fill="#EFD9F9"/>
<path d="M96.8667 34.2749C97.6649 33.5796 97.888 32.0947 97.519 31.3221C96.446 29.0817 94.3602 29.1504 93.4761 29.1332C92.9525 25.8629 90.1628 24.5839 87.3732 25.0302C84.9011 25.4251 82.9868 27.2191 82.326 29.5196C81.6135 29.3651 80.8581 29.3307 80.1027 29.4422C76.6865 29.9573 74.3517 33.2105 74.8754 36.7212C75.0642 37.9659 75.5878 39.0731 76.3346 39.9658C75.8368 40.6525 75.5964 41.528 75.7337 42.4465C75.8368 43.1417 76.1458 43.7598 76.5921 44.2319C77.296 44.9958 78.3345 45.3993 79.4247 45.2361C79.4247 45.2361 94.3431 42.9872 98.3687 42.3779C100.008 42.1289 101.854 40.1289 101.51 37.8714C101.201 35.8028 99.5189 34.4294 96.8667 34.2662V34.2749Z" fill="#D9E2F4"/>
</g>
</g>
<defs>
<clipPath id="clip0_361_7880">
<rect width="128" height="128" fill="white"/>
</clipPath>
</defs>
</svg>
