<?xml version="1.0" encoding="UTF-8"?>
<svg id="Layer_2" data-name="Layer 2" xmlns="http://www.w3.org/2000/svg" viewBox="0 0 347.21 126">
  <defs>
    <style>
      .cls-1 {
        fill: #f4f4f4;
      }

      .cls-2 {
        fill: #fff;
      }

      .cls-3 {
        fill: #6692fd;
      }

      .cls-4 {
        fill: #ff6835;
      }

      .cls-5 {
        fill: #c383d9;
      }

      .cls-6 {
        fill: #ffc33f;
      }
    </style>
  </defs>
  <g id="Layer_1-2" data-name="Layer 1">
    <g id="Logo_Symbol_and_Type" data-name="Logo Symbol and Type">
      <path id="Shade" class="cls-2" d="m337.26,37.92l8.89-19.75c1.63-3.46,1.1-6.13.34-7.78-.78-1.71-2.53-3.93-6.42-4.83l-2.67-.62c-.93-.22-1.78-.32-2.61-.32-.6,0-1.19.06-1.76.17-1.96.39-3.71,1.51-4.99,3.17-.49.57-.91,1.21-1.26,1.91-.19.38-.37.78-.55,1.23l-.45.97-.27-.48c-.23-.45-.45-.85-.65-1.18-.28-.47-.58-.91-.88-1.3-1.63-2.18-3.63-2.99-5.03-3.28-.58-.12-1.19-.18-1.81-.18-.82,0-1.67.11-2.63.33l-2.26.54c-1.62.34-2.86.93-3.84,1.62-1.36-.6-2.79-1.11-4.28-1.49-2.52-.64-5.06-.97-7.53-.97-4.64,0-8.83,1.02-12.46,3.03-2.17,1.2-4.06,2.7-5.67,4.48-.83-.98-1.69-1.79-2.52-2.43-3.89-3.02-9.14-4.56-15.62-4.56h-7.93c-1.66,0-3.18.39-4.47,1.09-1.3-.7-2.82-1.09-4.49-1.09h-17.67c-1.84,0-3.5.49-4.88,1.34-1.21-.75-2.85-1.34-5.01-1.34h-3.11c-2.65,0-5.01,1-6.65,2.83-1.3,1.46-2.07,3.31-2.29,5.5,0,.08-.04.6-.04.6l-2.82-4.22c-.19-.29-.43-.58-.68-.85-.33-.4-.71-.77-1.12-1.09-.45-.38-.95-.7-1.49-.96-1.25-.65-2.7-.99-4.3-.99h-3.11c-.75,0-1.46.09-2.14.24-.97-.71-2.21-1.34-3.85-1.72l-2.67-.62c-.93-.22-1.78-.32-2.61-.32-.6,0-1.2.06-1.76.17-1.96.39-3.71,1.51-4.99,3.16-.5.58-.92,1.22-1.26,1.9-.19.37-.37.78-.56,1.25l-.45.98-.27-.48c-.23-.45-.45-.84-.65-1.17-.28-.47-.58-.91-.88-1.3-1.64-2.17-3.63-2.98-5.03-3.28-.58-.12-1.2-.19-1.82-.19-.82,0-1.67.11-2.63.33l-2.26.54c-1.39.29-2.5.76-3.41,1.32-.57-.26-1.15-.51-1.76-.73-1.31-.46-2.67-.83-4.07-1.1-1.5-.29-2.98-.44-4.38-.44-5.3,0-9.63,1.57-12.87,4.66-1.99,1.9-3.4,4.2-4.21,6.8-1.52-9.64-9.86-17.04-19.92-17.04H21.04C9.45,0,.01,9.43.01,21.03v35.22h-.01v49.26c0,11.3,9.19,20.49,20.48,20.49h84.77c8.5,0,15.82-5.15,19.02-12.49.35,1.19.97,2.27,1.84,3.17,1.46,1.5,3.46,2.33,5.64,2.33h8.04c.19,0,.38-.01.56-.03.76.24,1.58.38,2.43.38h.93c1.35,0,2.6-.32,3.7-.9.18.07.36.13.55.19.5,1,1.22,1.9,2.14,2.61.03.03.07.05.1.08,1.24.93,2.75,1.62,4.48,2.05,1.36.34,2.74.51,4.11.51,1.9,0,3.69-.35,5.33-1.04,1.95-.83,3.59-2.19,4.78-3.96.1-.02.2-.04.31-.06.55.12,1.12.18,1.71.18h.95c.76,0,1.48-.11,2.17-.3.48.13.96.24,1.44.33.89.15,1.76.23,2.59.23,1.32,0,2.59-.19,3.81-.56.8.27,1.65.42,2.55.42h.93c1.14,0,2.22-.23,3.2-.66,1.03.5,2.2.77,3.45.77h.93c1.59,0,3.05-.46,4.28-1.24,1.45.75,3.03,1.19,4.75,1.26.1,0,.19,0,.29,0h.42c.13,0,.25,0,.38-.01.25-.01.51-.04.76-.06.77.26,1.61.4,2.48.4h1.39c.72,0,1.41-.12,2.06-.29.31.04.63.06.96.06h.93c1.35,0,2.6-.32,3.7-.9.9.36,1.9.55,2.94.55h.93c1.09,0,2.12-.21,3.06-.6,1.16.39,2.38.6,3.63.6.51,0,1.02-.03,1.53-.1.83.29,1.72.45,2.66.45h.93c1.3,0,2.51-.31,3.58-.85.47.23.97.44,1.49.57.34.09.7.16,1.06.21.35.04.71.07,1.09.07h.35c.94,0,1.85-.15,2.69-.43.5.06,1,.08,1.5.08,1.96,0,3.8-.46,5.5-1.31,1.9,1.03,4.04,1.56,6.37,1.57.47.74,1.06,1.42,1.77,1.98.04.03.08.06.12.09,1.24.93,2.75,1.62,4.48,2.05,1.36.34,2.74.51,4.11.51,1.9,0,3.69-.35,5.32-1.04,1.86-.79,3.45-2.07,4.63-3.72.65.09,1.31.14,1.99.14,1.5,0,2.92-.23,4.24-.68,1.03.49,2.19.77,3.42.77h.93c1.35,0,2.6-.32,3.7-.9.9.36,1.9.55,2.94.55h.93c1.09,0,2.12-.21,3.06-.6,1.16.39,2.38.6,3.63.6.51,0,1.02-.03,1.53-.1.83.29,1.72.45,2.66.45h.93c4.38,0,7.81-3.43,7.81-7.81v-15.45c0-.38-.04-.76-.09-1.12,2.01-1.63,3.23-4.14,3.23-7.11v-5.26h.08s0,6.28,0,6.28c0,5.27,3.8,9.09,9.04,9.09h3.22c5.27,0,9.09-3.83,9.09-9.09v-32.82c0-1.98-.54-3.76-1.5-5.21.86-1.39,1.36-3.08,1.36-4.95v-7.98Zm-21.22,23.23h-.08s0-.51,0-.51l.08-.03v.54Z"/>
      <g id="Type">
        <path d="m147.31,38.8c0-.9-.37-1.7-1.11-2.41-.74-.71-1.7-1.37-2.88-1.99-1.17-.62-2.41-1.28-3.7-1.97-1.29-.69-2.53-1.49-3.7-2.38-1.17-.9-2.13-1.97-2.88-3.21-.74-1.24-1.11-2.71-1.11-4.4,0-2.94.95-5.31,2.85-7.12,1.9-1.81,4.58-2.72,8.03-2.72.97,0,1.99.1,3.06.31,1.07.21,2.1.48,3.08.83.98.35,1.86.78,2.62,1.29.52.35.84.68.96,1.01.12.33.04.77-.23,1.32l-1.4,3.11c-.21.45-.47.73-.78.83-.31.1-.76.05-1.35-.16-.97-.45-1.99-.83-3.06-1.14-1.07-.31-2.06-.47-2.95-.47-1.07,0-1.96.19-2.67.57-.71.38-1.06,1-1.06,1.87s.37,1.64,1.11,2.33c.74.69,1.7,1.36,2.88,2,1.17.64,2.41,1.3,3.7,1.99,1.3.69,2.53,1.49,3.7,2.38,1.17.9,2.13,1.96,2.88,3.19.74,1.23,1.11,2.65,1.11,4.27,0,3.25-1.04,5.79-3.11,7.64-2.07,1.85-4.94,2.77-8.6,2.77-1.21,0-2.49-.14-3.83-.42-1.35-.28-2.64-.66-3.89-1.17-1.24-.5-2.37-1.08-3.37-1.74-.52-.38-.85-.73-.98-1.04-.14-.31-.07-.76.21-1.35l1.45-3.06c.28-.48.55-.79.83-.93.28-.14.71-.05,1.29.26,1.48.79,3.01,1.41,4.56,1.84,1.55.43,2.9.65,4.04.65,1.28,0,2.31-.2,3.11-.6.79-.4,1.19-1.13,1.19-2.2Z"/>
        <path d="m174.46,45.9c0,1.35-.67,2.02-2.02,2.02h-3.06c-.93,0-1.54-.34-1.81-1.04-.07-.14-.12-.3-.16-.49-.03-.19-.05-.41-.05-.65v-9.9l-10.78-19.64c-.45-.86-.56-1.51-.34-1.94.22-.43.79-.73,1.68-.91l2.38-.57c.59-.14,1.04-.17,1.37-.1.33.07.63.29.91.67.14.17.29.39.44.65.16.26.32.56.49.91l6.48,11.35.62,1.04,6.22-13.42c.14-.34.27-.64.39-.88.12-.24.27-.45.44-.62.28-.41.59-.66.93-.72.34-.07.81-.03,1.4.1l2.69.62c.9.21,1.44.52,1.63.93.19.42.08,1.05-.34,1.92l-9.53,21.19v9.48Z"/>
        <path d="m195.39,46.88c0,1.35-.67,2.02-2.02,2.02h-3.11c-1.31,0-1.97-.67-1.97-2.02v-30.83c0-1.35.66-2.02,1.97-2.02h3.11c.48,0,.85.07,1.09.21.03,0,.05.02.05.05.03,0,.06,0,.08.03.02.02.04.03.08.03,0,.04.02.05.05.05.03.03.07.06.1.08.03.02.07.06.1.13l.16.16.05.05,14.3,21.4,1.35-20.98c.07-.69.25-1.2.54-1.53.29-.33.77-.49,1.42-.49h3.11c1.45,0,2.12.67,2.02,2.02l-1.97,30.67c-.03.69-.21,1.2-.52,1.53-.31.33-.79.49-1.45.49h-3.11c-.73,0-1.26-.19-1.61-.57-.03-.07-.07-.13-.1-.18s-.09-.08-.16-.08l-13.57-20.31v20.1Z"/>
        <path d="m224.77,47.92c-1.35,0-2-.67-1.97-2.02l.93-30.67c.03-1.35.71-2.02,2.02-2.02h17.67c1.35,0,2.02.67,2.02,2.02v2.95c0,1.31-.66,1.97-1.97,1.97h-13l-.21,7.1,11.09-.67c1.35-.1,2.02.55,2.02,1.97v2.95c0,1.21-.66,1.87-1.97,1.97l-11.35.72-.26,6.79h13.63c1.35,0,2.02.67,2.02,2.02v2.95c0,1.31-.66,1.97-1.97,1.97h-18.7Z"/>
        <path d="m272.64,49.27c-.55.14-.98.18-1.29.13-.31-.05-.59-.23-.83-.54-.24-.31-.55-.79-.93-1.45l-5.6-9.64c-.59.07-1.18.12-1.79.16-.6.04-1.24.05-1.89.05h-2.8v8.03c0,1.31-.67,1.97-2.02,1.97h-3.11c-1.31,0-1.97-.66-1.97-1.97V15.23c0-1.35.66-2.02,1.97-2.02h7.93c4.9,0,8.68,1.03,11.32,3.08,2.64,2.06,3.96,5.16,3.96,9.3,0,4.63-1.69,8-5.08,10.1l5.7,10.26c.79,1.52.34,2.45-1.35,2.8l-2.23.52Zm-12.12-28.7h-3v10.05h3c2.8,0,4.83-.45,6.09-1.35,1.26-.9,1.89-2.12,1.89-3.68s-.63-2.78-1.89-3.68c-1.26-.9-3.29-1.35-6.09-1.35Z"/>
        <path d="m309.16,48.9c0,1.28-.67,1.92-2.02,1.92h-3.11c-1.31,0-1.97-.69-1.97-2.07v-2.18c-.9.45-1.89.79-2.98,1.01-1.09.23-2.13.34-3.13.34-3.39,0-6.32-.73-8.81-2.2-2.49-1.47-4.41-3.53-5.78-6.19-1.36-2.66-2.05-5.8-2.05-9.43s.72-6.59,2.15-9.2c1.43-2.61,3.45-4.63,6.04-6.06,2.59-1.43,5.61-2.15,9.07-2.15,1.9,0,3.83.25,5.8.75,1.97.5,3.76,1.25,5.39,2.25.55.38.66,1,.31,1.87l-1.5,3.63c-.21.48-.47.79-.8.91-.33.12-.77.06-1.32-.18-.62-.28-1.37-.56-2.25-.85-.88-.29-1.81-.54-2.8-.73-.98-.19-1.93-.29-2.82-.29-2.21,0-4.07.44-5.57,1.32-1.5.88-2.63,2.08-3.39,3.6-.76,1.52-1.14,3.23-1.14,5.13,0,2.11.39,3.98,1.17,5.62s1.95,2.93,3.52,3.86c1.57.93,3.57,1.4,5.98,1.4.62,0,1.37-.05,2.25-.16.88-.1,1.77-.31,2.67-.62v-4.97l-5.7.26c-.17,0-.32,0-.44-.03-.12-.02-.23-.04-.34-.08-.79-.17-1.19-.79-1.19-1.87v-3.16c0-1.31.67-1.99,2.02-2.02l10.78-.52c.14,0,.28,0,.42.03.14.02.26.04.36.08.79.21,1.19.85,1.19,1.92v19.07Z"/>
        <path d="m330.25,45.9c0,1.35-.67,2.02-2.02,2.02h-3.06c-.93,0-1.54-.34-1.81-1.04-.07-.14-.12-.3-.16-.49-.04-.19-.05-.41-.05-.65v-9.9l-10.78-19.64c-.45-.86-.56-1.51-.34-1.94.22-.43.79-.73,1.68-.91l2.38-.57c.59-.14,1.04-.17,1.37-.1.33.07.63.29.91.67.14.17.29.39.44.65.16.26.32.56.49.91l6.48,11.35.62,1.04,6.22-13.42c.14-.34.27-.64.39-.88.12-.24.27-.45.44-.62.28-.41.59-.66.93-.72s.81-.03,1.4.1l2.69.62c.9.21,1.44.52,1.63.93.19.42.08,1.05-.34,1.92l-9.53,21.19v9.48Z"/>
        <path d="m132.82,89.98c-1.4,0-2.08-.7-2.04-2.09l.97-31.8c.04-1.4.73-2.1,2.1-2.1h18.32c1.4,0,2.09.7,2.09,2.1v3.06c0,1.36-.68,2.04-2.04,2.04h-13.48l-.21,7.36,11.5-.7c1.4-.11,2.1.57,2.1,2.04v3.06c0,1.25-.68,1.93-2.04,2.04l-11.77.75-.27,7.04h14.13c1.4,0,2.09.7,2.09,2.1v3.06c0,1.36-.68,2.04-2.04,2.04h-19.39Z"/>
        <path d="m166.78,88.9c0,1.4-.7,2.09-2.1,2.09h-3.22c-1.36,0-2.04-.7-2.04-2.09v-31.96c0-1.4.68-2.1,2.04-2.1h3.22c.5,0,.88.07,1.13.21.04,0,.05.02.05.05.04,0,.06,0,.08.03.02.02.04.03.08.03,0,.04.02.05.05.05.04.04.07.06.11.08.04.02.07.06.11.13.07.07.13.13.16.16l.05.05,14.83,22.19,1.4-21.76c.07-.72.26-1.24.56-1.58.3-.34.8-.51,1.48-.51h3.22c1.5,0,2.2.7,2.1,2.1l-2.04,31.8c-.04.72-.21,1.24-.54,1.58-.32.34-.82.51-1.5.51h-3.22c-.75,0-1.31-.2-1.67-.59-.04-.07-.07-.13-.11-.19-.04-.05-.09-.08-.16-.08l-14.08-21.06v20.84Z"/>
        <path d="m224.85,91c0,1.33-.7,1.99-2.09,1.99h-3.22c-1.36,0-2.04-.72-2.04-2.15v-2.26c-.93.47-1.96.81-3.09,1.05-1.13.23-2.21.35-3.25.35-3.51,0-6.55-.76-9.13-2.28-2.58-1.52-4.58-3.66-5.99-6.42-1.42-2.76-2.12-6.02-2.12-9.78s.74-6.83,2.23-9.54c1.49-2.7,3.57-4.8,6.26-6.29,2.69-1.49,5.82-2.23,9.4-2.23,1.97,0,3.98.26,6.02.78,2.04.52,3.9,1.3,5.59,2.34.57.39.68,1.04.32,1.93l-1.56,3.76c-.21.5-.49.82-.83.94-.34.13-.8.06-1.37-.19-.64-.29-1.42-.58-2.34-.89-.91-.3-1.88-.55-2.9-.75-1.02-.2-2-.29-2.93-.29-2.29,0-4.22.46-5.77,1.37-1.56.91-2.73,2.16-3.52,3.73s-1.18,3.35-1.18,5.32c0,2.18.4,4.13,1.21,5.83s2.02,3.04,3.65,4c1.63.97,3.7,1.45,6.21,1.45.64,0,1.42-.05,2.34-.16.91-.11,1.83-.32,2.77-.64v-5.16l-5.91.27c-.18,0-.33,0-.46-.03-.13-.02-.24-.04-.35-.08-.82-.18-1.24-.82-1.24-1.93v-3.28c0-1.36.7-2.06,2.09-2.09l11.17-.54c.14,0,.29,0,.43.03.14.02.27.04.38.08.82.22,1.24.88,1.24,1.99v19.77Z"/>
        <path d="m253.95,89.92l-20.61-.97c-1.36,0-2.04-.68-2.04-2.04v-30.84c0-1.4.68-2.1,2.04-2.1h3.22c1.4,0,2.1.7,2.1,2.1v26l15.23.7c.72.04,1.24.21,1.59.54.34.32.51.82.51,1.5v3.06c0,1.4-.68,2.08-2.04,2.04Z"/>
        <path d="m269.12,88.9c0,1.4-.7,2.09-2.09,2.09h-3.22c-1.36,0-2.04-.7-2.04-2.09v-33.85c0-1.4.68-2.09,2.04-2.09h3.22c1.4,0,2.09.7,2.09,2.09v33.85Z"/>
        <path d="m290.25,80.52c0-.93-.39-1.76-1.16-2.5-.77-.73-1.76-1.42-2.98-2.07-1.22-.64-2.5-1.32-3.84-2.04-1.34-.72-2.62-1.54-3.84-2.47-1.22-.93-2.21-2.04-2.98-3.33-.77-1.29-1.15-2.81-1.15-4.57,0-3.04.98-5.51,2.95-7.39,1.97-1.88,4.75-2.82,8.33-2.82,1,0,2.06.11,3.17.32,1.11.21,2.18.5,3.2.86,1.02.36,1.92.81,2.71,1.34.54.36.87.71.99,1.05.12.34.04.8-.24,1.37l-1.45,3.22c-.21.47-.48.75-.81.86s-.79.05-1.4-.16c-1-.46-2.06-.86-3.17-1.18-1.11-.32-2.13-.48-3.06-.48-1.11,0-2.03.2-2.77.59-.73.39-1.1,1.04-1.1,1.93s.38,1.7,1.16,2.42c.77.72,1.76,1.41,2.98,2.07,1.22.66,2.5,1.35,3.84,2.07,1.34.72,2.62,1.54,3.84,2.47,1.22.93,2.21,2.03,2.98,3.3.77,1.27,1.16,2.75,1.16,4.43,0,3.37-1.08,6.01-3.22,7.92-2.15,1.92-5.12,2.87-8.92,2.87-1.25,0-2.58-.14-3.98-.43s-2.74-.69-4.03-1.21c-1.29-.52-2.45-1.12-3.49-1.8-.54-.39-.88-.75-1.02-1.07-.14-.32-.07-.79.21-1.4l1.5-3.17c.29-.5.57-.82.86-.97.29-.14.73-.05,1.34.27,1.54.82,3.12,1.46,4.73,1.91,1.61.45,3.01.67,4.19.67,1.32,0,2.4-.21,3.22-.62.82-.41,1.24-1.17,1.24-2.28Z"/>
        <path d="m328.3,90.97h-3.22c-1.36,0-2.04-.7-2.04-2.09v-13.75l-14.08.91v11.82c0,1.4-.7,2.09-2.09,2.09h-3.22c-1.36,0-2.04-.7-2.04-2.09v-32.83c0-1.4.68-2.09,2.04-2.09h3.22c1.4,0,2.09.7,2.09,2.09v13.59l14.08-.91v-11.66c0-1.4.68-2.1,2.04-2.1h3.22c1.4,0,2.09.7,2.09,2.1v32.82c0,1.4-.7,2.09-2.09,2.09Z"/>
        <g>
          <path d="m131.75,112c-.56,0-.83-.27-.81-.81l.35-13.94c0-.54.27-.81.81-.81h7.66c.54,0,.81.27.81.81v1.07c0,.53-.26.79-.79.79h-5.95l-.09,3.81,5.09-.26c.54-.05.81.22.81.81v1.07c0,.48-.26.74-.79.79l-5.18.28-.09,3.72h6.18c.54,0,.81.27.81.81v1.07c0,.53-.26.79-.79.79h-8.04Z"/>
          <path d="m144.53,111.54c0,.54-.27.81-.81.81h-.93c-.54,0-.81-.27-.81-.81v-11.03c0-.54.27-.81.81-.81h.93c.54,0,.81.27.81.81v1.7c.46-.63,1.03-1.12,1.7-1.45.67-.33,1.34-.5,2.02-.5,1.11,0,2.04.36,2.76,1.08.73.72,1.09,1.89,1.09,3.5v6.36c0,.54-.27.81-.81.81h-.93c-.54,0-.81-.27-.81-.81v-5.43c0-.96-.2-1.67-.59-2.14-.39-.46-.93-.7-1.59-.7-.53,0-1,.13-1.43.38s-.77.62-1.02,1.09c-.25.47-.38,1.04-.38,1.71v5.44Z"/>
          <path d="m158.79,116.88c-.81,0-1.61-.1-2.43-.3s-1.47-.49-1.96-.86c-.14-.11-.21-.22-.22-.34s.02-.25.08-.41l.49-1.21c.08-.15.17-.26.29-.32.12-.06.24-.05.36.02.25.12.56.24.93.36s.77.21,1.2.28c.43.07.83.1,1.22.1.5,0,.94-.07,1.32-.22.39-.15.69-.41.92-.79s.34-.92.34-1.61v-1.3c-.42.5-.93.87-1.52,1.11s-1.21.37-1.85.37c-.88,0-1.69-.24-2.42-.71-.73-.47-1.3-1.14-1.73-2-.43-.86-.64-1.86-.64-3.01s.24-2.22.71-3.09c.47-.87,1.12-1.54,1.94-2.01.82-.47,1.73-.71,2.72-.71.46,0,.93.05,1.39.14.46.09.93.22,1.39.39v-.51c0-.54.27-.81.81-.81h.93c.54,0,.81.27.81.81v11.64c0,1.21-.23,2.17-.67,2.9-.45.73-1.06,1.25-1.82,1.58-.77.33-1.63.49-2.59.49Zm-.3-7.78c.54,0,1.03-.13,1.45-.4.43-.26.76-.63,1.01-1.11.25-.48.37-1.04.37-1.67v-2.32c-.42-.23-.86-.4-1.32-.51-.46-.11-.95-.16-1.46-.16-.81,0-1.48.26-2.01.78-.53.52-.8,1.3-.8,2.36,0,.62.12,1.16.37,1.61.25.46.58.81,1,1.06.42.25.88.37,1.39.37Z"/>
          <path d="m168.31,111.19c0,.54-.27.81-.81.81h-1c-.54,0-.81-.27-.81-.81v-15.1c0-.54.27-.81.81-.81h1c.54,0,.81.27.81.81v15.1Z"/>
          <path d="m171.4,98.79c-.48,0-.89-.17-1.24-.51-.35-.34-.52-.76-.52-1.25s.17-.89.52-1.23c.35-.34.76-.51,1.24-.51s.89.17,1.23.51c.34.34.51.75.51,1.23s-.17.91-.5,1.25c-.33.34-.75.51-1.24.51Zm1.28,12.4c0,.54-.27.81-.81.81h-.95c-.54,0-.81-.27-.81-.81v-9.52c0-.54.27-.81.81-.81h.95c.54,0,.81.27.81.81v9.52Z"/>
          <path d="m174.09,103.78c0-1.02.36-1.87,1.07-2.53.71-.67,1.75-1,3.11-1,.37,0,.78.03,1.22.1.44.07.87.17,1.28.31s.75.31,1.03.51c.14.11.21.22.22.35s-.02.26-.08.42l-.51,1.11c-.06.16-.16.26-.28.3-.12.05-.25.05-.37,0-.5-.19-.97-.34-1.42-.46s-.9-.19-1.35-.19c-.94,0-1.42.33-1.42.98,0,.33.14.58.42.77.28.19.64.34,1.08.48s.91.27,1.42.43c.5.16.98.36,1.42.6.44.25.8.58,1.08,1.01.28.43.42.97.42,1.64,0,.84-.2,1.52-.59,2.07-.4.54-.93.94-1.59,1.2-.67.25-1.39.38-2.18.38-.43,0-.9-.04-1.39-.13-.5-.08-.96-.22-1.41-.39s-.83-.39-1.17-.64c-.14-.11-.21-.22-.21-.34s.02-.25.07-.41l.49-1.16c.06-.15.15-.26.28-.32s.26-.05.4.02c.45.23.95.43,1.51.59.56.16,1.09.24,1.6.24.54,0,.96-.07,1.25-.22s.44-.38.44-.69-.14-.58-.42-.78c-.28-.19-.64-.36-1.08-.49-.44-.13-.91-.28-1.42-.44-.5-.16-.98-.37-1.42-.63-.44-.26-.8-.6-1.08-1.03-.28-.43-.42-.99-.42-1.67Z"/>
          <path d="m186.17,111.31c0,.54-.27.81-.81.81h-.93c-.54,0-.81-.27-.81-.81v-14.87c0-.54.27-.81.81-.81h.93c.54,0,.81.27.81.81v5.76c.46-.63,1.03-1.12,1.7-1.45.67-.33,1.34-.5,2.02-.5,1.11,0,2.04.36,2.76,1.08.73.72,1.09,1.89,1.09,3.5v6.6c0,.54-.27.81-.81.81h-.93c-.54,0-.81-.27-.81-.81v-5.67c0-.96-.2-1.67-.59-2.14-.39-.46-.93-.7-1.59-.7-.53,0-1,.13-1.43.38s-.77.62-1.02,1.09c-.25.47-.38,1.04-.38,1.71v5.2Z"/>
          <path d="m207.68,112.59h-1.39c-.39,0-.58-.19-.58-.58v-1c-.37.37-.83.67-1.37.88s-1.1.34-1.67.37h-.42c-.76-.03-1.42-.22-2-.56s-1.02-.79-1.34-1.36c-.32-.56-.48-1.2-.48-1.89s.14-1.28.43-1.83c.29-.56.74-1,1.37-1.34.63-.33,1.45-.5,2.47-.5.48,0,.98.05,1.51.15.53.1,1.02.25,1.49.45,0-.06,0-.12-.01-.17,0-.05-.02-.1-.03-.15-.06-.81-.33-1.41-.8-1.81-.47-.4-1.11-.6-1.92-.6-.43,0-.89.08-1.38.23-.49.16-.96.37-1.41.65-.26.16-.49.06-.67-.28l-.16-.35-.35-.67c-.03-.06-.06-.12-.08-.19-.02-.06-.05-.12-.08-.19-.06-.22,0-.4.21-.56.51-.39,1.15-.7,1.9-.93s1.56-.35,2.39-.35c1.53,0,2.74.45,3.62,1.35s1.32,2.18,1.32,3.83v6.62c0,.06,0,.13-.01.2,0,.07-.01.14-.01.2-.06.25-.25.37-.56.37Zm-4.74-2.76c.43,0,.85-.07,1.24-.21.4-.14.73-.32,1-.55.27-.22.43-.48.48-.75.01-.08.03-.16.03-.26,0-.09.01-.19.01-.28v-.21c-.43-.17-.89-.3-1.38-.38-.49-.08-.95-.13-1.38-.13-.64,0-1.12.11-1.45.34-.33.22-.5.55-.5.96,0,.46.19.82.58,1.08.39.26.84.38,1.37.38Z"/>
          <path d="m212.44,111.54c0,.54-.27.81-.81.81h-.93c-.54,0-.81-.27-.81-.81v-11.03c0-.54.27-.81.81-.81h.93c.54,0,.81.27.81.81v1.7c.46-.63,1.03-1.12,1.7-1.45.67-.33,1.34-.5,2.02-.5,1.11,0,2.04.36,2.76,1.08.73.72,1.09,1.89,1.09,3.5v6.36c0,.54-.27.81-.81.81h-.93c-.54,0-.81-.27-.81-.81v-5.43c0-.96-.2-1.67-.59-2.14-.39-.46-.93-.7-1.59-.7-.53,0-1,.13-1.43.38s-.77.62-1.02,1.09c-.25.47-.38,1.04-.38,1.71v5.44Z"/>
          <path d="m231,112.35h-.93c-.54,0-.81-.27-.81-.81v-1.02c-.42.5-.93.87-1.52,1.11-.6.25-1.21.37-1.85.37-.88,0-1.69-.24-2.42-.73s-1.3-1.18-1.73-2.08c-.43-.9-.64-1.94-.64-3.14s.24-2.22.71-3.09c.47-.87,1.12-1.54,1.94-2.01.82-.47,1.73-.71,2.72-.71.46,0,.93.05,1.39.14.46.09.93.22,1.39.39v-4.69c0-.54.27-.81.81-.81h.93c.54,0,.81.27.81.81v15.45c0,.54-.27.81-.81.81Zm-4.58-3.02c.54,0,1.03-.13,1.45-.39.43-.26.76-.64,1.01-1.11.25-.48.37-1.04.37-1.67v-2.56c-.42-.23-.86-.4-1.32-.51-.46-.11-.95-.16-1.46-.16-.81,0-1.48.26-2.01.78-.53.52-.8,1.3-.8,2.36,0,.67.12,1.25.37,1.74s.58.88,1,1.14.88.39,1.39.39Z"/>
          <path d="m239.39,112c-.08.12-.19.21-.33.27s-.3.08-.49.08h-.35c-.08,0-.15,0-.21-.01-.06,0-.12-.02-.16-.03-.37-.08-.56-.33-.56-.77v-15.45s0-.09.01-.14c0-.05.02-.08.03-.12.06-.37.32-.56.77-.56h.93c.45,0,.7.19.77.56.01.08.03.16.03.24,0,.08.01.18.01.29v5.37c.43-.5.94-.87,1.53-1.11.59-.25,1.2-.37,1.84-.37.88,0,1.69.23,2.42.68.73.46,1.3,1.13,1.73,2.01.43.88.64,1.96.64,3.23v.35c-.05,1.13-.31,2.11-.78,2.93-.47.82-1.1,1.45-1.88,1.89-.78.44-1.65.66-2.59.66-.46,0-.94-.05-1.44-.16s-.98-.26-1.46-.44c0,.17-.04.31-.12.41-.08.1-.19.17-.35.2Zm3.25-2.67c.81,0,1.48-.26,2.01-.78.53-.52.8-1.31.8-2.38s-.26-1.84-.77-2.4c-.51-.56-1.17-.85-1.97-.85-.5,0-.94.11-1.35.34-.4.22-.74.54-1,.94-.26.4-.42.87-.46,1.39-.02.17-.03.34-.03.52s-.01.36-.01.55v1.95c.43.25.88.43,1.35.55.46.12.94.17,1.44.17Z"/>
          <path d="m254.65,112.26c-1.19,0-2.24-.25-3.14-.75-.9-.5-1.59-1.2-2.08-2.1-.49-.9-.73-1.93-.73-3.09,0-1.08.21-2.09.63-3.01s1.04-1.66,1.87-2.22c.83-.56,1.85-.84,3.05-.84.93,0,1.76.21,2.49.63.73.42,1.3,1.02,1.72,1.81.42.79.63,1.75.63,2.88,0,.36-.04.61-.12.77-.08.15-.27.25-.58.3l-6.97.79c.2.67.59,1.22,1.17,1.66.58.44,1.34.66,2.29.66.51,0,1.03-.09,1.54-.27s.96-.37,1.31-.57c.14-.08.27-.09.4-.03s.21.16.26.31l.44,1.11c.06.17.09.31.09.42s-.07.22-.21.35c-.48.36-1.1.64-1.85.86s-1.49.33-2.22.33Zm-.58-9.5c-.73,0-1.33.21-1.8.62-.47.41-.79,1.03-.94,1.87l5.06-.6c-.09-.56-.35-1.01-.78-1.36-.43-.35-.94-.52-1.54-.52Z"/>
          <path d="m265.1,116.88c-.81,0-1.61-.1-2.43-.3s-1.47-.49-1.96-.86c-.14-.11-.21-.22-.22-.34,0-.12.02-.25.08-.41l.49-1.21c.09-.22.19-.36.29-.43.1-.07.22-.07.36.01.26.14.58.27.95.41s.77.24,1.2.33c.43.08.82.13,1.2.13.5,0,.94-.07,1.32-.22.39-.15.69-.41.92-.79.22-.38.34-.92.34-1.61v-1.63c-.45.62-1.01,1.1-1.67,1.44-.67.34-1.35.51-2.04.51-1.11,0-2.04-.36-2.76-1.09-.73-.73-1.09-1.89-1.09-3.48v-6.36c0-.54.27-.81.81-.81h.93c.54,0,.81.27.81.81v5.43c0,.96.2,1.67.59,2.14.39.46.93.7,1.61.7.53,0,1-.13,1.42-.38s.76-.62,1.01-1.09c.26-.47.38-1.04.38-1.71v-4.74c0-.54.27-.81.81-.81h.93c.54,0,.81.27.81.81v10.59c0,1.21-.22,2.17-.67,2.9-.45.73-1.06,1.25-1.82,1.58-.77.33-1.63.49-2.59.49Z"/>
          <path d="m277.04,112.26c-1.16,0-2.16-.26-3-.78-.84-.52-1.48-1.23-1.93-2.13s-.67-1.91-.67-3.04.22-2.2.67-3.11c.45-.91,1.09-1.63,1.93-2.16.84-.53,1.84-.79,3-.79s2.16.26,3,.79c.84.53,1.48,1.25,1.93,2.16.45.91.67,1.95.67,3.11s-.23,2.15-.67,3.04-1.09,1.61-1.93,2.13c-.84.52-1.84.78-3,.78Zm0-2.67c.88,0,1.61-.26,2.17-.79s.85-1.35.85-2.49-.28-2.04-.85-2.58c-.57-.54-1.29-.81-2.17-.81s-1.61.27-2.18.81c-.57.54-.86,1.4-.86,2.58s.29,1.96.86,2.49,1.3.79,2.18.79Z"/>
          <path d="m286.44,111.54c0,.54-.27.81-.81.81h-.93c-.54,0-.81-.27-.81-.81v-11.03c0-.54.27-.81.81-.81h.93c.54,0,.81.27.81.81v1.7c.46-.63,1.03-1.12,1.7-1.45.67-.33,1.34-.5,2.02-.5,1.11,0,2.04.36,2.76,1.08.73.72,1.09,1.89,1.09,3.5v6.36c0,.54-.27.81-.81.81h-.93c-.54,0-.81-.27-.81-.81v-5.43c0-.96-.2-1.67-.59-2.14-.39-.46-.93-.7-1.59-.7-.53,0-1,.13-1.43.38s-.77.62-1.02,1.09c-.25.47-.38,1.04-.38,1.71v5.44Z"/>
          <path d="m305,112.35h-.93c-.54,0-.81-.27-.81-.81v-1.02c-.42.5-.93.87-1.52,1.11-.6.25-1.21.37-1.85.37-.88,0-1.69-.24-2.42-.73s-1.3-1.18-1.73-2.08c-.43-.9-.64-1.94-.64-3.14s.24-2.22.71-3.09c.47-.87,1.12-1.54,1.94-2.01.82-.47,1.73-.71,2.72-.71.46,0,.93.05,1.39.14.46.09.93.22,1.39.39v-4.69c0-.54.27-.81.81-.81h.93c.54,0,.81.27.81.81v15.45c0,.54-.27.81-.81.81Zm-4.58-3.02c.54,0,1.03-.13,1.45-.39.43-.26.76-.64,1.01-1.11.25-.48.37-1.04.37-1.67v-2.56c-.42-.23-.86-.4-1.32-.51-.46-.11-.95-.16-1.46-.16-.81,0-1.48.26-2.01.78-.53.52-.8,1.3-.8,2.36,0,.67.12,1.25.37,1.74s.58.88,1,1.14.88.39,1.39.39Z"/>
        </g>
      </g>
      <g id="Symbol">
        <path id="Orange" class="cls-4" d="m61.76,61.75h-16.78c.06.4.1.82.1,1.25,0,4.62-3.75,8.37-8.37,8.37s-8.37-3.75-8.37-8.37c0-.43.03-.85.1-1.25H8.01V21.03c0-7.19,5.83-13.03,13.03-13.03h36.13l.33,2.36v.06s1.92,15.89,1.92,15.89c-.71.15-1.39.39-2.04.68h-.03c-.79.36-1.53.82-2.19,1.35-.04.03-.08.07-.12.11,0,0-.01,0-.01.01,0,0-.01.01-.03.01-.03.03-.06.04-.07.07-.06.06-.11.1-.17.15-.07.06-.14.11-.19.18,0,0-.01.01-.03.01l-.17.17s-.04.04-.07.06l-.12.12-.12.12c-.08.08-.15.17-.22.25-.03.03-.04.06-.07.08-.06.07-.11.14-.17.21-.04.06-.08.1-.12.15-.06.07-.1.12-.15.19-.08.11-.17.22-.25.35-1.21,1.69-1.93,3.76-1.97,5.99-.07,3.61,1.65,6.83,4.33,8.83.08.07.18.12.26.19.22.15.44.29.67.43.07.04.14.08.21.12s.12.07.19.11.14.07.22.11c.11.06.24.11.35.17.12.06.24.11.36.15h0c.12.06.26.11.39.15.14.06.26.1.4.14.21.07.43.14.65.19.07.01.15.04.22.06s.15.03.22.06c.04.01.07.01.11.03.07.01.14.03.21.04.18.03.35.06.53.08.43.06.87.08,1.33.08v14.21h0Z"/>
        <path id="Purple" class="cls-5" d="m71.37,90.5c0,4.62-3.75,8.37-8.37,8.37-.43,0-.85-.03-1.25-.1v19.22H20.48c-6.9,0-12.48-5.58-12.48-12.49v-41.26h18.01c.62,5.35,5.17,9.51,10.69,9.51s10.07-4.15,10.69-9.51h14.36v17.97c.4-.06.82-.1,1.25-.1,4.61.01,8.36,3.76,8.36,8.37h0Z"/>
        <path id="Yellow" class="cls-6" d="m118,64.25v41c0,7.04-5.71,12.75-12.75,12.75h-40.99v-16.81c5.35-.62,9.51-5.17,9.51-10.69s-4.15-10.07-9.51-10.69v-15.56h17.97c-.06-.4-.1-.82-.1-1.25,0-4.62,3.75-8.37,8.37-8.37s8.37,3.75,8.37,8.37c0,.43-.03.85-.1,1.25h19.22Z"/>
        <path id="Blue" class="cls-3" d="m118,20.19h0l-.04,34.71-15.11,1.94c-1.26-5.24-6.28-8.82-11.75-8.15-5.49.67-9.5,5.35-9.46,10.74l-15.47,1.87-2.03-16.65c-.4.11-.81.19-1.24.25-4.58.56-8.76-2.71-9.32-7.31-.56-4.58,2.71-8.76,7.3-9.32.42-.06.83-.07,1.25-.06l-2.43-20.22h46.09c6.74,0,12.19,5.46,12.19,12.19h0Z"/>
        <polygon class="cls-1" points="46.76 31.5 38.42 31.5 44.32 25.6 40.42 21.7 34.51 27.61 34.51 19.25 29 19.25 29 27.6 23.1 21.69 19.2 25.59 25.1 31.5 16.76 31.5 16.76 37.01 25.11 37.01 19.21 42.91 23.11 46.81 29 40.93 29 49.25 34.51 49.25 34.51 40.91 40.41 46.81 44.31 42.91 38.41 37.01 46.76 37.01 46.76 31.5"/>
        <path class="cls-1" d="m45.96,91.71c-6.27.02-11.59,4.09-13.47,9.73v-7.79c1.09-.09,2.12-.37,3.06-.81,1.72-.82,3.14-2.17,4.04-3.84.67-1.25,1.06-2.69,1.06-4.23,0-.28-.01-.54-.03-.79-3.65.02-6.77,2.22-8.14,5.36v-4.72s-.01-.04-.01-.06c.54-.08,1.06-.22,1.54-.46,1.04-.49,1.89-1.29,2.43-2.3.4-.75.63-1.61.63-2.54,0-.17,0-.33-.04-.48-2.88,0-5.22,2.3-5.32,5.15-.11-2.85-2.44-5.14-5.32-5.15-.01.16-.03.33-.03.49,0,1,.28,1.94.77,2.75.53.87,1.31,1.59,2.23,2.05.51.25,1.06.41,1.64.49,0,.02-.01.03-.01.05v4.73c-1.37-3.15-4.5-5.35-8.14-5.36-.03.26-.04.53-.04.81,0,1.68.46,3.25,1.27,4.58.88,1.47,2.18,2.66,3.72,3.42.98.48,2.05.77,3.18.87v7.71c-1.91-5.6-7.2-9.62-13.45-9.65-.04.42-.05.86-.05,1.29,0,2.68.74,5.19,2.02,7.33,1.41,2.35,3.49,4.27,5.96,5.48,1.85.91,3.92,1.43,6.12,1.45h.22c2.17-.01,4.2-.49,6.04-1.36,2.76-1.31,5.03-3.47,6.47-6.14,1.08-2.01,1.7-4.32,1.7-6.76,0-.44-.03-.86-.07-1.29Zm-14.21,13.75s0-.08,0-.12h.03s0,.08,0,.12h-.01Z"/>
        <path id="Cloud" class="cls-1" d="m101.29,28.37c.93-.81,1.19-2.54.76-3.44-1.25-2.61-3.68-2.53-4.71-2.55-.61-3.81-3.86-5.3-7.11-4.77-2.88.46-5.11,2.55-5.88,5.23-.83-.18-1.71-.22-2.59-.09-3.98.6-6.7,4.39-6.09,8.48.22,1.45.83,2.74,1.7,3.78-.58.8-.86,1.82-.7,2.89.12.81.48,1.53,1,2.08.82.89,2.03,1.36,3.3,1.17,0,0,17.38-2.62,22.07-3.33,1.91-.29,4.06-2.62,3.66-5.25-.36-2.41-2.32-4.01-5.41-4.2h0Z"/>
        <g>
          <path class="cls-1" d="m95.32,83.8c.06,0,.12-.01.18-.01h1.23c.06,0,.13,0,.18.01.13.01.26.03.39.04l.19-6.45h-2.75l.19,6.45c.12-.02.25-.03.38-.04Z"/>
          <path class="cls-1" d="m104.78,80.05l-2.37-1.36-3.06,5.69c.74.3,1.43.7,2.05,1.19l3.38-5.52Z"/>
          <path class="cls-1" d="m104.08,89.12l5.7-3.11-1.39-2.36-5.49,3.42c.48.62.88,1.31,1.18,2.04Z"/>
          <path class="cls-1" d="m104.71,92.34c0,.39-.03.78-.08,1.15l6.5.14-.03-2.75-6.48.24c.06.39.09.81.09,1.22Z"/>
          <path class="cls-1" d="m102.94,97.56l5.57,3.37,1.35-2.39-5.76-3.03c-.3.74-.69,1.43-1.17,2.05Z"/>
          <path class="cls-1" d="m99.44,100.26l3.16,5.69,2.36-1.4-3.49-5.5c-.61.49-1.29.89-2.03,1.2Z"/>
          <path class="cls-1" d="m96.92,100.88c-.26.03-.53.04-.8.04s-.54-.01-.8-.04c-.09,0-.17-.01-.25-.03l-.1,6.52,2.73-.04-.29-6.51c-.16.03-.33.05-.5.06Z"/>
          <path class="cls-1" d="m87.65,104.8l2.4,1.34,3-5.78c-.75-.29-1.45-.67-2.08-1.15l-3.32,5.59Z"/>
          <path class="cls-1" d="m88.24,95.74l-5.65,3.19,1.41,2.35,5.46-3.52c-.49-.61-.91-1.29-1.22-2.02Z"/>
          <path class="cls-1" d="m87.55,92.34c0-.33.02-.65.06-.96l-6.47-.05.05,2.74,6.48-.34c-.08-.45-.11-.91-.11-1.39Z"/>
          <path class="cls-1" d="m89.22,87.25l-5.59-3.26-1.32,2.4,5.78,2.94c.28-.75.67-1.45,1.13-2.07Z"/>
          <path class="cls-1" d="m92.68,84.48l-3.22-5.61-2.33,1.43,3.55,5.41c.6-.5,1.28-.91,2-1.23Z"/>
          <path class="cls-1" d="m96.12,86.35c-3.33,0-6.02,2.69-6.02,6.03s2.69,6.02,6.02,6.02,6.03-2.69,6.03-6.02-2.7-6.03-6.03-6.03Z"/>
        </g>
      </g>
    </g>
  </g>
</svg>