<?xml version="1.0" encoding="UTF-8"?>
<svg id="Layer_2" data-name="Layer 2" xmlns="http://www.w3.org/2000/svg" viewBox="0 0 126 126">
  <defs>
    <style>
      .cls-1 {
        fill: #f4f4f4;
      }

      .cls-2 {
        fill: #fff;
      }

      .cls-3 {
        fill: #6692fd;
      }

      .cls-4 {
        fill: #ff6835;
      }

      .cls-5 {
        fill: #c383d9;
      }

      .cls-6 {
        fill: #ffc33f;
      }
    </style>
  </defs>
  <g id="Layer_1-2" data-name="Layer 1">
    <g>
      <path id="Offset" class="cls-2" d="m126,20.19c0-11.14-9.06-20.19-20.19-20.19H21.04C9.45,0,.01,9.43.01,21.03v35.22h-.01v49.26c0,11.3,9.19,20.49,20.48,20.49h84.77c11.44,0,20.75-9.31,20.75-20.75v-49h-.04l.04-36.06Z"/>
      <path id="Orange" class="cls-4" d="m61.76,61.75h-16.78c.06.4.1.82.1,1.25,0,4.62-3.75,8.37-8.37,8.37s-8.37-3.75-8.37-8.37c0-.43.03-.85.1-1.25H8.01V21.03c0-7.19,5.83-13.03,13.03-13.03h36.13l.33,2.36v.06s1.92,15.89,1.92,15.89c-.71.15-1.39.39-2.04.68h-.03c-.79.36-1.53.82-2.19,1.35-.04.03-.08.07-.12.11,0,0-.01,0-.01.01,0,0-.01.01-.03.01-.03.03-.06.04-.07.07-.06.06-.11.1-.17.15-.07.06-.14.11-.19.18,0,0-.01.01-.03.01l-.17.17s-.04.04-.07.06l-.12.12-.12.12c-.08.08-.15.17-.22.25-.03.03-.04.06-.07.08-.06.07-.11.14-.17.21-.04.06-.08.1-.12.15-.06.07-.1.12-.15.19-.08.11-.17.22-.25.35-1.21,1.69-1.93,3.76-1.97,5.99-.07,3.61,1.65,6.83,4.33,8.83.08.07.18.12.26.19.22.15.44.29.67.43.07.04.14.08.21.12s.12.07.19.11.14.07.22.11c.11.06.24.11.35.17.12.06.24.11.36.15h0c.12.06.26.11.39.15.14.06.26.1.4.14.21.07.43.14.65.19.07.01.15.04.22.06s.15.03.22.06c.04.01.07.01.11.03.07.01.14.03.21.04.18.03.35.06.53.08.43.06.87.08,1.33.08v14.21h0Z"/>
      <path id="Purple" class="cls-5" d="m71.37,90.5c0,4.62-3.75,8.37-8.37,8.37-.43,0-.85-.03-1.25-.1v19.22H20.48c-6.9,0-12.48-5.58-12.48-12.49v-41.26h18.01c.62,5.35,5.17,9.51,10.69,9.51s10.07-4.15,10.69-9.51h14.36v17.97c.4-.06.82-.1,1.25-.1,4.61.01,8.36,3.76,8.36,8.37h0Z"/>
      <path id="Yellow" class="cls-6" d="m118,64.25v41c0,7.04-5.71,12.75-12.75,12.75h-40.99v-16.81c5.35-.62,9.51-5.17,9.51-10.69s-4.15-10.07-9.51-10.69v-15.56h17.97c-.06-.4-.1-.82-.1-1.25,0-4.62,3.75-8.37,8.37-8.37s8.37,3.75,8.37,8.37c0,.43-.03.85-.1,1.25h19.22Z"/>
      <path id="Blue" class="cls-3" d="m118,20.19h0l-.04,34.71-15.11,1.94c-1.26-5.24-6.28-8.82-11.75-8.15-5.49.67-9.5,5.35-9.46,10.74l-15.47,1.87-2.03-16.65c-.4.11-.81.19-1.24.25-4.58.56-8.76-2.71-9.32-7.31-.56-4.58,2.71-8.76,7.3-9.32.42-.06.83-.07,1.25-.06l-2.43-20.22h46.09c6.74,0,12.19,5.46,12.19,12.19h0Z"/>
      <polygon class="cls-1" points="46.76 31.5 38.42 31.5 44.32 25.6 40.42 21.7 34.51 27.61 34.51 19.25 29 19.25 29 27.6 23.1 21.69 19.2 25.59 25.1 31.5 16.76 31.5 16.76 37.01 25.11 37.01 19.21 42.91 23.11 46.81 29 40.93 29 49.25 34.51 49.25 34.51 40.91 40.41 46.81 44.31 42.91 38.41 37.01 46.76 37.01 46.76 31.5"/>
      <path class="cls-1" d="m45.96,91.71c-6.27.02-11.59,4.09-13.47,9.73v-7.79c1.09-.09,2.12-.37,3.06-.81,1.72-.82,3.14-2.17,4.04-3.84.67-1.25,1.06-2.69,1.06-4.23,0-.28-.01-.54-.03-.79-3.65.02-6.77,2.22-8.14,5.36v-4.72s-.01-.04-.01-.06c.54-.08,1.06-.22,1.54-.46,1.04-.49,1.89-1.29,2.43-2.3.4-.75.63-1.61.63-2.54,0-.17,0-.33-.04-.48-2.88,0-5.22,2.3-5.32,5.15-.11-2.85-2.44-5.14-5.32-5.15-.01.16-.03.33-.03.49,0,1,.28,1.94.77,2.75.53.87,1.31,1.59,2.23,2.05.51.25,1.06.41,1.64.49,0,.02-.01.03-.01.05v4.73c-1.37-3.15-4.5-5.35-8.14-5.36-.03.26-.04.53-.04.81,0,1.68.46,3.25,1.27,4.58.88,1.47,2.18,2.66,3.72,3.42.98.48,2.05.77,3.18.87v7.71c-1.91-5.6-7.2-9.62-13.45-9.65-.04.42-.05.86-.05,1.29,0,2.68.74,5.19,2.02,7.33,1.41,2.35,3.49,4.27,5.96,5.48,1.85.91,3.92,1.43,6.12,1.45h.22c2.17-.01,4.2-.49,6.04-1.36,2.76-1.31,5.03-3.47,6.47-6.14,1.08-2.01,1.7-4.32,1.7-6.76,0-.44-.03-.86-.07-1.29Zm-14.21,13.75s0-.08,0-.12h.03s0,.08,0,.12h-.01Z"/>
      <path id="Cloud" class="cls-1" d="m101.29,28.37c.93-.81,1.19-2.54.76-3.44-1.25-2.61-3.68-2.53-4.71-2.55-.61-3.81-3.86-5.3-7.11-4.78-2.88.46-5.11,2.55-5.88,5.23-.83-.18-1.71-.22-2.59-.09-3.98.6-6.7,4.39-6.09,8.48.22,1.45.83,2.74,1.7,3.78-.58.8-.86,1.82-.7,2.89.12.81.48,1.53,1,2.08.82.89,2.03,1.36,3.3,1.17,0,0,17.38-2.62,22.07-3.33,1.91-.29,4.06-2.62,3.66-5.25-.36-2.41-2.32-4.01-5.41-4.2h0Z"/>
      <g>
        <path class="cls-1" d="m95.32,83.8c.06,0,.12-.01.18-.01h1.23c.06,0,.13,0,.18.01.13.01.26.03.39.04l.19-6.45h-2.75l.19,6.45c.12-.02.25-.03.38-.04Z"/>
        <path class="cls-1" d="m104.78,80.05l-2.37-1.36-3.06,5.69c.74.3,1.43.7,2.05,1.19l3.38-5.52Z"/>
        <path class="cls-1" d="m104.08,89.12l5.7-3.11-1.39-2.36-5.49,3.42c.48.62.88,1.31,1.18,2.04Z"/>
        <path class="cls-1" d="m104.71,92.34c0,.39-.03.78-.08,1.15l6.5.14-.03-2.75-6.48.24c.06.39.09.81.09,1.22Z"/>
        <path class="cls-1" d="m102.94,97.56l5.57,3.37,1.35-2.39-5.76-3.03c-.3.74-.69,1.43-1.17,2.05Z"/>
        <path class="cls-1" d="m99.44,100.26l3.16,5.69,2.36-1.4-3.49-5.5c-.61.49-1.29.89-2.03,1.2Z"/>
        <path class="cls-1" d="m96.92,100.88c-.26.03-.53.04-.8.04s-.54-.01-.8-.04c-.09,0-.17-.01-.25-.03l-.1,6.52,2.73-.04-.29-6.51c-.16.03-.33.05-.5.06Z"/>
        <path class="cls-1" d="m87.65,104.8l2.4,1.34,3-5.78c-.75-.29-1.45-.67-2.08-1.15l-3.32,5.59Z"/>
        <path class="cls-1" d="m88.24,95.74l-5.65,3.19,1.41,2.35,5.46-3.52c-.49-.61-.91-1.29-1.22-2.02Z"/>
        <path class="cls-1" d="m87.55,92.34c0-.33.02-.65.06-.96l-6.47-.05.05,2.74,6.48-.34c-.08-.45-.11-.91-.11-1.39Z"/>
        <path class="cls-1" d="m89.22,87.25l-5.59-3.26-1.32,2.4,5.78,2.94c.28-.75.67-1.45,1.13-2.07Z"/>
        <path class="cls-1" d="m92.68,84.48l-3.22-5.61-2.33,1.43,3.55,5.41c.6-.5,1.28-.91,2-1.23Z"/>
        <path class="cls-1" d="m96.12,86.35c-3.33,0-6.02,2.69-6.02,6.03s2.69,6.02,6.02,6.02,6.03-2.69,6.03-6.02-2.7-6.03-6.03-6.03Z"/>
      </g>
    </g>
  </g>
</svg>