<?xml version="1.0" encoding="UTF-8"?>
<svg id="Layer_2" data-name="Layer 2" xmlns="http://www.w3.org/2000/svg" viewBox="0 0 353.86 128">
  <defs>
    <style>
      .cls-1 {
        fill: #efd9f9;
      }

      .cls-2, .cls-3 {
        fill: #fff;
      }

      .cls-4 {
        fill: #d9e2f4;
      }

      .cls-5 {
        fill: #6692fd;
      }

      .cls-6 {
        fill: #f2ede9;
      }

      .cls-7 {
        fill: #ff6835;
      }

      .cls-8 {
        fill: #c383d9;
      }

      .cls-9 {
        fill: #efe1c3;
      }

      .cls-10 {
        fill: #f2dfda;
      }

      .cls-3 {
        stroke: #f2ede9;
        stroke-miterlimit: 10;
        stroke-width: 2px;
      }

      .cls-11 {
        fill: #f7edda;
      }

      .cls-12 {
        fill: #ffc33f;
      }
    </style>
  </defs>
  <g id="Layer_1-2" data-name="Layer 1">
    <g id="SE_Logo_Sticker_AlignBottom">
      <g id="Logo_Type" data-name="Logo Type">
        <g id="Logo_Type-2" data-name="Logo Type">
          <g id="Type_Border" data-name="Type Border">
            <g>
              <path class="cls-2" d="m124.56,38.43c0-5.68,2.05-10.64,5.94-14.35,2.62-2.51,7.34-5.49,14.94-5.49,1.6,0,3.26.17,4.95.49,1.54.3,3.05.71,4.49,1.21.21.07.42.15.63.25.85-.39,1.81-.71,2.89-.94l2.23-.53c1.19-.28,2.26-.41,3.32-.41.83,0,1.65.08,2.44.25,2.26.48,4.33,1.67,5.95,3.4.07-.08.13-.16.2-.24,1.72-2.2,4.08-3.68,6.73-4.22.76-.15,1.55-.23,2.35-.23,1.07,0,2.14.13,3.3.41l2.66.61c1.51.35,2.77.87,3.83,1.49.49-.06.98-.09,1.49-.09h3.11c2.06,0,3.94.43,5.61,1.29.74.35,1.42.79,2.04,1.3.56.45,1.08.95,1.54,1.5.08.1.17.19.25.29.35-.54.71-1,1.05-1.38,2.22-2.47,5.37-3.83,8.88-3.83h3.11c1.77,0,3.46.33,4.98.97,1.48-.63,3.14-.97,4.92-.97h17.66c1.6,0,3.12.28,4.49.8,1.37-.52,2.88-.8,4.48-.8h7.93c7.15,0,13.03,1.75,17.46,5.19.24.18.47.38.71.59,1.28-1.09,2.67-2.06,4.18-2.89,4.08-2.26,8.76-3.41,13.91-3.41,2.72,0,5.5.36,8.27,1.06,1.13.29,2.24.64,3.31,1.04.97-.5,2.1-.91,3.41-1.19l2.22-.53c1.2-.28,2.27-.41,3.33-.41.83,0,1.65.08,2.43.25,2.27.48,4.34,1.67,5.96,3.4.06-.08.13-.16.19-.23,1.72-2.21,4.08-3.69,6.74-4.23.76-.15,1.55-.23,2.35-.23,1.06,0,2.14.13,3.3.41l2.66.61c5.34,1.24,7.59,4.6,8.47,6.5,1.02,2.23,1.76,5.79-.35,10.29l-8.61,19.14v7.34c0,3.48-1.33,6.52-3.54,8.67.39,1.2.59,2.5.59,3.87v32.82c0,6.9-5.2,12.1-12.1,12.1h-3.22c-3.97,0-7.37-1.74-9.53-4.53-2.17,2.19-5.21,3.51-8.68,3.51h-3.23c-2.64,0-5.02-.77-6.96-2.11-3.36,1.83-7.3,2.75-11.79,2.75-1.91,0-3.93-.21-5.98-.63-1.87-.39-3.7-.93-5.45-1.61-2.06,1.65-4.71,2.62-7.69,2.62h-3.22c-2.08,0-4.01-.48-5.68-1.34-.82.17-1.67.26-2.55.26h-.37c-.09,0-.18-.01-.27-.01l-17.6-.96c-.33,0-.65-.03-.97-.06-2.18,2.54-5.46,4.1-9.26,4.1h-3.22c-3.18,0-5.99-1.12-8.1-3.01h-.28c-5.31,0-10.09-1.24-14.22-3.67-.47-.28-.93-.57-1.38-.88-.26.34-.52.65-.78.92-2.21,2.33-5.33,3.63-8.76,3.63h-3.23c-3.35,0-6.38-1.2-8.61-3.4-2.18,2.73-5.56,4.42-9.49,4.42h-3.22c-2.18,0-4.19-.52-5.91-1.46-1.05.29-2.17.44-3.33.44h-19.4c-3.39,0-6.49-1.26-8.72-3.55-2.23-2.28-3.4-5.41-3.32-8.81l.97-31.84"/>
              <path class="cls-6" d="m225.39,122.36h-3.22c-3.17,0-6.16-1.07-8.47-3.01-5.44-.01-10.36-1.3-14.63-3.81-.23-.13-.45-.27-.67-.41-.09.1-.17.19-.26.28-2.41,2.54-5.77,3.94-9.48,3.94h-3.23c-3.22,0-6.21-1.05-8.53-2.98-2.42,2.55-5.85,4-9.57,4h-3.22c-2.14,0-4.22-.48-6.03-1.4-1.03.25-2.1.38-3.21.38h-19.4c-3.67,0-7.02-1.37-9.44-3.85-2.41-2.46-3.69-5.85-3.6-9.53l.97-31.85,2,.06-.97,31.84c-.07,3.13,1,6,3.04,8.08,2.04,2.1,4.88,3.25,8,3.25h19.4c1.06,0,2.09-.14,3.06-.4l.39-.11.36.19c1.6.88,3.48,1.34,5.43,1.34h3.22c3.48,0,6.66-1.47,8.71-4.04l.69-.87.79.78c2.03,2.01,4.84,3.11,7.91,3.11h3.23c3.15,0,6-1.18,8.03-3.32.23-.24.46-.51.71-.84l.58-.75.78.54c.43.3.87.57,1.32.84,3.98,2.34,8.59,3.53,13.71,3.53h.66l.28.26c2.01,1.8,4.58,2.75,7.43,2.75h3.22c3.41,0,6.42-1.33,8.5-3.75l.34-.39.51.05c.3.03.6.05.91.06l17.62.96s.07,0,.14,0h.45c.79,0,1.58-.08,2.35-.24l.35-.07.31.16c1.58.82,3.34,1.23,5.22,1.23h3.22c2.66,0,5.1-.83,7.06-2.4l.45-.36.54.21c1.69.66,3.47,1.18,5.29,1.56,1.97.4,3.92.61,5.78.61,4.3,0,8.11-.88,11.31-2.63l.54-.29.51.35c1.83,1.26,4.04,1.93,6.39,1.93h3.23c3.09,0,5.92-1.14,7.97-3.21l.8-.81.7.9c2.04,2.63,5.22,4.14,8.74,4.14h3.22c6.33,0,11.1-4.77,11.1-11.1v-32.82c0-1.26-.18-2.46-.54-3.56l-.19-.59.45-.43c2.09-2.03,3.24-4.85,3.24-7.95v-7.55l8.7-19.34c1.96-4.18,1.27-7.45.35-9.46-.8-1.73-2.88-4.8-7.79-5.94l-2.66-.61c-1.85-.45-3.54-.51-5.23-.17-2.44.49-4.56,1.83-6.14,3.86l-.07.08s-.08.09-.11.14l-.72.95-.81-.87c-1.49-1.59-3.37-2.67-5.44-3.1-.7-.15-1.44-.23-2.22-.23-1,0-1.98.12-3.1.38l-2.21.53c-1.19.25-2.25.62-3.18,1.11l-.39.2-.41-.16c-1.05-.39-2.13-.73-3.21-1.01-2.7-.68-5.4-1.03-8.02-1.03-4.97,0-9.49,1.11-13.43,3.29-1.41.78-2.76,1.71-4.02,2.78l-.66.56-.65-.57c-.22-.19-.43-.38-.65-.54-4.27-3.32-9.94-4.99-16.86-4.99h-7.93c-1.45,0-2.84.25-4.13.74l-.35.13-.35-.13c-1.29-.49-2.68-.74-4.14-.74h-17.66c-1.62,0-3.14.3-4.53.89l-.39.17-.39-.16c-1.4-.59-2.95-.89-4.59-.89h-3.11c-3.22,0-6.11,1.24-8.14,3.5-.34.38-.66.8-.95,1.26l-.75,1.16-.96-1.19c-.05-.06-.11-.12-.16-.18-.39-.46-.86-.92-1.39-1.35-.58-.48-1.2-.87-1.84-1.18-1.55-.8-3.28-1.19-5.18-1.19h-3.11c-.47,0-.91.03-1.37.08l-.34.04-.29-.17c-1.04-.61-2.24-1.08-3.55-1.38l-2.66-.61c-1.85-.45-3.54-.51-5.23-.17-2.43.49-4.55,1.83-6.14,3.85l-.96,1.11-.75-.8c-1.49-1.59-3.37-2.67-5.43-3.11-.7-.15-1.45-.23-2.23-.23-1,0-1.98.12-3.09.38l-2.23.53c-.99.21-1.89.5-2.71.88l-.42.19-.42-.2c-.17-.08-.34-.15-.52-.2-1.42-.49-2.89-.89-4.36-1.18-1.65-.31-3.25-.47-4.76-.47-7.28,0-11.77,2.83-14.25,5.21-3.68,3.51-5.63,8.23-5.63,13.63h-2c0-5.96,2.16-11.17,6.25-15.07,2.75-2.63,7.69-5.77,15.63-5.77,1.63,0,3.36.17,5.13.51,1.58.31,3.13.73,4.63,1.25.1.03.2.07.3.11.83-.35,1.74-.63,2.69-.83l2.21-.52c2.26-.53,4.32-.57,6.2-.16,2.1.45,4.04,1.44,5.67,2.9,1.78-2.02,4.18-3.43,6.81-3.97,1.99-.39,3.97-.32,6.08.19l2.65.61c1.39.32,2.67.8,3.82,1.44.42-.04.84-.06,1.28-.06h3.11c2.22,0,4.26.47,6.07,1.4.76.36,1.52.84,2.22,1.42.38.31.74.63,1.07.97.13-.16.25-.31.39-.46,2.41-2.69,5.83-4.16,9.63-4.16h3.11c1.76,0,3.43.3,4.98.89,1.53-.59,3.18-.89,4.92-.89h17.66c1.57,0,3.08.25,4.49.74,1.41-.49,2.92-.74,4.48-.74h7.93c7.38,0,13.46,1.82,18.07,5.4.03.03.07.05.1.08,1.17-.93,2.41-1.76,3.69-2.47,4.23-2.34,9.08-3.53,14.39-3.53,2.79,0,5.65.37,8.52,1.09,1.01.26,2.02.57,3.01.92.99-.47,2.08-.83,3.26-1.08l2.2-.52c1.28-.3,2.41-.44,3.56-.44.92,0,1.81.09,2.64.27,2.1.44,4.04,1.44,5.67,2.9,1.81-2.04,4.2-3.44,6.81-3.97,1.99-.39,3.97-.32,6.08.19l2.65.61c5.74,1.33,8.2,4.99,9.15,7.05,1.1,2.4,1.93,6.28-.35,11.14l-8.52,18.93v7.13c0,3.43-1.21,6.58-3.41,8.95.31,1.14.46,2.34.46,3.59v32.82c0,7.47-5.63,13.1-13.1,13.1h-3.22c-3.76,0-7.2-1.48-9.62-4.09-2.34,1.99-5.35,3.07-8.59,3.07h-3.23c-2.54,0-4.96-.67-7.01-1.95-3.38,1.72-7.33,2.59-11.74,2.59-2,0-4.07-.22-6.18-.65-1.74-.36-3.45-.85-5.08-1.46-2.23,1.63-4.94,2.49-7.85,2.49h-3.22c-2.05,0-4.05-.45-5.82-1.29-.79.14-1.6.21-2.41.21h-.37c-.06,0-.13,0-.19,0h-.14s-17.6-.96-17.6-.96c-.16,0-.33-.01-.5-.02-2.44,2.63-5.86,4.06-9.68,4.06Z"/>
            </g>
          </g>
          <g>
            <path d="m149.95,54.59c0-.9-.37-1.7-1.11-2.41-.74-.71-1.7-1.37-2.88-1.99-1.17-.62-2.41-1.28-3.7-1.97-1.29-.69-2.53-1.49-3.7-2.38-1.17-.9-2.13-1.97-2.88-3.21-.74-1.24-1.11-2.71-1.11-4.4,0-2.94.95-5.31,2.85-7.12,1.9-1.81,4.58-2.72,8.03-2.72.97,0,1.99.1,3.06.31,1.07.21,2.1.48,3.08.83.98.35,1.86.78,2.62,1.29.52.35.84.68.96,1.01.12.33.04.77-.23,1.32l-1.4,3.11c-.21.45-.47.73-.78.83-.31.1-.76.05-1.35-.16-.97-.45-1.99-.83-3.06-1.14-1.07-.31-2.06-.47-2.95-.47-1.07,0-1.96.19-2.67.57-.71.38-1.06,1-1.06,1.87s.37,1.64,1.11,2.33c.74.69,1.7,1.36,2.88,2,1.17.64,2.41,1.3,3.7,1.99,1.3.69,2.53,1.49,3.7,2.38,1.17.9,2.13,1.96,2.88,3.19.74,1.23,1.11,2.65,1.11,4.27,0,3.25-1.04,5.79-3.11,7.64-2.07,1.85-4.94,2.77-8.6,2.77-1.21,0-2.49-.14-3.83-.42-1.35-.28-2.64-.66-3.89-1.17-1.24-.5-2.37-1.08-3.37-1.74-.52-.38-.85-.73-.98-1.04-.14-.31-.07-.76.21-1.35l1.45-3.06c.28-.48.55-.79.83-.93.28-.14.71-.05,1.29.26,1.48.79,3.01,1.41,4.56,1.84,1.55.43,2.9.65,4.04.65,1.28,0,2.31-.2,3.11-.6.79-.4,1.19-1.13,1.19-2.2Z"/>
            <path d="m177.1,61.69c0,1.35-.67,2.02-2.02,2.02h-3.06c-.93,0-1.54-.34-1.81-1.04-.07-.14-.12-.3-.16-.49-.03-.19-.05-.41-.05-.65v-9.9l-10.78-19.64c-.45-.86-.56-1.51-.34-1.94.22-.43.79-.73,1.68-.91l2.38-.57c.59-.14,1.04-.17,1.37-.1.33.07.63.29.91.67.14.17.29.39.44.65.16.26.32.56.49.91l6.48,11.35.62,1.04,6.22-13.42c.14-.34.27-.64.39-.88.12-.24.27-.45.44-.62.28-.41.59-.66.93-.72.34-.07.81-.03,1.4.1l2.69.62c.9.21,1.44.52,1.63.93.19.42.08,1.05-.34,1.92l-9.53,21.19v9.48Z"/>
            <path d="m198.03,62.68c0,1.35-.67,2.02-2.02,2.02h-3.11c-1.31,0-1.97-.67-1.97-2.02v-30.83c0-1.35.66-2.02,1.97-2.02h3.11c.48,0,.85.07,1.09.21.03,0,.05.02.05.05.03,0,.06,0,.08.03.02.02.04.03.08.03,0,.04.02.05.05.05.03.03.07.06.1.08.03.02.07.06.1.13l.16.16.05.05,14.3,21.4,1.35-20.98c.07-.69.25-1.2.54-1.53.29-.33.77-.49,1.42-.49h3.11c1.45,0,2.12.67,2.02,2.02l-1.97,30.67c-.03.69-.21,1.2-.52,1.53-.31.33-.79.49-1.45.49h-3.11c-.73,0-1.26-.19-1.61-.57-.03-.07-.07-.13-.1-.18s-.09-.08-.16-.08l-13.57-20.31v20.1Z"/>
            <path d="m227.41,63.71c-1.35,0-2-.67-1.97-2.02l.93-30.67c.03-1.35.71-2.02,2.02-2.02h17.67c1.35,0,2.02.67,2.02,2.02v2.95c0,1.31-.66,1.97-1.97,1.97h-13l-.21,7.1,11.09-.67c1.35-.1,2.02.55,2.02,1.97v2.95c0,1.21-.66,1.87-1.97,1.97l-11.35.72-.26,6.79h13.63c1.35,0,2.02.67,2.02,2.02v2.95c0,1.31-.66,1.97-1.97,1.97h-18.7Z"/>
            <path d="m275.28,65.06c-.55.14-.98.18-1.29.13-.31-.05-.59-.23-.83-.54-.24-.31-.55-.79-.93-1.45l-5.6-9.64c-.59.07-1.18.12-1.79.16-.6.04-1.24.05-1.89.05h-2.8v8.03c0,1.31-.67,1.97-2.02,1.97h-3.11c-1.31,0-1.97-.66-1.97-1.97v-30.78c0-1.35.66-2.02,1.97-2.02h7.93c4.9,0,8.68,1.03,11.32,3.08,2.64,2.06,3.96,5.16,3.96,9.3,0,4.63-1.69,8-5.08,10.1l5.7,10.26c.79,1.52.34,2.45-1.35,2.8l-2.23.52Zm-12.12-28.7h-3v10.05h3c2.8,0,4.83-.45,6.09-1.35,1.26-.9,1.89-2.12,1.89-3.68s-.63-2.78-1.89-3.68c-1.26-.9-3.29-1.35-6.09-1.35Z"/>
            <path d="m311.81,64.7c0,1.28-.67,1.92-2.02,1.92h-3.11c-1.31,0-1.97-.69-1.97-2.07v-2.18c-.9.45-1.89.79-2.98,1.01-1.09.23-2.13.34-3.13.34-3.39,0-6.32-.73-8.81-2.2-2.49-1.47-4.41-3.53-5.78-6.19-1.36-2.66-2.05-5.8-2.05-9.43s.72-6.59,2.15-9.2c1.43-2.61,3.45-4.63,6.04-6.06,2.59-1.43,5.61-2.15,9.07-2.15,1.9,0,3.83.25,5.8.75,1.97.5,3.76,1.25,5.39,2.25.55.38.66,1,.31,1.87l-1.5,3.63c-.21.48-.47.79-.8.91-.33.12-.77.06-1.32-.18-.62-.28-1.37-.56-2.25-.85-.88-.29-1.81-.54-2.8-.73-.98-.19-1.93-.29-2.82-.29-2.21,0-4.07.44-5.57,1.32-1.5.88-2.63,2.08-3.39,3.6-.76,1.52-1.14,3.23-1.14,5.13,0,2.11.39,3.98,1.17,5.62s1.95,2.93,3.52,3.86c1.57.93,3.57,1.4,5.98,1.4.62,0,1.37-.05,2.25-.16.88-.1,1.77-.31,2.67-.62v-4.97l-5.7.26c-.17,0-.32,0-.44-.03-.12-.02-.23-.04-.34-.08-.79-.17-1.19-.79-1.19-1.87v-3.16c0-1.31.67-1.99,2.02-2.02l10.78-.52c.14,0,.28,0,.42.03.14.02.26.04.36.08.79.21,1.19.85,1.19,1.92v19.07Z"/>
            <path d="m332.89,61.69c0,1.35-.67,2.02-2.02,2.02h-3.06c-.93,0-1.54-.34-1.81-1.04-.07-.14-.12-.3-.16-.49-.04-.19-.05-.41-.05-.65v-9.9l-10.78-19.64c-.45-.86-.56-1.51-.34-1.94.22-.43.79-.73,1.68-.91l2.38-.57c.59-.14,1.04-.17,1.37-.1.33.07.63.29.91.67.14.17.29.39.44.65.16.26.32.56.49.91l6.48,11.35.62,1.04,6.22-13.42c.14-.34.27-.64.39-.88.12-.24.27-.45.44-.62.28-.41.59-.66.93-.72s.81-.03,1.4.1l2.69.62c.9.21,1.44.52,1.63.93.19.42.08,1.05-.34,1.92l-9.53,21.19v9.48Z"/>
            <path d="m135.47,108.13c-1.4,0-2.08-.7-2.04-2.09l.97-31.8c.04-1.4.73-2.1,2.1-2.1h18.32c1.4,0,2.09.7,2.09,2.1v3.06c0,1.36-.68,2.04-2.04,2.04h-13.48l-.21,7.36,11.5-.7c1.4-.11,2.1.57,2.1,2.04v3.06c0,1.25-.68,1.93-2.04,2.04l-11.77.75-.27,7.04h14.13c1.4,0,2.09.7,2.09,2.1v3.06c0,1.36-.68,2.04-2.04,2.04h-19.39Z"/>
            <path d="m169.42,107.06c0,1.4-.7,2.09-2.1,2.09h-3.22c-1.36,0-2.04-.7-2.04-2.09v-31.96c0-1.4.68-2.1,2.04-2.1h3.22c.5,0,.88.07,1.13.21.04,0,.05.02.05.05.04,0,.06,0,.08.03.02.02.04.03.08.03,0,.04.02.05.05.05.04.04.07.06.11.08.04.02.07.06.11.13.07.07.13.13.16.16l.05.05,14.83,22.19,1.4-21.76c.07-.72.26-1.24.56-1.58.3-.34.8-.51,1.48-.51h3.22c1.5,0,2.2.7,2.1,2.1l-2.04,31.8c-.04.72-.21,1.24-.54,1.58-.32.34-.82.51-1.5.51h-3.22c-.75,0-1.31-.2-1.67-.59-.04-.07-.07-.13-.11-.19-.04-.05-.09-.08-.16-.08l-14.08-21.06v20.84Z"/>
            <path d="m227.49,109.15c0,1.33-.7,1.99-2.09,1.99h-3.22c-1.36,0-2.04-.72-2.04-2.15v-2.26c-.93.47-1.96.81-3.09,1.05-1.13.23-2.21.35-3.25.35-3.51,0-6.55-.76-9.13-2.28-2.58-1.52-4.58-3.66-5.99-6.42-1.42-2.76-2.12-6.02-2.12-9.78s.74-6.83,2.23-9.54c1.49-2.7,3.57-4.8,6.26-6.29,2.69-1.49,5.82-2.23,9.4-2.23,1.97,0,3.98.26,6.02.78,2.04.52,3.9,1.3,5.59,2.34.57.39.68,1.04.32,1.93l-1.56,3.76c-.21.5-.49.82-.83.94-.34.13-.8.06-1.37-.19-.64-.29-1.42-.58-2.34-.89-.91-.3-1.88-.55-2.9-.75-1.02-.2-2-.29-2.93-.29-2.29,0-4.22.46-5.77,1.37-1.56.91-2.73,2.16-3.52,3.73s-1.18,3.35-1.18,5.32c0,2.18.4,4.13,1.21,5.83s2.02,3.04,3.65,4c1.63.97,3.7,1.45,6.21,1.45.64,0,1.42-.05,2.34-.16.91-.11,1.83-.32,2.77-.64v-5.16l-5.91.27c-.18,0-.33,0-.46-.03-.13-.02-.24-.04-.35-.08-.82-.18-1.24-.82-1.24-1.93v-3.28c0-1.36.7-2.06,2.09-2.09l11.17-.54c.14,0,.29,0,.43.03.14.02.27.04.38.08.82.22,1.24.88,1.24,1.99v19.77Z"/>
            <path d="m253.76,108.08l-17.78-.97c-1.36,0-2.04-.68-2.04-2.04v-30.84c0-1.4.68-2.1,2.04-2.1h3.22c1.4,0,2.1.7,2.1,2.1v26l12.41.7c.72.04,1.24.21,1.59.54.34.32.51.82.51,1.5v3.06c0,1.4-.68,2.08-2.04,2.04Z"/>
            <path d="m267.41,107.06c0,1.4-.7,2.09-2.09,2.09h-3.22c-1.36,0-2.04-.7-2.04-2.09v-33.85c0-1.4.68-2.09,2.04-2.09h3.22c1.4,0,2.09.7,2.09,2.09v33.85Z"/>
            <path d="m289.22,98.68c0-.93-.39-1.76-1.16-2.5-.77-.73-1.76-1.42-2.98-2.07-1.22-.64-2.5-1.32-3.84-2.04-1.34-.72-2.62-1.54-3.84-2.47-1.22-.93-2.21-2.04-2.98-3.33-.77-1.29-1.15-2.81-1.15-4.57,0-3.04.98-5.51,2.95-7.39,1.97-1.88,4.75-2.82,8.33-2.82,1,0,2.06.11,3.17.32,1.11.21,2.18.5,3.2.86,1.02.36,1.92.81,2.71,1.34.54.36.87.71.99,1.05.12.34.04.8-.24,1.37l-1.45,3.22c-.21.47-.48.75-.81.86s-.79.05-1.4-.16c-1-.46-2.06-.86-3.17-1.18-1.11-.32-2.13-.48-3.06-.48-1.11,0-2.03.2-2.77.59-.73.39-1.1,1.04-1.1,1.93s.38,1.7,1.16,2.42c.77.72,1.76,1.41,2.98,2.07,1.22.66,2.5,1.35,3.84,2.07,1.34.72,2.62,1.54,3.84,2.47,1.22.93,2.21,2.03,2.98,3.3.77,1.27,1.16,2.75,1.16,4.43,0,3.37-1.08,6.01-3.22,7.92-2.15,1.92-5.12,2.87-8.92,2.87-1.25,0-2.58-.14-3.98-.43s-2.74-.69-4.03-1.21c-1.29-.52-2.45-1.12-3.49-1.8-.54-.39-.88-.75-1.02-1.07-.14-.32-.07-.79.21-1.4l1.5-3.17c.29-.5.57-.82.86-.97.29-.14.73-.05,1.34.27,1.54.82,3.12,1.46,4.73,1.91,1.61.45,3.01.67,4.19.67,1.32,0,2.4-.21,3.22-.62.82-.41,1.24-1.17,1.24-2.28Z"/>
            <path d="m327.85,109.15h-3.22c-1.36,0-2.04-.7-2.04-2.09v-13.75l-14.08.91v11.82c0,1.4-.7,2.09-2.09,2.09h-3.22c-1.36,0-2.04-.7-2.04-2.09v-32.83c0-1.4.68-2.09,2.04-2.09h3.22c1.4,0,2.09.7,2.09,2.09v13.59l14.08-.91v-11.66c0-1.4.68-2.1,2.04-2.1h3.22c1.4,0,2.09.7,2.09,2.1v32.82c0,1.4-.7,2.09-2.09,2.09Z"/>
          </g>
        </g>
      </g>
      <g id="Symbol_-_Sticker" data-name="Symbol - Sticker">
        <path id="Offset" class="cls-3" d="m125.68,109.63v3.91c-2.96,7.86-10.55,13.46-19.43,13.46H21.48c-11.29,0-20.48-9.19-20.48-20.49v-49.26h.01V22.03C1.01,10.43,10.45,1,22.04,1h84.77c11.13,0,20.19,9.06,20.19,20.19v7.43s0,7.03,0,7.03"/>
        <g id="Symbol">
          <g id="Symbol-2" data-name="Symbol">
            <path id="Orange" class="cls-7" d="m62.76,62.75h-16.78c.06.4.1.82.1,1.25,0,4.62-3.75,8.37-8.37,8.37s-8.37-3.75-8.37-8.37c0-.43.03-.85.1-1.25H9.01V22.03c0-7.19,5.83-13.03,13.03-13.03h36.13l.33,2.36v.06s1.92,15.89,1.92,15.89c-.71.15-1.39.39-2.04.68h-.03c-.79.36-1.53.82-2.19,1.35-.04.03-.08.07-.12.11,0,0-.01,0-.01.01,0,0-.01.01-.03.01-.03.03-.06.04-.07.07-.06.06-.11.1-.17.15-.07.06-.14.11-.19.18,0,0-.01.01-.03.01l-.17.17s-.04.04-.07.06l-.12.12-.12.12c-.08.08-.15.17-.22.25-.03.03-.04.06-.07.08-.06.07-.11.14-.17.21-.04.06-.08.1-.12.15-.06.07-.1.12-.15.19-.08.11-.17.22-.25.35-1.21,1.69-1.93,3.76-1.97,5.99-.07,3.61,1.65,6.83,4.33,8.83.08.07.18.12.26.19.22.15.44.29.67.43.07.04.14.08.21.12s.12.07.19.11.14.07.22.11c.11.06.24.11.35.17.12.06.24.11.36.15h0c.12.06.26.11.39.15.14.06.26.1.4.14.21.07.43.14.65.19.07.01.15.04.22.06s.15.03.22.06c.04.01.07.01.11.03.07.01.14.03.21.04.18.03.35.06.53.08.43.06.87.08,1.33.08v14.21h0Z"/>
            <path id="Purple" class="cls-8" d="m72.37,91.5c0,4.62-3.75,8.37-8.37,8.37-.43,0-.85-.03-1.25-.1v19.22H21.48c-6.9,0-12.48-5.58-12.48-12.49v-41.26h18.01c.62,5.35,5.17,9.51,10.69,9.51s10.07-4.15,10.69-9.51h14.36v17.97c.4-.06.82-.1,1.25-.1,4.61.01,8.36,3.76,8.36,8.37h0Z"/>
            <path id="Yellow" class="cls-12" d="m119,65.25v41c0,7.04-5.71,12.75-12.75,12.75h-40.99v-16.81c5.35-.62,9.51-5.17,9.51-10.69s-4.15-10.07-9.51-10.69v-15.56h17.97c-.06-.4-.1-.82-.1-1.25,0-4.62,3.75-8.37,8.37-8.37s8.37,3.75,8.37,8.37c0,.43-.03.85-.1,1.25h19.22Z"/>
            <path id="Blue" class="cls-5" d="m119,21.19h0l-.04,34.71-15.11,1.94c-1.26-5.24-6.28-8.82-11.75-8.15-5.49.67-9.5,5.35-9.46,10.74l-15.47,1.87-2.03-16.65c-.4.11-.81.19-1.24.25-4.58.56-8.76-2.71-9.32-7.31-.56-4.58,2.71-8.76,7.3-9.32.42-.06.83-.07,1.25-.06l-2.43-20.22h46.09c6.74,0,12.19,5.46,12.19,12.19h0Z"/>
            <g id="Sun">
              <g>
                <g>
                  <path class="cls-11" d="m97.13,85.82c.39,0,.78.03,1.15.08l.22-7.51h-2.75l.22,7.51c.39-.06.76-.08,1.15-.08h0Z"/>
                  <path class="cls-11" d="m101.85,87.47l3.93-6.42-2.37-1.36-3.56,6.63c.35.14.69.31,1.04.5.33.19.67.42.96.65h0Z"/>
                  <path class="cls-11" d="m103.65,89.57c.19.33.36.69.51,1.04l6.61-3.6-1.39-2.36-6.39,3.99c.24.28.46.58.65.93h0Z"/>
                  <path class="cls-11" d="m104.68,93.32c0,.39-.03.78-.08,1.15l7.53.17-.03-2.75-7.51.28c.06.38.1.76.1,1.15h0Z"/>
                  <path class="cls-11" d="m103.71,97.08c-.19.35-.4.67-.64.96l6.44,3.89,1.35-2.39-6.65-3.5c-.15.35-.31.69-.5,1.04h0Z"/>
                  <path class="cls-11" d="m100.99,99.86c-.33.19-.68.38-1.04.51l3.65,6.58,2.36-1.4-4.03-6.35c-.31.24-.61.46-.94.65h0Z"/>
                  <path class="cls-11" d="m97.24,100.92c-.39,0-.78-.01-1.15-.07l-.11,7.53,2.74-.04-.33-7.51c-.36.06-.75.1-1.14.1h0Z"/>
                  <path class="cls-11" d="m92.5,99.33l-3.85,6.47,2.4,1.33,3.46-6.68c-.35-.14-.71-.29-1.04-.49-.35-.19-.67-.4-.97-.64h0Z"/>
                  <path class="cls-11" d="m90.67,97.28c-.21-.33-.37-.68-.53-1.04l-6.55,3.69,1.42,2.35,6.32-4.07c-.24-.29-.46-.61-.65-.93h0Z"/>
                  <path class="cls-11" d="m89.59,93.54c-.01-.39.01-.78.07-1.15l-7.53-.06.06,2.74,7.51-.39c-.07-.38-.11-.75-.11-1.14h0Z"/>
                  <path class="cls-11" d="m90.5,89.75c.18-.35.4-.67.62-.97l-6.5-3.79-1.32,2.4,6.71,3.4c.14-.35.31-.69.49-1.04h0Z"/>
                  <path class="cls-11" d="m93.18,86.93c.33-.21.68-.39,1.03-.53l-3.75-6.53-2.33,1.43,4.12,6.29c.29-.24.6-.46.93-.67h0Z"/>
                </g>
                <circle class="cls-7" cx="97.13" cy="93.38" r="6.03"/>
              </g>
              <circle class="cls-9" cx="97.13" cy="94.44" r="4.96"/>
            </g>
            <g id="Star">
              <rect class="cls-10" x="30" y="20.25" width="5.51" height="30" transform="translate(-15.33 33.49) rotate(-45)"/>
              <rect class="cls-10" x="17.77" y="32.5" width="30" height="5.51" transform="translate(-15.33 33.5) rotate(-45)"/>
              <rect class="cls-10" x="17.76" y="32.5" width="30" height="5.51"/>
              <rect class="cls-10" x="30" y="20.25" width="5.51" height="30"/>
              <polygon class="cls-7" points="38.07 35.25 36.51 36.81 36.51 39.01 34.32 39.01 32.76 40.57 31.21 39.01 29 39.01 29 36.81 27.44 35.25 29 33.69 29 31.5 31.21 31.5 32.76 29.94 34.32 31.5 36.51 31.5 36.51 33.69 38.07 35.25"/>
            </g>
            <g id="Pastle">
              <g>
                <g>
                  <path class="cls-1" d="m42.11,85.33c0,1.61-.4,3.12-1.11,4.44-.94,1.76-2.44,3.18-4.25,4.04-1.21.57-2.54.89-3.96.9h-.15c-1.44-.01-2.81-.36-4.03-.96h0c-1.62-.81-2.99-2.06-3.92-3.6h0c-.85-1.4-1.33-3.06-1.33-4.82,0-.29.01-.57.04-.85,5.04.01,9.15,4.03,9.33,9.04h.01c.18-5.01,4.28-9.01,9.33-9.04.01.26.03.54.03.83h0Z"/>
                  <path class="cls-1" d="m47.76,94c0,2.57-.65,5-1.79,7.11-1.51,2.81-3.9,5.08-6.8,6.46-1.93.92-4.07,1.42-6.35,1.43h-.24c-2.31-.03-4.49-.57-6.43-1.53h0c-2.6-1.28-4.78-3.29-6.26-5.76h0c-1.35-2.25-2.12-4.89-2.12-7.71,0-.46.01-.92.06-1.36,8.08.03,14.65,6.44,14.93,14.46h.01c.28-8.01,6.85-14.43,14.93-14.46.04.46.07.9.07,1.36h0Z"/>
                </g>
                <g>
                  <path class="cls-1" d="m42.11,85.33c0,1.61-.4,3.12-1.11,4.44-.94,1.76-2.44,3.18-4.25,4.04-1.21.57-2.54.89-3.96.9h-.15c-1.44-.01-2.81-.36-4.03-.96h0c-1.62-.81-2.99-2.06-3.92-3.6h0c-.85-1.4-1.33-3.06-1.33-4.82,0-.29.01-.57.04-.85,5.04.01,9.15,4.03,9.33,9.04h.01c.18-5.01,4.28-9.01,9.33-9.04.01.26.03.54.03.83h0Z"/>
                  <path class="cls-1" d="m47.76,94c0,2.57-.65,5-1.79,7.11-1.51,2.81-3.9,5.08-6.8,6.46-1.93.92-4.07,1.42-6.35,1.43h-.24c-2.31-.03-4.49-.57-6.43-1.53h0c-2.6-1.28-4.78-3.29-6.26-5.76h0c-1.35-2.25-2.12-4.89-2.12-7.71,0-.46.01-.92.06-1.36,8.08.03,14.65,6.44,14.93,14.46h.01c.28-8.01,6.85-14.43,14.93-14.46.04.46.07.9.07,1.36h0Z"/>
                </g>
              </g>
              <path class="cls-1" d="m32.82,106.97h-.15c-.39,0-.71-.32-.71-.71v-21.1c0-.39.32-.71.71-.71h.15c.39,0,.71.32.71.71v21.1c0,.4-.32.71-.71.71Z"/>
              <path class="cls-1" d="m38.36,79.54c0,.97-.25,1.87-.67,2.67-.57,1.06-1.46,1.9-2.56,2.42-.72.35-1.53.53-2.37.54h-.1c-.86-.01-1.68-.21-2.42-.57h0c-.97-.49-1.79-1.24-2.35-2.15h0c-.51-.85-.81-1.83-.81-2.89,0-.17.01-.35.03-.51,3.03.01,5.49,2.42,5.6,5.42h0c.11-3,2.57-5.42,5.6-5.42.04.15.04.32.04.5h0Z"/>
            </g>
            <path id="Cloud" class="cls-4" d="m102.29,29.37c.93-.81,1.19-2.54.76-3.44-1.25-2.61-3.68-2.53-4.71-2.55-.61-3.81-3.86-5.3-7.11-4.78-2.88.46-5.11,2.55-5.88,5.23-.83-.18-1.71-.22-2.59-.09-3.98.6-6.7,4.39-6.09,8.48.22,1.45.83,2.74,1.7,3.78-.58.8-.86,1.82-.7,2.89.12.81.48,1.53,1,2.08.82.89,2.03,1.36,3.3,1.17,0,0,17.38-2.62,22.07-3.33,1.91-.29,4.06-2.62,3.66-5.25-.36-2.41-2.32-4.01-5.41-4.2h0Z"/>
          </g>
        </g>
      </g>
    </g>
  </g>
</svg>