<svg width="128" height="128" viewBox="0 0 128 128" fill="none" xmlns="http://www.w3.org/2000/svg">
<g clip-path="url(#clip0_304_73)">
<path d="M109.381 1.18555H18.613C8.98591 1.18555 1.18164 8.98981 1.18164 18.6169V109.385C1.18164 119.012 8.98591 126.817 18.613 126.817H109.381C119.008 126.817 126.813 119.012 126.813 109.385V18.6169C126.813 8.98981 119.008 1.18555 109.381 1.18555Z" fill="white"/>
<path d="M109.383 2.3704C118.355 2.3704 125.63 9.64308 125.63 18.6165V109.386C125.63 118.358 118.357 125.633 109.383 125.633H18.615C9.64307 125.633 2.36892 118.36 2.36892 109.386V18.6165C2.36892 9.64456 9.64159 2.3704 18.615 2.3704H109.385M109.385 0H18.615C13.6431 0 8.96751 1.93632 5.45191 5.45192C1.93632 8.96751 0 13.6431 0 18.615V109.385C0 114.357 1.93632 119.032 5.45191 122.548C8.96751 126.064 13.6431 128 18.615 128H109.385C114.357 128 119.032 126.064 122.548 122.548C126.064 119.032 128 114.357 128 109.385V18.6165C128 13.6446 126.064 8.96899 122.548 5.4534C119.032 1.9378 114.357 0.00148182 109.385 0.00148182V0Z" fill="white"/>
<path d="M122.669 18.3356V109.069C122.669 116.58 116.58 122.669 109.069 122.669H18.6512C11.2955 122.669 5.33398 116.707 5.33398 109.351V19.2334C5.33398 11.5563 11.5563 5.33398 19.2334 5.33398H109.667C116.848 5.33398 122.669 11.1563 122.669 18.3356Z" fill="white"/>
<path d="M55.9012 45.2021C53.0893 43.125 51.2656 39.7827 51.2656 36.0138C51.2656 33.5471 52.0479 31.2656 53.3768 29.4004C52.0908 31.2152 51.3175 33.4138 51.2745 35.7827C51.2019 39.639 53.0375 43.0731 55.9012 45.2021Z" fill="#ED1C24"/>
<path d="M54.5806 27.9648C54.5362 28.0108 54.4917 28.0567 54.4473 28.1041C54.4739 28.076 54.4991 28.0478 54.5258 28.0197C54.5436 28.0004 54.5613 27.9826 54.5806 27.9648Z" fill="#ED1C24"/>
<path d="M56.8965 45.8633C56.9691 45.9062 57.0432 45.9492 57.1172 45.9907C57.0728 45.967 57.0298 45.9418 56.9854 45.9166L56.8965 45.8633Z" fill="#ED1C24"/>
<path d="M59.8584 47.0936C59.6229 47.0343 59.3903 46.9662 59.1621 46.8906C59.3903 46.9647 59.6229 47.0328 59.8584 47.0936Z" fill="#ED1C24"/>
<path d="M61.4905 13.4852L60.5098 5.33398H61.4905V13.4852Z" fill="#FF6835"/>
<path d="M62.668 62.6681H44.773C44.8367 63.1036 44.8707 63.5481 44.8707 64.0014C44.8707 68.9318 40.8737 72.9289 35.9432 72.9289C31.0128 72.9289 27.0157 68.9318 27.0157 64.0014C27.0157 63.5481 27.0498 63.1036 27.1135 62.6681H5.33398V19.2335C5.33398 11.5563 11.5563 5.33405 19.2334 5.33405L57.7776 5.32812L58.1302 7.84075L58.139 7.90593L60.185 24.8558C59.4294 25.0246 58.7035 25.2691 58.0131 25.5802H57.9805C57.1435 25.9654 56.3583 26.4484 55.6442 27.0143C55.5983 27.0513 55.5523 27.0884 55.5064 27.1254C55.502 27.1284 55.4975 27.1328 55.4931 27.1358C55.4857 27.1417 55.4783 27.1476 55.4709 27.1536C55.4442 27.1773 55.4175 27.1995 55.3909 27.2217C55.3286 27.2736 55.2664 27.3269 55.2057 27.3802C55.1346 27.4425 55.0635 27.5047 54.9938 27.5684C54.9864 27.5758 54.9775 27.5832 54.9701 27.5906C54.9079 27.6469 54.8471 27.7032 54.7879 27.7625C54.7657 27.7832 54.7434 27.8054 54.7212 27.8276C54.6738 27.8736 54.6294 27.918 54.5834 27.9654C54.539 28.0114 54.4946 28.0573 54.4501 28.1047C54.3671 28.1906 54.2857 28.278 54.2057 28.3669C54.182 28.3951 54.1568 28.4232 54.1316 28.4499C54.0694 28.521 54.0071 28.5936 53.9464 28.6662C53.9005 28.7195 53.856 28.7743 53.8131 28.8291C53.7568 28.8958 53.7034 28.964 53.6501 29.0336C53.5568 29.1536 53.4664 29.2766 53.3775 29.401C52.0916 31.2158 51.3182 33.4144 51.2753 35.7833C51.2027 39.6396 53.0382 43.0737 55.902 45.2027C55.9953 45.2738 56.0901 45.3419 56.1864 45.4071C56.4175 45.5671 56.6546 45.7197 56.8961 45.8634C56.9687 45.9064 57.0427 45.9493 57.1168 45.9908C57.1864 46.0308 57.2561 46.0693 57.3272 46.1064C57.4027 46.1479 57.4813 46.1879 57.5583 46.2279C57.6827 46.2901 57.8087 46.3508 57.9361 46.4101C58.062 46.4693 58.1909 46.5256 58.3198 46.579C58.4561 46.6353 58.5953 46.6901 58.7361 46.7434C58.8768 46.7953 59.019 46.8442 59.1628 46.8916C59.3909 46.9656 59.6235 47.0338 59.8591 47.0945C59.9376 47.1138 60.0161 47.1331 60.0946 47.1523C60.1746 47.1701 60.2546 47.1879 60.3361 47.2056C60.3761 47.2145 60.4161 47.2234 60.4576 47.2308C60.5302 47.2456 60.6043 47.2605 60.6768 47.2723C60.865 47.3079 61.0546 47.336 61.2457 47.3597C61.7109 47.422 62.185 47.4531 62.6665 47.456V62.6681H62.668Z" fill="#FF6835"/>
<path d="M72.9288 93.3343C72.9288 98.2647 68.9318 102.262 64.0013 102.262C63.548 102.262 63.1035 102.228 62.668 102.164V122.668H18.6512C11.2955 122.668 5.33398 116.706 5.33398 109.351V65.334H24.5416C25.2024 71.0452 30.0543 75.4793 35.9432 75.4793C41.8322 75.4793 46.6841 71.0452 47.3448 65.334H62.668V84.5046C63.1035 84.4409 63.548 84.4068 64.0013 84.4068C68.9318 84.4068 72.9288 88.4039 72.9288 93.3343Z" fill="#C383D9"/>
<path d="M122.668 65.3351V109.069C122.668 116.58 116.579 122.669 109.068 122.669H65.334V104.737C71.0452 104.076 75.4793 99.2244 75.4793 93.3354C75.4793 87.4464 71.0452 82.5945 65.334 81.9338V65.3351H84.5046C84.4409 64.8995 84.4068 64.4551 84.4068 64.0017C84.4068 59.0713 88.4039 55.0742 93.3343 55.0742C98.2647 55.0742 102.262 59.0713 102.262 64.0017C102.262 64.4551 102.228 64.8995 102.164 65.3351H122.668Z" fill="#FFC33F"/>
<path d="M122.668 18.3356V18.3519L122.62 55.3612L106.496 57.4398C105.152 51.8501 99.8009 48.0337 93.9549 48.7449C88.1089 49.4545 83.8274 54.4412 83.8599 60.1909L67.3827 62.1924L65.2242 44.4278C64.799 44.5448 64.362 44.6322 63.9116 44.687C59.0167 45.2811 54.5678 41.7952 53.9722 36.9003C53.3781 32.0069 56.8641 27.5565 61.7575 26.9624C62.2078 26.9076 62.6538 26.8868 63.0938 26.8972L60.5041 5.33398H109.666C116.847 5.33398 122.668 11.1563 122.668 18.3356Z" fill="#6692FD"/>
<path d="M98.6421 88.3182C99.0436 88.3182 99.4362 88.3493 99.8214 88.4071L100.047 80.7344H97.248L97.4732 88.4041C97.854 88.3463 98.2436 88.3167 98.6407 88.3167L98.6421 88.3182Z" fill="#BCBEC0"/>
<path d="M103.455 90.0057L107.47 83.4649L105.044 82.0723L101.42 88.8368C101.778 88.9761 102.133 89.1449 102.476 89.342C102.824 89.542 103.15 89.7642 103.454 90.0072L103.455 90.0057Z" fill="#BCBEC0"/>
<path d="M105.294 92.1381C105.496 92.4847 105.669 92.8403 105.811 93.2018L112.55 89.5277L111.14 87.1113L104.629 91.1736C104.87 91.4729 105.094 91.7943 105.294 92.1381Z" fill="#BCBEC0"/>
<path d="M106.344 95.9645C106.347 96.366 106.319 96.7586 106.263 97.1438L113.937 97.3142L113.916 94.5156L106.248 94.7971C106.309 95.1779 106.341 95.5675 106.344 95.9645Z" fill="#BCBEC0"/>
<path d="M105.355 99.8068C105.158 100.156 104.937 100.484 104.697 100.789L111.268 104.757L112.643 102.319L105.851 98.7461C105.715 99.1061 105.549 99.4617 105.354 99.8068H105.355Z" fill="#BCBEC0"/>
<path d="M102.579 102.644C102.234 102.848 101.88 103.023 101.52 103.168L105.243 109.881L107.648 108.453L103.539 101.973C103.241 102.217 102.921 102.442 102.579 102.644Z" fill="#BCBEC0"/>
<path d="M98.7577 103.722C98.3562 103.728 97.9622 103.703 97.577 103.65L97.4629 111.324L100.261 111.284L99.9237 103.617C99.5444 103.681 99.1548 103.716 98.7577 103.722Z" fill="#BCBEC0"/>
<path d="M93.9181 102.105L89.998 108.704L92.4455 110.061L95.97 103.245C95.6085 103.11 95.2529 102.947 94.9063 102.756C94.5551 102.562 94.2262 102.344 93.9196 102.105H93.9181Z" fill="#BCBEC0"/>
<path d="M92.0499 100.002C91.8425 99.6579 91.6647 99.3053 91.5166 98.9453L84.832 102.717L86.278 105.113L92.7284 100.956C92.4825 100.659 92.2543 100.341 92.0499 100.002Z" fill="#BCBEC0"/>
<path d="M90.944 96.1878C90.9351 95.7863 90.9573 95.3922 91.0077 95.007L83.332 94.9492L83.3928 97.7463L91.0566 97.3522C90.9899 96.973 90.9514 96.5833 90.9425 96.1863L90.944 96.1878Z" fill="#BCBEC0"/>
<path d="M91.8812 92.3325C92.0738 91.9799 92.2886 91.6495 92.5241 91.3399L85.8959 87.4688L84.5566 89.9251L91.3997 93.3992C91.5315 93.0377 91.6915 92.6807 91.8812 92.331V92.3325Z" fill="#BCBEC0"/>
<path d="M94.617 89.4569C94.9592 89.2465 95.3104 89.0673 95.6689 88.9161L91.8481 82.2598L89.4629 83.7235L93.6674 90.1428C93.9622 89.8939 94.2792 89.6643 94.617 89.4569Z" fill="#BCBEC0"/>
<path d="M99.3406 87.2713C99.7599 87.2713 100.172 87.3038 100.573 87.3646L100.809 79.3438H97.8828L98.1184 87.3631C98.5169 87.3024 98.9243 87.2713 99.3391 87.2713H99.3406Z" fill="#F7EDDA"/>
<path d="M104.374 89.0351L108.572 82.1966L106.034 80.7402L102.246 87.8129C102.621 87.9581 102.991 88.1344 103.351 88.3403C103.714 88.5492 104.056 88.7818 104.374 89.0351Z" fill="#F7EDDA"/>
<path d="M106.298 91.2646C106.51 91.6261 106.689 91.998 106.839 92.3758L113.885 88.5357L112.409 86.0098L105.602 90.2572C105.855 90.5698 106.087 90.9076 106.296 91.2661L106.298 91.2646Z" fill="#F7EDDA"/>
<path d="M107.391 95.268C107.394 95.6873 107.365 96.0991 107.307 96.5021L115.329 96.6799L115.307 93.7539L107.289 94.0487C107.353 94.4458 107.387 94.8547 107.39 95.2695L107.391 95.268Z" fill="#F7EDDA"/>
<path d="M106.351 99.2839C106.146 99.6484 105.916 99.9921 105.664 100.312L112.534 104.46L113.972 101.912L106.873 98.1758C106.729 98.5521 106.557 98.9225 106.353 99.2854L106.351 99.2839Z" fill="#F7EDDA"/>
<path d="M103.448 102.249C103.088 102.462 102.718 102.646 102.34 102.797L106.232 109.815L108.747 108.322L104.451 101.547C104.14 101.802 103.805 102.037 103.448 102.249Z" fill="#F7EDDA"/>
<path d="M99.4542 103.379C99.0349 103.385 98.6231 103.36 98.2201 103.304L98.1016 111.327L101.026 111.284L100.673 103.27C100.276 103.336 99.869 103.373 99.4542 103.379Z" fill="#F7EDDA"/>
<path d="M94.4025 101.687L90.3047 108.586L92.8632 110.006L96.5477 102.878C96.1699 102.737 95.7981 102.567 95.4351 102.366C95.0692 102.163 94.724 101.934 94.4025 101.686V101.687Z" fill="#F7EDDA"/>
<path d="M92.4452 99.4865C92.2289 99.128 92.0437 98.7591 91.8881 98.3828L84.8984 102.327L86.4096 104.83L93.1533 100.484C92.8956 100.174 92.6585 99.8406 92.4437 99.485L92.4452 99.4865Z" fill="#F7EDDA"/>
<path d="M91.2872 95.5004C91.2783 95.0811 91.3005 94.6693 91.3539 94.2663L83.3301 94.207L83.3938 97.1315L91.4057 96.7196C91.3361 96.3226 91.2961 95.9152 91.2872 95.5004Z" fill="#F7EDDA"/>
<path d="M92.2677 91.4712C92.4677 91.1038 92.6929 90.7571 92.9403 90.4342L86.0113 86.3867L84.6113 88.9556L91.7655 92.5883C91.9033 92.209 92.0707 91.8371 92.2692 91.4727L92.2677 91.4712Z" fill="#F7EDDA"/>
<path d="M95.1304 88.4601C95.4874 88.2408 95.8548 88.0527 96.2297 87.8956L92.2356 80.9355L89.7422 82.4659L94.1378 89.1771C94.4459 88.9179 94.7763 88.6764 95.1304 88.4601Z" fill="#F7EDDA"/>
<path d="M99.3399 101.76C102.894 101.76 105.776 98.8786 105.776 95.3243C105.776 91.77 102.894 88.8887 99.3399 88.8887C95.7856 88.8887 92.9043 91.77 92.9043 95.3243C92.9043 98.8786 95.7856 101.76 99.3399 101.76Z" fill="#FF6835"/>
<path d="M99.3422 101.759C102.262 101.759 104.63 99.3913 104.63 96.4711C104.63 93.5509 102.262 91.1836 99.3422 91.1836C96.422 91.1836 94.0547 93.5509 94.0547 96.4711C94.0547 99.3913 96.422 101.759 99.3422 101.759Z" fill="#EFE1C3"/>
<path d="M39.9057 46.7278L44.0625 42.571L21.4348 19.9434L17.278 24.1002L39.9057 46.7278Z" fill="#F2DFDA"/>
<path d="M17.2749 42.5725L21.4316 46.7292L44.0593 24.1016L39.9025 19.9448L17.2749 42.5725Z" fill="#F2DFDA"/>
<path d="M46.666 36.2738V30.3953L14.6656 30.3953V36.2738H46.666Z" fill="#F2DFDA"/>
<path d="M27.7249 49.3347H33.6035L33.6035 17.3343H27.7249L27.7249 49.3347Z" fill="#F2DFDA"/>
<path d="M36.3334 33.3344L34.6756 34.9937V37.3404H32.3289L30.6696 38.9982L29.0103 37.3404H26.6637V34.9937L25.0059 33.3344L26.6637 31.6751V29.3285H29.0103L30.6696 27.6707L32.3289 29.3285H34.6756V31.6751L36.3334 33.3344Z" fill="#FF6835"/>
<path d="M94.8199 27.4985L93.7517 28.8615L93.9592 30.5801L92.2406 30.7889L91.1725 32.1519L89.808 31.0838L86.5176 28.503L87.5857 27.14L87.3783 25.4215L89.0969 25.2126L90.1665 23.8496L91.5295 24.9178L93.4569 26.4289L94.8199 27.4985Z" fill="#BCBEC0"/>
<path d="M103.355 23.4857L97.3983 24.2072L101.101 19.4842C102.108 18.1997 101.883 16.3405 100.598 15.333C99.3138 14.3256 97.4546 14.5508 96.4471 15.8353L92.7449 20.5583L92.0234 14.6012C91.8263 12.9804 90.3537 11.8248 88.733 12.0219C87.1122 12.2189 85.9567 13.6915 86.1537 15.3123L86.8752 21.2694L82.1522 17.5671C80.8677 16.5597 79.0084 16.7849 78.001 18.0694C76.9936 19.3538 77.2188 21.2131 78.5032 22.2205L83.2262 25.9228L77.2691 26.6443C75.6484 26.8413 74.4928 28.3139 74.6899 29.9347C74.8869 31.5554 76.3595 32.711 77.9803 32.514L83.9374 31.7925L80.2351 36.5155C79.7314 37.1585 79.5358 37.9437 79.6262 38.6948C79.7166 39.4459 80.0944 40.1629 80.7373 40.6667C82.0218 41.6741 83.8811 41.4489 84.8885 40.1644L88.5907 35.4414L89.3122 41.3985C89.41 42.2089 89.8278 42.9037 90.4234 43.3704C91.0189 43.8371 91.7923 44.0771 92.6026 43.9793C94.2234 43.7823 95.379 42.3096 95.1819 40.6889L94.4604 34.7318L99.1835 38.434C99.8264 38.9378 100.612 39.1333 101.363 39.0429C102.114 38.9526 102.831 38.5748 103.335 37.9318C104.342 36.6474 104.117 34.7881 102.832 33.7807L98.1094 30.0784L104.066 29.3569C104.877 29.2591 105.57 28.8413 106.038 28.2458C106.505 27.6502 106.745 26.8769 106.647 26.0665C106.45 24.4457 104.978 23.2902 103.357 23.4872L103.355 23.4857ZM93.7508 28.8606L93.9597 30.5791L92.2412 30.788L91.173 32.151L89.81 31.0828L88.0915 31.2917L87.8826 29.5732L86.5196 28.505L87.5878 27.1421L87.3789 25.4235L89.0974 25.2146L90.1656 23.8516L91.5286 24.9198L93.2471 24.7109L93.456 26.4295L94.819 27.4976L93.7508 28.8606Z" fill="#D9E2F4"/>
<path d="M94.8199 27.4985L93.7517 28.8615L92.2406 30.7889L91.1725 32.1519L89.808 31.0838L88.0895 31.2912L87.8806 29.5726L86.5176 28.503L87.5857 27.14L89.0969 25.2126L90.1665 23.8496L91.5295 24.9178L93.248 24.7104L93.4569 26.4289L94.8199 27.4985Z" fill="#BCBEC0"/>
<path d="M94.8199 27.4991L93.7517 28.8621L93.9592 30.5806L88.0895 31.2918L87.8806 29.5732L86.5176 28.5036L87.5857 27.1406L87.3783 25.4221L93.248 24.7109L93.4569 26.4295L94.8199 27.4991Z" fill="#BCBEC0"/>
<path d="M93.2466 24.7104L93.9578 30.5801L92.2392 30.7889L91.1711 32.1519L89.8066 31.0838L88.0881 31.2912L87.377 25.4215L89.0955 25.2126L90.1651 23.8496L91.5281 24.9178L93.2466 24.7104Z" fill="#BCBEC0"/>
<path d="M90.6677 32.8862C93.3653 32.8862 95.5522 30.6993 95.5522 28.0017C95.5522 25.3041 93.3653 23.1172 90.6677 23.1172C87.9701 23.1172 85.7832 25.3041 85.7832 28.0017C85.7832 30.6993 87.9701 32.8862 90.6677 32.8862Z" fill="#FFC33F"/>
<path d="M40.6482 86.7475C40.6482 88.463 40.2171 90.0779 39.4556 91.4883C38.4437 93.3638 36.8511 94.8794 34.9178 95.7935C33.6348 96.4009 32.2007 96.7431 30.6881 96.7491C30.6659 96.7491 30.6436 96.7491 30.6214 96.7491H30.6051C30.5962 96.7491 30.5873 96.7491 30.5785 96.7491C30.5651 96.7491 30.5503 96.7491 30.537 96.7491C28.9977 96.7328 27.5429 96.3698 26.2465 95.7328C24.5117 94.8809 23.0584 93.5416 22.0672 91.8927C21.165 90.3905 20.6465 88.6319 20.6465 86.7519C20.6465 86.4452 20.6598 86.143 20.688 85.8438C26.0717 85.8645 30.4525 90.1416 30.6407 95.4853C30.6451 95.4853 30.6496 95.4853 30.654 95.4853C30.8422 90.1416 35.2229 85.866 40.6067 85.8438C40.6334 86.143 40.6482 86.4467 40.6482 86.7519V86.7475Z" fill="#EFD9F9"/>
<path d="M46.6669 96.0022C46.6669 98.7474 45.9765 101.33 44.7587 103.586C43.1409 106.586 40.5927 109.011 37.4993 110.473C35.446 111.445 33.1526 111.992 30.7319 112.002C30.6963 112.002 30.6622 112.002 30.6267 112.002H30.6015C30.5867 112.002 30.5733 112.002 30.5585 112.002C30.5363 112.002 30.5141 112.002 30.4919 112.002C28.0296 111.977 25.7022 111.395 23.6266 110.376C20.8503 109.014 18.5258 106.87 16.9406 104.23C16.9406 104.23 16.9406 104.23 16.9406 104.229C15.4976 101.826 14.668 99.0126 14.668 96.0037C14.668 95.5133 14.6902 95.0288 14.7332 94.5488C23.3481 94.5829 30.3556 101.424 30.6578 109.974C30.6652 109.974 30.6726 109.974 30.6785 109.974C30.9793 101.424 37.9882 94.5829 46.6032 94.5488C46.6461 95.0274 46.6683 95.5133 46.6683 96.0037L46.6669 96.0022Z" fill="#EFD9F9"/>
<path d="M40.6482 86.7475C40.6482 88.463 40.2171 90.0779 39.4556 91.4883C38.4437 93.3638 36.8511 94.8794 34.9178 95.7935C33.6348 96.4009 32.2007 96.7431 30.6881 96.7491C30.6659 96.7491 30.6436 96.7491 30.6214 96.7491H30.6051C30.5962 96.7491 30.5873 96.7491 30.5785 96.7491C30.5651 96.7491 30.5503 96.7491 30.537 96.7491C28.9977 96.7328 27.5429 96.3698 26.2465 95.7328C24.5117 94.8809 23.0584 93.5416 22.0672 91.8927C21.165 90.3905 20.6465 88.6319 20.6465 86.7519C20.6465 86.4452 20.6598 86.143 20.688 85.8438C26.0717 85.8645 30.4525 90.1416 30.6407 95.4853C30.6451 95.4853 30.6496 95.4853 30.654 95.4853C30.8422 90.1416 35.2229 85.866 40.6067 85.8438C40.6334 86.143 40.6482 86.4467 40.6482 86.7519V86.7475Z" fill="#EFD9F9"/>
<path d="M46.6669 96.0022C46.6669 98.7474 45.9765 101.33 44.7587 103.586C43.1409 106.586 40.5927 109.011 37.4993 110.473C35.446 111.445 33.1526 111.992 30.7319 112.002C30.6963 112.002 30.6622 112.002 30.6267 112.002H30.6015C30.5867 112.002 30.5733 112.002 30.5585 112.002C30.5363 112.002 30.5141 112.002 30.4919 112.002C28.0296 111.977 25.7022 111.395 23.6266 110.376C20.8503 109.014 18.5258 106.87 16.9406 104.23C16.9406 104.23 16.9406 104.23 16.9406 104.229C15.4976 101.826 14.668 99.0126 14.668 96.0037C14.668 95.5133 14.6902 95.0288 14.7332 94.5488C23.3481 94.5829 30.3556 101.424 30.6578 109.974C30.6652 109.974 30.6726 109.974 30.6785 109.974C30.9793 101.424 37.9882 94.5829 46.6032 94.5488C46.6461 95.0274 46.6683 95.5133 46.6683 96.0037L46.6669 96.0022Z" fill="#EFD9F9"/>
<path d="M30.5585 109.84H30.7289C31.1429 109.84 31.4785 109.504 31.4785 109.09L31.4785 86.5892C31.4785 86.1752 31.1429 85.8396 30.7289 85.8396H30.5585C30.1445 85.8396 29.8089 86.1752 29.8089 86.5892L29.8089 109.09C29.8089 109.504 30.1445 109.84 30.5585 109.84Z" fill="#EFD9F9"/>
<path d="M36.6466 80.5671C36.6466 81.5968 36.3874 82.5657 35.9311 83.4116C35.3236 84.5361 34.3681 85.4457 33.2081 85.9939C32.4377 86.3583 31.5784 86.5643 30.6703 86.5672C30.6569 86.5672 30.6436 86.5672 30.6303 86.5672H30.6214C30.6214 86.5672 30.611 86.5672 30.6051 86.5672C30.5962 86.5672 30.5888 86.5672 30.5799 86.5672C29.6569 86.5583 28.7843 86.3391 28.005 85.9568C26.9636 85.4457 26.0924 84.6427 25.4983 83.6531C24.9576 82.7524 24.6465 81.696 24.6465 80.5686C24.6465 80.3849 24.6554 80.2027 24.6717 80.0234C27.9028 80.0368 30.531 82.6027 30.6436 85.8087C30.6466 85.8087 30.6495 85.8087 30.651 85.8087C30.7636 82.6027 33.3918 80.0368 36.6229 80.0234C36.6392 80.2027 36.6481 80.3849 36.6481 80.5686L36.6466 80.5671Z" fill="#00A79D"/>
</g>
<defs>
<clipPath id="clip0_304_73">
<rect width="128" height="128" fill="white"/>
</clipPath>
</defs>
</svg>
