<svg width="194" height="121" viewBox="0 0 194 121" fill="none" xmlns="http://www.w3.org/2000/svg">
<g clip-path="url(#clip0_232_468)">
<path fill-rule="evenodd" clip-rule="evenodd" d="M107.811 35.0712C111.867 33.4603 116.332 32.6953 120.976 32.9812C136.307 33.9251 148.305 45.9985 149.591 60.8538C162.614 62.2757 172.349 73.7006 171.536 86.9143C170.697 100.524 158.985 110.879 145.374 110.04C139.947 109.706 135.038 107.643 131.149 104.42C126.895 107.142 121.769 108.587 116.342 108.253C109.118 107.808 102.812 104.3 98.6094 99.0707C93.7971 103.746 87.1076 106.454 79.8834 106.009C70.2911 105.418 62.3163 99.4261 58.7371 91.1749C54.4894 93.8826 49.3771 95.3189 43.9647 94.9858C30.3543 94.148 20.0002 82.4351 20.8382 68.8245C21.6762 55.2143 33.3889 44.8602 46.9993 45.6982C47.1902 45.71 47.3804 45.7239 47.57 45.7399C47.3126 43.8036 47.2377 41.8144 47.3623 39.7913C48.4012 22.9181 62.9218 10.0818 79.7952 11.1207C93.7512 11.9799 104.946 22.0627 107.811 35.0712Z" fill="#6692FD"/>
<mask id="mask0_232_468" style="mask-type:alpha" maskUnits="userSpaceOnUse" x="76" y="43" width="20" height="24">
<ellipse cx="85.611" cy="54.9553" rx="9.3813" ry="11.8204" transform="rotate(5.55509 85.611 54.9553)" fill="white"/>
</mask>
<g mask="url(#mask0_232_468)">
<rect x="72.0449" y="41.3223" width="29.7472" height="24.4405" transform="rotate(5.55509 72.0449 41.3223)" fill="white"/>
<rect x="76.3926" y="52.8291" width="12.0081" height="12.9462" rx="6.00403" transform="rotate(5.55509 76.3926 52.8291)" fill="black"/>
</g>
<mask id="mask1_232_468" style="mask-type:alpha" maskUnits="userSpaceOnUse" x="101" y="45" width="20" height="25">
<ellipse cx="111.179" cy="57.4426" rx="9.3813" ry="11.8204" transform="rotate(5.55509 111.179 57.4426)" fill="white"/>
</mask>
<g mask="url(#mask1_232_468)">
<rect x="97.6133" y="43.8096" width="29.7472" height="24.4405" transform="rotate(5.55509 97.6133 43.8096)" fill="white"/>
<rect x="101.96" y="55.3164" width="12.0081" height="12.9462" rx="6.00403" transform="rotate(5.55509 101.96 55.3164)" fill="black"/>
</g>
<path d="M86.1553 74.7227C88.3902 78.6995 95.2378 84.6289 104.749 76.531" stroke="black" stroke-width="3.89673" stroke-linecap="round"/>
</g>
<defs>
<clipPath id="clip0_232_468">
<rect width="151.973" height="94.9828" fill="white" transform="translate(26.9678 5.64062) rotate(5.55509)"/>
</clipPath>
</defs>
</svg>
