<svg width="195" height="121" viewBox="0 0 195 121" fill="none" xmlns="http://www.w3.org/2000/svg">
<g clip-path="url(#clip0_232_405)">
<path d="M116.77 56.5605L111.6 63.9101L113.136 72.7603L104.286 74.3035L99.116 81.6531L91.7587 76.4835L74.0152 63.9917L79.1852 56.6421L77.6496 47.7919L86.4994 46.2486L91.677 38.8986L99.0267 44.0686L109.42 51.3828L116.77 56.5605Z" fill="#BCBEC0"/>
<path d="M159.931 33.4743L129.253 38.8104L147.173 13.3422C152.049 6.41579 150.383 -3.15898 143.457 -8.03525C136.531 -12.9115 126.956 -11.246 122.08 -4.31963L104.16 21.1486L98.824 -9.52886C97.3684 -17.8751 89.4272 -23.4687 81.0809 -22.013C72.7347 -20.5574 67.1411 -12.6162 68.5968 -4.26997L73.9328 26.4075L48.4646 8.48791C41.5382 3.61164 31.9634 5.2771 27.0872 12.2035C22.2109 19.1299 23.8764 28.7047 30.8028 33.581L56.271 51.5005L25.5935 56.8366C17.2473 58.2922 11.6538 66.2334 13.1094 74.5797C14.565 82.9259 22.5062 88.5195 30.8524 87.0638L61.5299 81.7278L43.6103 107.196C41.1724 110.663 40.3695 114.784 41.0392 118.653C41.7089 122.521 43.8589 126.136 47.3259 128.573C54.2523 133.45 63.8271 131.784 68.7034 124.858L86.6229 99.3896L91.959 130.067C92.683 134.24 95.0343 137.729 98.2457 139.988C101.457 142.246 105.529 143.283 109.702 142.559C118.049 141.103 123.642 133.162 122.187 124.816L116.851 94.1384L142.319 112.058C145.786 114.496 149.907 115.299 153.775 114.629C157.644 113.959 161.258 111.809 163.696 108.342C168.572 101.416 166.907 91.8412 159.981 86.9649L134.512 69.0453L165.19 63.7093C169.363 62.9853 172.844 60.6344 175.111 57.4225C177.369 54.2111 178.406 50.1391 177.682 45.9658C176.226 37.6196 168.285 32.026 159.939 33.4816L159.931 33.4743ZM111.599 63.9031L113.142 72.7529L104.292 74.2962L99.1224 81.6458L91.7729 76.4758L82.9231 78.019L81.3798 69.1693L74.0302 63.9993L79.2002 56.6497L77.6569 47.7999L86.5067 46.2566L91.6767 38.907L99.0263 44.077L107.876 42.5337L109.419 51.3835L116.769 56.5535L111.599 63.9031Z" fill="#FFC33F"/>
<path d="M116.77 56.5605L111.6 63.9101L104.286 74.3035L99.116 81.6531L91.7587 76.4835L82.9085 78.0191L81.3652 69.1693L74.0152 63.9917L79.1852 56.6421L86.4994 46.2486L91.677 38.8986L99.0267 44.0686L107.877 42.533L109.42 51.3828L116.77 56.5605Z" fill="#BCBEC0"/>
<path d="M116.77 56.5608L111.6 63.9104L113.135 72.7606L82.9082 78.0195L81.3649 69.1697L74.0149 63.9921L79.1849 56.6425L77.6493 47.7923L107.877 42.5334L109.42 51.3832L116.77 56.5608Z" fill="#BCBEC0"/>
<path d="M107.876 42.5343L113.135 72.7615L104.285 74.3048L99.1154 81.6544L91.7581 76.4848L82.9079 78.0204L77.649 47.7932L86.4988 46.2499L91.6764 38.8999L99.026 44.0699L107.876 42.5343Z" fill="#BCBEC0"/>
<path d="M96.9077 89.5154C113.058 88.6798 125.473 74.9098 124.638 58.7593C123.802 42.6087 110.032 30.1935 93.8818 31.029C77.7313 31.8646 65.316 45.6346 66.1516 61.7852C66.9872 77.9357 80.7572 90.351 96.9077 89.5154Z" fill="#FF6835"/>
<mask id="mask0_232_405" style="mask-type:alpha" maskUnits="userSpaceOnUse" x="76" y="45" width="17" height="21">
<ellipse cx="84.4493" cy="55.4993" rx="7.76566" ry="9.78473" transform="rotate(-2.96167 84.4493 55.4993)" fill="white"/>
</mask>
<g mask="url(#mask0_232_405)">
<rect x="71.6719" y="45.9961" width="24.6241" height="20.2418" transform="rotate(-2.96167 71.6719 45.9961)" fill="white"/>
<rect x="75.6562" y="49.2041" width="9.94004" height="10.7166" rx="4.97002" transform="rotate(-2.96167 75.6562 49.2041)" fill="black"/>
</g>
<mask id="mask1_232_405" style="mask-type:alpha" maskUnits="userSpaceOnUse" x="98" y="44" width="16" height="21">
<ellipse cx="105.79" cy="54.3948" rx="7.76566" ry="9.78473" transform="rotate(-2.96167 105.79 54.3948)" fill="white"/>
</mask>
<g mask="url(#mask1_232_405)">
<rect x="93.0127" y="44.8896" width="24.6241" height="20.2418" transform="rotate(-2.96167 93.0127 44.8896)" fill="white"/>
<rect x="96.9971" y="48.0996" width="9.94004" height="10.7166" rx="4.97002" transform="rotate(-2.96167 96.9971 48.0996)" fill="black"/>
</g>
<path d="M88.5508 71.6553C90.868 74.637 97.2006 78.6516 103.994 70.8563" stroke="black" stroke-width="3.07507" stroke-linecap="round"/>
</g>
<defs>
<clipPath id="clip0_232_405">
<rect width="194" height="120" fill="white" transform="translate(0.422852 0.272461)"/>
</clipPath>
</defs>
</svg>
