<svg width="32" height="33" viewBox="0 0 32 33" fill="none" xmlns="http://www.w3.org/2000/svg">
<path d="M15.897 28.9668H15.8973C16.5069 28.9668 17.001 28.4551 17.001 27.8239V17.6662C17.001 17.035 16.5069 16.5233 15.8973 16.5233H15.897C15.2875 16.5233 14.7934 17.035 14.7934 17.6662L14.7934 27.8239C14.7934 28.4551 15.2875 28.9668 15.897 28.9668Z" fill="#B7D7CB"/>
<path d="M28.7786 4.70544C28.7786 6.93827 28.2208 9.0393 27.2369 10.8754C25.9298 13.316 23.8707 15.2885 21.3721 16.478C19.7131 17.2685 17.86 17.7139 15.9046 17.7215V17.7208C15.8762 17.7212 15.8478 17.7215 15.8191 17.7215H15.7988C15.7874 17.7215 15.776 17.7215 15.7646 17.7212C15.7466 17.7208 15.729 17.7208 15.711 17.7205C13.722 17.6998 11.8414 17.2261 10.1645 16.3972H10.1639C7.9206 15.2891 6.04293 13.5451 4.76232 11.3984C4.76167 11.3977 4.76167 11.3974 4.76134 11.3967C3.59531 9.44195 2.9248 7.15258 2.9248 4.70544C2.9248 4.30673 2.94276 3.91197 2.97769 3.52246C9.93766 3.5504 15.5997 9.11622 15.8432 16.0711C15.8491 16.0711 15.8547 16.0711 15.8602 16.0714C16.1034 9.11655 21.7655 3.5504 28.7258 3.52246C28.7607 3.91197 28.7786 4.30673 28.7786 4.70544Z" fill="#00A79D"/>
<path d="M28.7786 16.5062C28.7786 18.7391 28.2208 20.8401 27.2369 22.6762C25.9298 25.1168 23.8707 27.0893 21.3721 28.2788C19.7131 29.0693 17.86 29.5147 15.9046 29.5223V29.5216C15.8762 29.5219 15.8478 29.5223 15.8191 29.5223H15.7988C15.7874 29.5223 15.776 29.5223 15.7646 29.5219C15.7466 29.5216 15.729 29.5216 15.711 29.5213C13.722 29.5006 11.8414 29.0269 10.1645 28.198H10.1639C7.9206 27.0899 6.04293 25.3459 4.76232 23.1991C4.76167 23.1985 4.76167 23.1982 4.76134 23.1975C3.59531 21.2427 2.9248 18.9534 2.9248 16.5062C2.9248 16.1075 2.94276 15.7127 2.97769 15.3232C9.93766 15.3512 15.5997 20.917 15.8432 27.8719C15.8491 27.8719 15.8547 27.8719 15.8602 27.8722C16.1034 20.9173 21.7655 15.3512 28.7258 15.3232C28.7607 15.7127 28.7786 16.1075 28.7786 16.5062Z" fill="#B7D7CB"/>
</svg>
