<svg width="32" height="33" viewBox="0 0 32 33" fill="none" xmlns="http://www.w3.org/2000/svg">
<path fill-rule="evenodd" clip-rule="evenodd" d="M15.142 3.98124C15.3457 3.63256 15.8496 3.63256 16.0533 3.98124L17.282 6.08451L19.1007 4.46375C19.4022 4.19509 19.8814 4.35079 19.9673 4.74534L20.486 7.12559L22.7165 6.14619C23.0862 5.98385 23.4938 6.28 23.4537 6.6818L23.2115 9.10593L25.6355 8.86352C26.0373 8.82333 26.3336 9.23097 26.1712 9.60071L25.1918 11.8315L27.5719 12.3499C27.9666 12.4359 28.1223 12.9152 27.8535 13.2167L26.2328 15.0351L28.3362 16.2642C28.6849 16.4679 28.6848 16.9717 28.3362 17.1754L26.2328 18.4041L27.8536 20.2228C28.1223 20.5242 27.9666 21.0034 27.5721 21.0894L25.1918 21.6082L26.1712 23.8386C26.3336 24.2084 26.0373 24.616 25.6355 24.5758L23.2115 24.3336L23.4537 26.7576C23.4938 27.1594 23.0862 27.4556 22.7165 27.2932L20.486 26.3136L19.9673 28.6939C19.8814 29.0885 19.4022 29.2442 19.1007 28.9755L17.282 27.3548L16.0533 29.4582C15.8496 29.8069 15.3457 29.8069 15.142 29.4582L13.9133 27.3548L12.0948 28.9755C11.7933 29.2442 11.3141 29.0885 11.2281 28.6939L10.7093 26.3136L8.47889 27.2932C8.10916 27.4556 7.70148 27.1594 7.74162 26.7576L7.98376 24.3336L5.55985 24.5758C5.15803 24.616 4.86186 24.2083 5.02424 23.8386L6.00378 21.6082L3.62352 21.0894C3.22898 21.0034 3.07329 20.5243 3.34195 20.2228L4.9627 18.4041L2.85918 17.1754C2.5105 16.9717 2.51048 16.4679 2.85914 16.2642L4.9627 15.0351L3.34203 13.2166C3.07334 12.9151 3.22907 12.4359 3.62366 12.3499L6.00378 11.8315L5.02422 9.60076C4.86185 9.231 5.15805 8.82334 5.55988 8.86352L7.98376 9.10593L7.74161 6.6818C7.70147 6.28 8.10911 5.98385 8.47883 6.14619L10.7093 7.12559L11.2281 4.74533C11.3141 4.35078 11.7933 4.19509 12.0948 4.46376L13.9133 6.08451L15.142 3.98124Z" fill="#FF6835"/>
</svg>
