<svg width="32" height="33" viewBox="0 0 32 33" fill="none" xmlns="http://www.w3.org/2000/svg">
<path d="M23.5045 27.4438L26.8818 24.0664L8.49706 5.68163L5.11971 9.05898L23.5045 27.4438Z" fill="#C383D9"/>
<path d="M5.11874 24.066L8.49609 27.4434L26.8809 9.05858L23.5035 5.68123L5.11874 24.066Z" fill="#C383D9"/>
<path d="M29 18.9491V14.1729L3 14.1729V18.9491H29Z" fill="#C383D9"/>
<path d="M13.6124 29.5615H18.3887L18.3887 3.56152H13.6124L13.6124 29.5615Z" fill="#C383D9"/>
<path d="M22.0185 16.561L20.2569 18.3516V20.8839H17.7632L16 22.6729L14.2368 20.8839H11.7431V18.3516L9.98145 16.561L11.7431 14.7705V12.2382H14.2368L16 10.4492L17.7632 12.2382H20.2569V14.7705L22.0185 16.561Z" fill="#EFD9F9"/>
</svg>
