<svg width="32" height="33" viewBox="0 0 32 33" fill="none" xmlns="http://www.w3.org/2000/svg">
<path fill-rule="evenodd" clip-rule="evenodd" d="M23.6838 5.74647C24.3189 5.62822 24.9727 5.8081 25.4578 6.23505C25.9425 6.66172 26.2039 7.28788 26.1669 7.93241C26.0693 9.63116 25.9613 11.5109 25.9613 11.5109C25.9613 11.5109 27.5892 12.4389 29.0569 13.2756C29.6139 13.5932 29.9957 14.1477 30.0933 14.7817C30.1904 15.4156 29.9932 16.0592 29.5573 16.5297C28.3848 17.7939 27.0721 19.2096 27.0721 19.2096C27.0721 19.2096 27.721 21.0148 28.2987 22.6217C28.5138 23.2196 28.4469 23.8824 28.1164 24.4252C27.7862 24.9676 27.2281 25.332 26.5985 25.4156C24.8937 25.642 22.9727 25.8977 22.9727 25.8977C22.9727 25.8977 22.3031 27.722 21.7084 29.3424C21.4886 29.941 21.0089 30.4076 20.4046 30.6106C19.7998 30.8133 19.136 30.7309 18.5997 30.3862C17.1733 29.4691 15.581 28.4457 15.581 28.4457C15.581 28.4457 13.9357 29.4111 12.4566 30.2791C11.9011 30.6052 11.2261 30.6583 10.6264 30.4229C10.0266 30.1875 9.56798 29.6899 9.3824 29.0728C8.89493 27.4526 8.35572 25.6617 8.35572 25.6617C8.35572 25.6617 6.51159 25.3539 4.84276 25.0758C4.20699 24.9701 3.65498 24.5779 3.34559 24.0124C3.03577 23.4472 3.00294 22.771 3.25613 22.1783C3.92932 20.6013 4.67818 18.8477 4.67818 18.8477C4.67818 18.8477 3.46091 17.3982 2.3708 16.0994C1.96096 15.6111 1.79458 14.9629 1.91964 14.3376C2.04429 13.7121 2.44592 13.1772 3.01185 12.8834C4.54393 12.0882 6.26842 11.1929 6.26842 11.1929C6.26842 11.1929 6.2783 9.25471 6.2872 7.53495C6.2904 6.89961 6.58073 6.29988 7.0771 5.90354C7.57361 5.50719 8.22245 5.35681 8.8429 5.49398C10.5099 5.86333 12.3829 6.27818 12.3829 6.27818C12.3829 6.27818 13.6204 4.797 14.7263 3.47359C15.1376 2.9814 15.7509 2.704 16.3923 2.72042C17.0334 2.73669 17.632 3.04484 18.0178 3.55734C19.0335 4.90705 20.1603 6.40394 20.1603 6.40394C20.1603 6.40394 22.0111 6.05879 23.6838 5.74647Z" fill="#FFC33F"/>
</svg>
