<svg width="359" height="409" viewBox="0 0 359 409" fill="none" xmlns="http://www.w3.org/2000/svg">
<g clip-path="url(#clip0_332_809)">
<g filter="url(#filter0_d_332_809)">
<g clip-path="url(#clip1_332_809)">
<path d="M107 307C107 293.745 117.745 283 131 283H445V393H131C117.745 393 107 382.255 107 369V307Z" fill="#FCFCFC"/>
<circle cx="151" cy="347" r="22" fill="#FF6835"/>
<mask id="mask0_332_809" style="mask-type:alpha" maskUnits="userSpaceOnUse" x="135" y="335" width="11" height="13">
<ellipse cx="140.61" cy="341.815" rx="4.74657" ry="6.01232" fill="white"/>
</mask>
<g mask="url(#mask0_332_809)">
<rect x="133.086" y="335.647" width="15.0509" height="12.321" fill="white"/>
<rect x="140.281" y="337.034" width="6.07561" height="6.58492" rx="3.0378" fill="black"/>
</g>
<mask id="mask1_332_809" style="mask-type:alpha" maskUnits="userSpaceOnUse" x="148" y="335" width="11" height="13">
<ellipse cx="153.465" cy="341.815" rx="4.74657" ry="6.01232" fill="white"/>
</mask>
<g mask="url(#mask1_332_809)">
<rect x="145.941" y="335.646" width="15.0509" height="12.321" fill="white"/>
<rect x="153.297" y="337.034" width="6.07561" height="6.58492" rx="3.0378" fill="black"/>
</g>
<path d="M142.867 351.859C144.187 353.762 147.926 356.427 152.319 351.859" stroke="black" stroke-width="1.53167" stroke-linecap="round"/>
<path d="M199.768 357.22C199.619 357.775 199.427 358.127 199.192 358.276C198.979 358.425 198.659 358.5 198.232 358.5H196.28C195.875 358.5 195.576 358.425 195.384 358.276C195.192 358.127 194.979 357.775 194.744 357.22L187.576 338.948C187.363 338.372 187.309 337.945 187.416 337.668C187.523 337.391 187.875 337.199 188.472 337.092L190.2 336.772C190.755 336.665 191.171 336.687 191.448 336.836C191.725 336.964 191.981 337.369 192.216 338.052L196.824 350.788L199.352 340.452C199.501 339.897 199.693 339.545 199.928 339.396C200.163 339.247 200.483 339.172 200.888 339.172H202.84C203.267 339.172 203.587 339.247 203.8 339.396C204.013 339.545 204.205 339.897 204.376 340.452L207.896 351.204L212.024 337.412C212.216 336.729 212.461 336.313 212.76 336.164C213.059 336.015 213.485 336.004 214.04 336.132L215.768 336.516C216.365 336.644 216.707 336.847 216.792 337.124C216.877 337.38 216.835 337.796 216.664 338.372L210.808 357.22C210.637 357.775 210.445 358.127 210.232 358.276C210.019 358.425 209.699 358.5 209.272 358.5H207C206.595 358.5 206.275 358.425 206.04 358.276C205.827 358.127 205.635 357.775 205.464 357.22L202.296 347.236L199.768 357.22ZM233.026 359.428C232.663 359.513 232.375 359.535 232.162 359.492C231.97 359.471 231.789 359.353 231.618 359.14C231.469 358.927 231.266 358.596 231.01 358.148L227.65 352.356C227.309 352.399 226.957 352.431 226.594 352.452C226.253 352.473 225.89 352.484 225.506 352.484H223.81V357.22C223.81 358.073 223.383 358.5 222.53 358.5H220.45C219.597 358.5 219.17 358.073 219.17 357.22V338.34C219.17 337.487 219.597 337.06 220.45 337.06H225.506C228.535 337.06 230.871 337.7 232.514 338.98C234.157 340.239 234.978 342.169 234.978 344.772C234.978 347.631 233.954 349.711 231.906 351.012L235.33 357.252C235.863 358.255 235.565 358.873 234.434 359.108L233.026 359.428ZM225.634 341.86H223.81V347.684H225.634C227.277 347.684 228.471 347.428 229.218 346.916C229.965 346.404 230.338 345.689 230.338 344.772C230.338 343.855 229.965 343.14 229.218 342.628C228.471 342.116 227.277 341.86 225.634 341.86ZM242.81 357.86C242.81 358.713 242.383 359.14 241.53 359.14H239.45C238.597 359.14 238.17 358.713 238.17 357.86V337.7C238.17 336.847 238.597 336.42 239.45 336.42H241.53C242.383 336.42 242.81 336.847 242.81 337.7V357.86ZM256.719 357.22C256.719 358.073 256.292 358.5 255.439 358.5H253.359C252.505 358.5 252.079 358.073 252.079 357.22V341.86H246.415C245.583 341.86 245.167 341.444 245.167 340.612V338.34C245.167 337.487 245.593 337.06 246.447 337.06H262.319C263.172 337.06 263.599 337.487 263.599 338.34V340.612C263.599 341.444 263.183 341.86 262.351 341.86H256.719V357.22ZM270.591 357.86C270.591 358.713 270.165 359.14 269.311 359.14H267.231C266.378 359.14 265.951 358.713 265.951 357.86V337.7C265.951 336.847 266.378 336.42 267.231 336.42H269.311C270.165 336.42 270.591 336.847 270.591 337.7V357.86ZM279.06 357.86C279.06 358.713 278.633 359.14 277.78 359.14H275.7C274.847 359.14 274.42 358.713 274.42 357.86V338.98C274.42 338.127 274.847 337.7 275.7 337.7H277.78C278.1 337.7 278.335 337.743 278.484 337.828C278.505 337.828 278.516 337.839 278.516 337.86C278.537 337.86 278.548 337.871 278.548 337.892C278.569 337.892 278.591 337.892 278.612 337.892C278.612 337.913 278.612 337.924 278.612 337.924C278.633 337.924 278.644 337.924 278.644 337.924C278.665 337.945 278.687 337.967 278.708 337.988C278.729 337.988 278.751 338.009 278.772 338.052C278.815 338.095 278.847 338.127 278.868 338.148L278.9 338.212L287.444 350.98L288.308 338.34C288.351 337.913 288.468 337.593 288.66 337.38C288.852 337.167 289.161 337.06 289.588 337.06H291.668C292.585 337.06 293.012 337.487 292.948 338.34L291.668 357.22C291.647 357.647 291.529 357.967 291.316 358.18C291.124 358.393 290.815 358.5 290.388 358.5H288.308C287.86 358.5 287.519 358.383 287.284 358.148C287.263 358.105 287.241 358.073 287.22 358.052C287.199 358.009 287.167 357.977 287.124 357.956L279.06 345.924V357.86ZM313.771 359.14C313.771 359.951 313.333 360.356 312.459 360.356H310.379C309.547 360.356 309.131 359.919 309.131 359.044V357.668C308.597 357.945 308 358.159 307.339 358.308C306.677 358.436 306.048 358.5 305.451 358.5C303.339 358.5 301.504 358.052 299.947 357.156C298.411 356.239 297.216 354.959 296.363 353.316C295.531 351.652 295.115 349.7 295.115 347.46C295.115 345.284 295.563 343.396 296.459 341.796C297.355 340.175 298.603 338.916 300.203 338.02C301.824 337.124 303.723 336.676 305.899 336.676C307.051 336.676 308.235 336.836 309.451 337.156C310.688 337.476 311.829 337.956 312.875 338.596C313.237 338.831 313.301 339.225 313.067 339.78L312.107 342.148C311.979 342.468 311.808 342.671 311.595 342.756C311.381 342.82 311.093 342.777 310.731 342.628C310.368 342.457 309.909 342.287 309.355 342.116C308.821 341.945 308.245 341.796 307.627 341.668C307.029 341.54 306.453 341.476 305.899 341.476C304.555 341.476 303.424 341.743 302.507 342.276C301.611 342.788 300.928 343.503 300.459 344.42C299.989 345.316 299.755 346.329 299.755 347.46C299.755 348.719 299.989 349.849 300.459 350.852C300.949 351.833 301.675 352.612 302.635 353.188C303.595 353.743 304.811 354.02 306.283 354.02C306.624 354.02 307.051 353.999 307.563 353.956C308.075 353.892 308.597 353.764 309.131 353.572V350.788L305.771 350.948C305.664 350.948 305.568 350.948 305.483 350.948C305.397 350.927 305.312 350.905 305.227 350.884C304.757 350.735 304.523 350.34 304.523 349.7V349.156V347.588C304.523 346.756 304.949 346.329 305.803 346.308L312.491 345.988C312.597 345.988 312.693 345.999 312.779 346.02C312.885 346.02 312.981 346.031 313.067 346.052C313.536 346.201 313.771 346.607 313.771 347.268V348.58C313.771 348.687 313.771 348.804 313.771 348.932C313.771 349.039 313.771 349.145 313.771 349.252V359.14ZM332.818 352.9C332.818 352.367 332.584 351.887 332.114 351.46C331.666 351.033 331.08 350.628 330.354 350.244C329.629 349.86 328.861 349.455 328.05 349.028C327.261 348.601 326.504 348.111 325.778 347.556C325.053 346.98 324.456 346.308 323.986 345.54C323.538 344.772 323.314 343.865 323.314 342.82C323.314 340.985 323.912 339.503 325.106 338.372C326.301 337.241 327.965 336.676 330.098 336.676C330.717 336.676 331.357 336.74 332.018 336.868C332.701 336.996 333.352 337.177 333.97 337.412C334.61 337.625 335.165 337.892 335.634 338.212C335.997 338.447 336.21 338.681 336.274 338.916C336.36 339.129 336.317 339.417 336.146 339.78L335.25 341.732C335.101 342.031 334.92 342.223 334.706 342.308C334.514 342.372 334.226 342.329 333.842 342.18C333.245 341.903 332.605 341.668 331.922 341.476C331.261 341.263 330.653 341.156 330.098 341.156C329.501 341.156 328.989 341.263 328.562 341.476C328.157 341.668 327.954 342.009 327.954 342.5C327.954 342.991 328.178 343.449 328.626 343.876C329.096 344.281 329.693 344.687 330.418 345.092C331.144 345.476 331.901 345.892 332.69 346.34C333.501 346.767 334.269 347.268 334.994 347.844C335.72 348.399 336.306 349.049 336.754 349.796C337.224 350.543 337.458 351.417 337.458 352.42C337.458 354.425 336.818 356.004 335.538 357.156C334.28 358.308 332.53 358.884 330.29 358.884C329.501 358.884 328.68 358.799 327.826 358.628C326.973 358.457 326.141 358.212 325.33 357.892C324.541 357.572 323.826 357.188 323.186 356.74C322.845 356.484 322.621 356.26 322.514 356.068C322.429 355.855 322.482 355.556 322.674 355.172L323.602 353.252C323.773 352.932 323.954 352.729 324.146 352.644C324.338 352.537 324.626 352.591 325.01 352.804C325.949 353.316 326.909 353.711 327.89 353.988C328.893 354.265 329.757 354.404 330.482 354.404C331.165 354.404 331.72 354.308 332.146 354.116C332.594 353.903 332.818 353.497 332.818 352.9ZM354.542 358.788C354.179 358.852 353.902 358.863 353.71 358.82C353.518 358.777 353.336 358.649 353.166 358.436C353.016 358.223 352.803 357.913 352.526 357.508L347.15 349.476L344.654 351.94V357.22C344.654 358.073 344.227 358.5 343.374 358.5H341.294C340.44 358.5 340.014 358.073 340.014 357.22V338.98C340.014 338.127 340.44 337.7 341.294 337.7H343.374C344.227 337.7 344.654 338.127 344.654 338.98V345.636L353.166 337.22C353.443 336.943 353.731 336.783 354.03 336.74C354.328 336.676 354.648 336.793 354.99 337.092L356.398 338.372C356.718 338.649 356.899 338.948 356.942 339.268C357.006 339.567 356.888 339.865 356.59 340.164L350.35 346.34C350.392 346.425 350.456 346.532 350.542 346.66C350.627 346.767 350.712 346.895 350.798 347.044L357.006 356.612C357.347 357.124 357.432 357.529 357.262 357.828C357.091 358.127 356.707 358.34 356.11 358.468L354.542 358.788ZM364.404 357.86C364.404 358.713 363.977 359.14 363.124 359.14H361.044C360.19 359.14 359.764 358.713 359.764 357.86V337.7C359.764 336.847 360.19 336.42 361.044 336.42H363.124C363.977 336.42 364.404 336.847 364.404 337.7V357.86ZM380.265 358.468L369.513 357.86C368.659 357.86 368.233 357.444 368.233 356.612V338.34C368.233 337.487 368.659 337.06 369.513 337.06H371.593C372.446 337.06 372.873 337.487 372.873 338.34V353.572L380.233 353.988C380.659 354.009 380.979 354.127 381.193 354.34C381.406 354.532 381.513 354.841 381.513 355.268V357.22C381.513 358.073 381.097 358.489 380.265 358.468ZM395.921 358.468L385.169 357.86C384.315 357.86 383.889 357.444 383.889 356.612V338.34C383.889 337.487 384.315 337.06 385.169 337.06H387.249C388.102 337.06 388.529 337.487 388.529 338.34V353.572L395.889 353.988C396.315 354.009 396.635 354.127 396.849 354.34C397.062 354.532 397.169 354.841 397.169 355.268V357.22C397.169 358.073 396.753 358.489 395.921 358.468ZM408.537 352.9C408.537 352.367 408.302 351.887 407.833 351.46C407.385 351.033 406.798 350.628 406.073 350.244C405.348 349.86 404.58 349.455 403.769 349.028C402.98 348.601 402.222 348.111 401.497 347.556C400.772 346.98 400.174 346.308 399.705 345.54C399.257 344.772 399.033 343.865 399.033 342.82C399.033 340.985 399.63 339.503 400.825 338.372C402.02 337.241 403.684 336.676 405.817 336.676C406.436 336.676 407.076 336.74 407.737 336.868C408.42 336.996 409.07 337.177 409.689 337.412C410.329 337.625 410.884 337.892 411.353 338.212C411.716 338.447 411.929 338.681 411.993 338.916C412.078 339.129 412.036 339.417 411.865 339.78L410.969 341.732C410.82 342.031 410.638 342.223 410.425 342.308C410.233 342.372 409.945 342.329 409.561 342.18C408.964 341.903 408.324 341.668 407.641 341.476C406.98 341.263 406.372 341.156 405.817 341.156C405.22 341.156 404.708 341.263 404.281 341.476C403.876 341.668 403.673 342.009 403.673 342.5C403.673 342.991 403.897 343.449 404.345 343.876C404.814 344.281 405.412 344.687 406.137 345.092C406.862 345.476 407.62 345.892 408.409 346.34C409.22 346.767 409.988 347.268 410.713 347.844C411.438 348.399 412.025 349.049 412.473 349.796C412.942 350.543 413.177 351.417 413.177 352.42C413.177 354.425 412.537 356.004 411.257 357.156C409.998 358.308 408.249 358.884 406.009 358.884C405.22 358.884 404.398 358.799 403.545 358.628C402.692 358.457 401.86 358.212 401.049 357.892C400.26 357.572 399.545 357.188 398.905 356.74C398.564 356.484 398.34 356.26 398.233 356.068C398.148 355.855 398.201 355.556 398.393 355.172L399.321 353.252C399.492 352.932 399.673 352.729 399.865 352.644C400.057 352.537 400.345 352.591 400.729 352.804C401.668 353.316 402.628 353.711 403.609 353.988C404.612 354.265 405.476 354.404 406.201 354.404C406.884 354.404 407.438 354.308 407.865 354.116C408.313 353.903 408.537 353.497 408.537 352.9Z" fill="#FF6835"/>
</g>
<path d="M131 284H444V392H131C118.297 392 108 381.703 108 369V307C108 294.297 118.297 284 131 284Z" stroke="white" stroke-width="2"/>
</g>
<g filter="url(#filter1_d_332_809)">
<g clip-path="url(#clip2_332_809)">
<path d="M56 217C56 203.745 66.7452 193 80 193H394V304H80C66.7452 304 56 293.255 56 280V217Z" fill="#FCFCFC"/>
<path d="M122.552 247.509C123.249 247.986 123.249 249.014 122.552 249.491L115.557 254.281C115.133 254.572 114.941 255.1 115.079 255.595L117.703 265.001C117.954 265.904 117.121 266.734 116.219 266.48L106.803 263.824C106.381 263.705 105.928 263.825 105.621 264.137L100.803 269.025C100.333 269.502 99.5627 269.502 99.0922 269.025L94.2746 264.137C93.9672 263.825 93.5144 263.705 93.0928 263.824L83.6764 266.48C82.7743 266.734 81.9412 265.904 82.1931 265.001L84.8181 255.591C84.9556 255.098 84.7657 254.572 84.345 254.28L77.4257 249.488C76.736 249.01 76.736 247.99 77.4257 247.512L84.3443 242.72C84.7654 242.428 84.9552 241.902 84.8172 241.409L82.1804 231.987C81.9276 231.084 82.7617 230.252 83.6645 230.508L93.0923 233.175C93.5141 233.295 93.9674 233.175 94.2751 232.863L99.0922 227.975C99.5627 227.498 100.333 227.498 100.803 227.975L105.621 232.863C105.928 233.175 106.381 233.295 106.803 233.175L116.231 230.508C117.134 230.252 117.968 231.084 117.715 231.987L115.08 241.404C114.941 241.899 115.133 242.428 115.558 242.719L122.552 247.509Z" fill="#69B06C"/>
<mask id="mask2_332_809" style="mask-type:alpha" maskUnits="userSpaceOnUse" x="89" y="241" width="10" height="13">
<ellipse cx="94.021" cy="247.437" rx="4.44288" ry="5.62765" fill="white"/>
</mask>
<g mask="url(#mask2_332_809)">
<rect x="86.9766" y="241.664" width="14.0879" height="11.5327" fill="white"/>
<rect x="92.2539" y="244.464" width="5.68689" height="6.16362" rx="2.84344" fill="black"/>
</g>
<path fill-rule="evenodd" clip-rule="evenodd" d="M107.232 249.817C107.232 249.817 107.232 249.817 107.232 249.817C107.411 250.056 107.363 250.394 107.124 250.573C106.885 250.753 106.546 250.704 106.367 250.465L106.8 250.141C106.367 250.465 106.367 250.465 106.367 250.465L106.366 250.463L106.362 250.459L106.35 250.442C106.34 250.428 106.324 250.407 106.305 250.381C106.266 250.328 106.212 250.253 106.146 250.16C106.015 249.976 105.84 249.721 105.664 249.445C105.489 249.171 105.307 248.866 105.167 248.581C105.096 248.438 105.033 248.292 104.985 248.152C104.94 248.018 104.898 247.856 104.898 247.692C104.898 247.53 104.939 247.366 104.982 247.23C105.028 247.085 105.09 246.931 105.158 246.778C105.296 246.471 105.475 246.134 105.649 245.827C105.824 245.518 105.998 245.231 106.128 245.021C106.193 244.916 106.247 244.83 106.286 244.77C106.305 244.74 106.32 244.717 106.33 244.701L106.342 244.682L106.347 244.675C106.347 244.675 106.347 244.675 106.8 244.97L106.347 244.675C106.51 244.425 106.845 244.354 107.095 244.518C107.345 244.681 107.416 245.016 107.253 245.266L107.249 245.271L107.239 245.287C107.229 245.302 107.215 245.324 107.197 245.352C107.161 245.409 107.109 245.491 107.046 245.591C106.921 245.793 106.755 246.067 106.59 246.359C106.423 246.653 106.263 246.957 106.145 247.22C106.086 247.351 106.042 247.464 106.013 247.555C105.985 247.643 105.981 247.685 105.98 247.691C105.98 247.691 105.98 247.691 105.98 247.691C105.98 247.691 105.98 247.692 105.98 247.692C105.981 247.699 105.986 247.735 106.01 247.807C106.037 247.887 106.079 247.987 106.137 248.104C106.252 248.338 106.41 248.605 106.575 248.864C106.739 249.121 106.904 249.36 107.028 249.535C107.09 249.623 107.142 249.694 107.178 249.743C107.195 249.767 107.209 249.786 107.219 249.799L107.229 249.813L107.232 249.817Z" fill="#1B1B1B"/>
<path d="M95.2852 256.413C96.3424 258 99.3362 260.221 102.854 256.413M102.433 254.942C102.398 255.818 103.19 257.486 104.536 257.149" stroke="black" stroke-width="0.901021" stroke-linecap="round"/>
<path d="M153.776 260.928C153.413 261.013 153.125 261.035 152.912 260.992C152.72 260.971 152.539 260.853 152.368 260.64C152.219 260.427 152.016 260.096 151.76 259.648L148.4 253.856C148.059 253.899 147.707 253.931 147.344 253.952C147.003 253.973 146.64 253.984 146.256 253.984H144.56V258.72C144.56 259.573 144.133 260 143.28 260H141.2C140.347 260 139.92 259.573 139.92 258.72V239.84C139.92 238.987 140.347 238.56 141.2 238.56H146.256C149.285 238.56 151.621 239.2 153.264 240.48C154.907 241.739 155.728 243.669 155.728 246.272C155.728 249.131 154.704 251.211 152.656 252.512L156.08 258.752C156.613 259.755 156.315 260.373 155.184 260.608L153.776 260.928ZM146.384 243.36H144.56V249.184H146.384C148.027 249.184 149.221 248.928 149.968 248.416C150.715 247.904 151.088 247.189 151.088 246.272C151.088 245.355 150.715 244.64 149.968 244.128C149.221 243.616 148.027 243.36 146.384 243.36ZM159.88 260C159.005 260 158.579 259.573 158.6 258.72L159.24 239.84C159.261 238.987 159.688 238.56 160.52 238.56H171.56C172.413 238.56 172.84 238.987 172.84 239.84V241.792C172.84 242.624 172.424 243.04 171.592 243.04H163.624L163.464 247.136L170.28 246.688C171.133 246.624 171.56 247.051 171.56 247.968V249.92C171.56 250.688 171.144 251.104 170.312 251.168L163.336 251.648L163.176 255.52H171.56C172.413 255.52 172.84 255.947 172.84 256.8V258.752C172.84 259.584 172.424 260 171.592 260H159.88ZM186.836 251.936L183.7 245.088L181.588 251.936H186.836ZM179.22 259.648C179.006 260.309 178.75 260.715 178.452 260.864C178.174 261.013 177.758 261.035 177.204 260.928L175.316 260.544C174.718 260.416 174.366 260.224 174.26 259.968C174.174 259.691 174.228 259.264 174.42 258.688L180.596 239.84C180.788 239.285 180.99 238.933 181.204 238.784C181.417 238.635 181.726 238.56 182.132 238.56H184.884C185.161 238.56 185.353 238.592 185.46 238.656C185.566 238.699 185.652 238.816 185.716 239.008C185.801 239.179 185.929 239.456 186.1 239.84L194.868 258.112C195.145 258.688 195.209 259.115 195.06 259.392C194.932 259.669 194.569 259.861 193.972 259.968L192.244 260.288C191.646 260.395 191.209 260.373 190.932 260.224C190.676 260.096 190.388 259.691 190.068 259.008L188.66 255.936H180.372L179.22 259.648ZM198.669 260C198.242 260.043 197.922 259.947 197.709 259.712C197.495 259.477 197.389 259.147 197.389 258.72V239.84C197.389 238.987 197.815 238.56 198.669 238.56H203.725C205.965 238.56 207.97 238.901 209.741 239.584C211.511 240.245 212.898 241.323 213.901 242.816C214.925 244.309 215.437 246.304 215.437 248.8C215.437 250.549 215.117 252.064 214.477 253.344C213.858 254.624 213.005 255.691 211.917 256.544C210.829 257.397 209.57 258.069 208.141 258.56C206.733 259.029 205.239 259.339 203.661 259.488L200.845 259.776H200.749L198.669 260ZM203.853 243.36H202.029V254.848L203.789 254.688C205.026 254.56 206.178 254.272 207.245 253.824C208.311 253.355 209.165 252.704 209.805 251.872C210.466 251.04 210.797 250.016 210.797 248.8C210.797 247.392 210.466 246.293 209.805 245.504C209.165 244.715 208.311 244.16 207.245 243.84C206.199 243.52 205.069 243.36 203.853 243.36ZM222.841 259.36C222.841 260.213 222.415 260.64 221.561 260.64H219.481C218.628 260.64 218.201 260.213 218.201 259.36V239.2C218.201 238.347 218.628 237.92 219.481 237.92H221.561C222.415 237.92 222.841 238.347 222.841 239.2V259.36ZM231.31 259.36C231.31 260.213 230.883 260.64 230.03 260.64H227.95C227.097 260.64 226.67 260.213 226.67 259.36V240.48C226.67 239.627 227.097 239.2 227.95 239.2H230.03C230.35 239.2 230.585 239.243 230.734 239.328C230.755 239.328 230.766 239.339 230.766 239.36C230.787 239.36 230.798 239.371 230.798 239.392C230.819 239.392 230.841 239.392 230.862 239.392C230.862 239.413 230.862 239.424 230.862 239.424C230.883 239.424 230.894 239.424 230.894 239.424C230.915 239.445 230.937 239.467 230.958 239.488C230.979 239.488 231.001 239.509 231.022 239.552C231.065 239.595 231.097 239.627 231.118 239.648L231.15 239.712L239.694 252.48L240.558 239.84C240.601 239.413 240.718 239.093 240.91 238.88C241.102 238.667 241.411 238.56 241.838 238.56H243.918C244.835 238.56 245.262 238.987 245.198 239.84L243.918 258.72C243.897 259.147 243.779 259.467 243.566 259.68C243.374 259.893 243.065 260 242.638 260H240.558C240.11 260 239.769 259.883 239.534 259.648C239.513 259.605 239.491 259.573 239.47 259.552C239.449 259.509 239.417 259.477 239.374 259.456L231.31 247.424V259.36ZM266.021 260.64C266.021 261.451 265.583 261.856 264.709 261.856H262.629C261.797 261.856 261.381 261.419 261.381 260.544V259.168C260.847 259.445 260.25 259.659 259.589 259.808C258.927 259.936 258.298 260 257.701 260C255.589 260 253.754 259.552 252.197 258.656C250.661 257.739 249.466 256.459 248.613 254.816C247.781 253.152 247.365 251.2 247.365 248.96C247.365 246.784 247.813 244.896 248.709 243.296C249.605 241.675 250.853 240.416 252.453 239.52C254.074 238.624 255.973 238.176 258.149 238.176C259.301 238.176 260.485 238.336 261.701 238.656C262.938 238.976 264.079 239.456 265.125 240.096C265.487 240.331 265.551 240.725 265.317 241.28L264.357 243.648C264.229 243.968 264.058 244.171 263.845 244.256C263.631 244.32 263.343 244.277 262.981 244.128C262.618 243.957 262.159 243.787 261.605 243.616C261.071 243.445 260.495 243.296 259.877 243.168C259.279 243.04 258.703 242.976 258.149 242.976C256.805 242.976 255.674 243.243 254.757 243.776C253.861 244.288 253.178 245.003 252.709 245.92C252.239 246.816 252.005 247.829 252.005 248.96C252.005 250.219 252.239 251.349 252.709 252.352C253.199 253.333 253.925 254.112 254.885 254.688C255.845 255.243 257.061 255.52 258.533 255.52C258.874 255.52 259.301 255.499 259.813 255.456C260.325 255.392 260.847 255.264 261.381 255.072V252.288L258.021 252.448C257.914 252.448 257.818 252.448 257.733 252.448C257.647 252.427 257.562 252.405 257.477 252.384C257.007 252.235 256.773 251.84 256.773 251.2V250.656V249.088C256.773 248.256 257.199 247.829 258.053 247.808L264.741 247.488C264.847 247.488 264.943 247.499 265.029 247.52C265.135 247.52 265.231 247.531 265.317 247.552C265.786 247.701 266.021 248.107 266.021 248.768V250.08C266.021 250.187 266.021 250.304 266.021 250.432C266.021 250.539 266.021 250.645 266.021 250.752V260.64ZM285.068 254.4C285.068 253.867 284.834 253.387 284.364 252.96C283.916 252.533 283.33 252.128 282.604 251.744C281.879 251.36 281.111 250.955 280.3 250.528C279.511 250.101 278.754 249.611 278.028 249.056C277.303 248.48 276.706 247.808 276.236 247.04C275.788 246.272 275.564 245.365 275.564 244.32C275.564 242.485 276.162 241.003 277.356 239.872C278.551 238.741 280.215 238.176 282.348 238.176C282.967 238.176 283.607 238.24 284.268 238.368C284.951 238.496 285.602 238.677 286.22 238.912C286.86 239.125 287.415 239.392 287.884 239.712C288.247 239.947 288.46 240.181 288.524 240.416C288.61 240.629 288.567 240.917 288.396 241.28L287.5 243.232C287.351 243.531 287.17 243.723 286.956 243.808C286.764 243.872 286.476 243.829 286.092 243.68C285.495 243.403 284.855 243.168 284.172 242.976C283.511 242.763 282.903 242.656 282.348 242.656C281.751 242.656 281.239 242.763 280.812 242.976C280.407 243.168 280.204 243.509 280.204 244C280.204 244.491 280.428 244.949 280.876 245.376C281.346 245.781 281.943 246.187 282.668 246.592C283.394 246.976 284.151 247.392 284.94 247.84C285.751 248.267 286.519 248.768 287.244 249.344C287.97 249.899 288.556 250.549 289.004 251.296C289.474 252.043 289.708 252.917 289.708 253.92C289.708 255.925 289.068 257.504 287.788 258.656C286.53 259.808 284.78 260.384 282.54 260.384C281.751 260.384 280.93 260.299 280.076 260.128C279.223 259.957 278.391 259.712 277.58 259.392C276.791 259.072 276.076 258.688 275.436 258.24C275.095 257.984 274.871 257.76 274.764 257.568C274.679 257.355 274.732 257.056 274.924 256.672L275.852 254.752C276.023 254.432 276.204 254.229 276.396 254.144C276.588 254.037 276.876 254.091 277.26 254.304C278.199 254.816 279.159 255.211 280.14 255.488C281.143 255.765 282.007 255.904 282.732 255.904C283.415 255.904 283.97 255.808 284.396 255.616C284.844 255.403 285.068 254.997 285.068 254.4ZM306.792 260.288C306.429 260.352 306.152 260.363 305.96 260.32C305.768 260.277 305.586 260.149 305.416 259.936C305.266 259.723 305.053 259.413 304.776 259.008L299.4 250.976L296.904 253.44V258.72C296.904 259.573 296.477 260 295.624 260H293.544C292.69 260 292.264 259.573 292.264 258.72V240.48C292.264 239.627 292.69 239.2 293.544 239.2H295.624C296.477 239.2 296.904 239.627 296.904 240.48V247.136L305.416 238.72C305.693 238.443 305.981 238.283 306.28 238.24C306.578 238.176 306.898 238.293 307.24 238.592L308.648 239.872C308.968 240.149 309.149 240.448 309.192 240.768C309.256 241.067 309.138 241.365 308.84 241.664L302.6 247.84C302.642 247.925 302.706 248.032 302.792 248.16C302.877 248.267 302.962 248.395 303.048 248.544L309.256 258.112C309.597 258.624 309.682 259.029 309.512 259.328C309.341 259.627 308.957 259.84 308.36 259.968L306.792 260.288ZM316.654 259.36C316.654 260.213 316.227 260.64 315.374 260.64H313.294C312.44 260.64 312.014 260.213 312.014 259.36V239.2C312.014 238.347 312.44 237.92 313.294 237.92H315.374C316.227 237.92 316.654 238.347 316.654 239.2V259.36ZM332.515 259.968L321.763 259.36C320.909 259.36 320.483 258.944 320.483 258.112V239.84C320.483 238.987 320.909 238.56 321.763 238.56H323.843C324.696 238.56 325.123 238.987 325.123 239.84V255.072L332.483 255.488C332.909 255.509 333.229 255.627 333.443 255.84C333.656 256.032 333.763 256.341 333.763 256.768V258.72C333.763 259.573 333.347 259.989 332.515 259.968ZM348.171 259.968L337.419 259.36C336.565 259.36 336.139 258.944 336.139 258.112V239.84C336.139 238.987 336.565 238.56 337.419 238.56H339.499C340.352 238.56 340.779 238.987 340.779 239.84V255.072L348.139 255.488C348.565 255.509 348.885 255.627 349.099 255.84C349.312 256.032 349.419 256.341 349.419 256.768V258.72C349.419 259.573 349.003 259.989 348.171 259.968ZM360.787 254.4C360.787 253.867 360.552 253.387 360.083 252.96C359.635 252.533 359.048 252.128 358.323 251.744C357.598 251.36 356.83 250.955 356.019 250.528C355.23 250.101 354.472 249.611 353.747 249.056C353.022 248.48 352.424 247.808 351.955 247.04C351.507 246.272 351.283 245.365 351.283 244.32C351.283 242.485 351.88 241.003 353.075 239.872C354.27 238.741 355.934 238.176 358.067 238.176C358.686 238.176 359.326 238.24 359.987 238.368C360.67 238.496 361.32 238.677 361.939 238.912C362.579 239.125 363.134 239.392 363.603 239.712C363.966 239.947 364.179 240.181 364.243 240.416C364.328 240.629 364.286 240.917 364.115 241.28L363.219 243.232C363.07 243.531 362.888 243.723 362.675 243.808C362.483 243.872 362.195 243.829 361.811 243.68C361.214 243.403 360.574 243.168 359.891 242.976C359.23 242.763 358.622 242.656 358.067 242.656C357.47 242.656 356.958 242.763 356.531 242.976C356.126 243.168 355.923 243.509 355.923 244C355.923 244.491 356.147 244.949 356.595 245.376C357.064 245.781 357.662 246.187 358.387 246.592C359.112 246.976 359.87 247.392 360.659 247.84C361.47 248.267 362.238 248.768 362.963 249.344C363.688 249.899 364.275 250.549 364.723 251.296C365.192 252.043 365.427 252.917 365.427 253.92C365.427 255.925 364.787 257.504 363.507 258.656C362.248 259.808 360.499 260.384 358.259 260.384C357.47 260.384 356.648 260.299 355.795 260.128C354.942 259.957 354.11 259.712 353.299 259.392C352.51 259.072 351.795 258.688 351.155 258.24C350.814 257.984 350.59 257.76 350.483 257.568C350.398 257.355 350.451 257.056 350.643 256.672L351.571 254.752C351.742 254.432 351.923 254.229 352.115 254.144C352.307 254.037 352.595 254.091 352.979 254.304C353.918 254.816 354.878 255.211 355.859 255.488C356.862 255.765 357.726 255.904 358.451 255.904C359.134 255.904 359.688 255.808 360.115 255.616C360.563 255.403 360.787 254.997 360.787 254.4Z" fill="#69B06C"/>
</g>
<path d="M80 194H393V303H80C67.2975 303 57 292.703 57 280V217C57 204.297 67.2975 194 80 194Z" stroke="white" stroke-width="2"/>
</g>
<g filter="url(#filter2_d_332_809)">
<path d="M76 40C76 26.7452 86.7452 16 100 16H413V126H100C86.7452 126 76 115.255 76 102V40Z" fill="#FCFCFC"/>
<path d="M100 17H412V125H100C87.2975 125 77 114.703 77 102V40C77 27.2974 87.2975 17 100 17Z" stroke="white" stroke-width="2"/>
</g>
<g filter="url(#filter3_d_332_809)">
<path d="M27 121C27 107.745 37.7452 97 51 97H365V208H51C37.7452 208 27 197.255 27 184V121Z" fill="#FCFCFC"/>
<path d="M51 98H364V207H51C38.2975 207 28 196.703 28 184V121C28 108.297 38.2975 98 51 98Z" stroke="white" stroke-width="2"/>
</g>
<path d="M85.0891 172.589L91.3242 166.354L57.3831 132.413L51.148 138.648L85.0891 172.589Z" fill="#C383D9"/>
<path d="M51.1477 166.354L57.3828 172.589L91.3239 138.648L85.0888 132.413L51.1477 166.354Z" fill="#C383D9"/>
<path d="M95.2383 156.909V148.091H47.2383V156.909H95.2383Z" fill="#C383D9"/>
<path d="M66.8268 176.5H75.6445V128.5H66.8268V176.5Z" fill="#C383D9"/>
<path d="M82.3511 152.5L79.0989 155.805V160.481H74.4952L71.24 163.783L67.9849 160.481H63.3812V155.805L60.1289 152.5L63.3812 149.194V144.519H67.9849L71.24 141.216L74.4952 144.519H79.0989V149.194L82.3511 152.5Z" fill="#EFD9F9"/>
<mask id="mask3_332_809" style="mask-type:alpha" maskUnits="userSpaceOnUse" x="65" y="148" width="6" height="6">
<ellipse cx="68.151" cy="150.958" rx="2.24476" ry="2.8284" fill="white"/>
</mask>
<g mask="url(#mask3_332_809)">
<rect x="64.6055" y="147.969" width="7.11791" height="5.9601" fill="white"/>
<rect x="66.0625" y="148.83" width="2.44444" height="3.09777" rx="1.22222" fill="black"/>
</g>
<mask id="mask4_332_809" style="mask-type:alpha" maskUnits="userSpaceOnUse" x="72" y="148" width="5" height="6">
<ellipse cx="74.3698" cy="150.958" rx="2.24476" ry="2.8284" fill="white"/>
</mask>
<g mask="url(#mask4_332_809)">
<rect x="70.8242" y="147.969" width="7.11791" height="5.9601" fill="white"/>
<path d="M72.2812 150.053C72.2812 149.378 72.8285 148.83 73.5035 148.83V148.83C74.1785 148.83 74.7257 149.378 74.7257 150.053V150.706C74.7257 151.381 74.1785 151.928 73.5035 151.928V151.928C72.8285 151.928 72.2812 151.381 72.2812 150.706V150.053Z" fill="black"/>
</g>
<path d="M69.168 155.829C69.6767 156.593 71.1174 157.661 72.8102 155.829M72.6078 155.121C72.591 155.542 72.972 156.345 73.6195 156.183" stroke="black" stroke-width="0.578126" stroke-linecap="round"/>
<path d="M123.19 163.968L112.438 163.36C111.585 163.36 111.158 162.944 111.158 162.112V143.84C111.158 142.987 111.585 142.56 112.438 142.56H114.518C115.372 142.56 115.798 142.987 115.798 143.84V159.072L123.158 159.488C123.585 159.509 123.905 159.627 124.118 159.84C124.332 160.032 124.438 160.341 124.438 160.768V162.72C124.438 163.573 124.022 163.989 123.19 163.968ZM131.455 163.36C131.455 164.213 131.028 164.64 130.175 164.64H128.095C127.241 164.64 126.815 164.213 126.815 163.36V143.2C126.815 142.347 127.241 141.92 128.095 141.92H130.175C131.028 141.92 131.455 142.347 131.455 143.2V163.36ZM144.275 158.4C144.275 157.867 144.041 157.387 143.571 156.96C143.123 156.533 142.537 156.128 141.811 155.744C141.086 155.36 140.318 154.955 139.507 154.528C138.718 154.101 137.961 153.611 137.235 153.056C136.51 152.48 135.913 151.808 135.443 151.04C134.995 150.272 134.771 149.365 134.771 148.32C134.771 146.485 135.369 145.003 136.563 143.872C137.758 142.741 139.422 142.176 141.555 142.176C142.174 142.176 142.814 142.24 143.475 142.368C144.158 142.496 144.809 142.677 145.427 142.912C146.067 143.125 146.622 143.392 147.091 143.712C147.454 143.947 147.667 144.181 147.731 144.416C147.817 144.629 147.774 144.917 147.603 145.28L146.707 147.232C146.558 147.531 146.377 147.723 146.163 147.808C145.971 147.872 145.683 147.829 145.299 147.68C144.702 147.403 144.062 147.168 143.379 146.976C142.718 146.763 142.11 146.656 141.555 146.656C140.958 146.656 140.446 146.763 140.019 146.976C139.614 147.168 139.411 147.509 139.411 148C139.411 148.491 139.635 148.949 140.083 149.376C140.553 149.781 141.15 150.187 141.875 150.592C142.601 150.976 143.358 151.392 144.147 151.84C144.958 152.267 145.726 152.768 146.451 153.344C147.177 153.899 147.763 154.549 148.211 155.296C148.681 156.043 148.915 156.917 148.915 157.92C148.915 159.925 148.275 161.504 146.995 162.656C145.737 163.808 143.987 164.384 141.747 164.384C140.958 164.384 140.137 164.299 139.283 164.128C138.43 163.957 137.598 163.712 136.787 163.392C135.998 163.072 135.283 162.688 134.643 162.24C134.302 161.984 134.078 161.76 133.971 161.568C133.886 161.355 133.939 161.056 134.131 160.672L135.059 158.752C135.23 158.432 135.411 158.229 135.603 158.144C135.795 158.037 136.083 158.091 136.467 158.304C137.406 158.816 138.366 159.211 139.347 159.488C140.35 159.765 141.214 159.904 141.939 159.904C142.622 159.904 143.177 159.808 143.603 159.616C144.051 159.403 144.275 158.997 144.275 158.4ZM161.551 162.72C161.551 163.573 161.124 164 160.271 164H158.191C157.337 164 156.911 163.573 156.911 162.72V147.36H151.247C150.415 147.36 149.999 146.944 149.999 146.112V143.84C149.999 142.987 150.425 142.56 151.279 142.56H167.151C168.004 142.56 168.431 142.987 168.431 143.84V146.112C168.431 146.944 168.015 147.36 167.183 147.36H161.551V162.72ZM171.743 164C170.869 164 170.442 163.573 170.463 162.72L171.103 143.84C171.125 142.987 171.551 142.56 172.383 142.56H183.423C184.277 142.56 184.703 142.987 184.703 143.84V145.792C184.703 146.624 184.287 147.04 183.455 147.04H175.487L175.327 151.136L182.143 150.688C182.997 150.624 183.423 151.051 183.423 151.968V153.92C183.423 154.688 183.007 155.104 182.175 155.168L175.199 155.648L175.039 159.52H183.423C184.277 159.52 184.703 159.947 184.703 160.8V162.752C184.703 163.584 184.287 164 183.455 164H171.743ZM192.267 163.36C192.267 164.213 191.84 164.64 190.987 164.64H188.907C188.054 164.64 187.627 164.213 187.627 163.36V144.48C187.627 143.627 188.054 143.2 188.907 143.2H190.987C191.307 143.2 191.542 143.243 191.691 143.328C191.712 143.328 191.723 143.339 191.723 143.36C191.744 143.36 191.755 143.371 191.755 143.392C191.776 143.392 191.798 143.392 191.819 143.392C191.819 143.413 191.819 143.424 191.819 143.424C191.84 143.424 191.851 143.424 191.851 143.424C191.872 143.445 191.894 143.467 191.915 143.488C191.936 143.488 191.958 143.509 191.979 143.552C192.022 143.595 192.054 143.627 192.075 143.648L192.107 143.712L200.651 156.48L201.515 143.84C201.558 143.413 201.675 143.093 201.867 142.88C202.059 142.667 202.368 142.56 202.795 142.56H204.875C205.792 142.56 206.219 142.987 206.155 143.84L204.875 162.72C204.854 163.147 204.736 163.467 204.523 163.68C204.331 163.893 204.022 164 203.595 164H201.515C201.067 164 200.726 163.883 200.491 163.648C200.47 163.605 200.448 163.573 200.427 163.552C200.406 163.509 200.374 163.477 200.331 163.456L192.267 151.424V163.36ZM213.986 163.36C213.986 164.213 213.559 164.64 212.706 164.64H210.626C209.772 164.64 209.346 164.213 209.346 163.36V143.2C209.346 142.347 209.772 141.92 210.626 141.92H212.706C213.559 141.92 213.986 142.347 213.986 143.2V163.36ZM222.455 163.36C222.455 164.213 222.028 164.64 221.175 164.64H219.095C218.241 164.64 217.815 164.213 217.815 163.36V144.48C217.815 143.627 218.241 143.2 219.095 143.2H221.175C221.495 143.2 221.729 143.243 221.879 143.328C221.9 143.328 221.911 143.339 221.911 143.36C221.932 143.36 221.943 143.371 221.943 143.392C221.964 143.392 221.985 143.392 222.007 143.392C222.007 143.413 222.007 143.424 222.007 143.424C222.028 143.424 222.039 143.424 222.039 143.424C222.06 143.445 222.081 143.467 222.103 143.488C222.124 143.488 222.145 143.509 222.167 143.552C222.209 143.595 222.241 143.627 222.263 143.648L222.295 143.712L230.839 156.48L231.703 143.84C231.745 143.413 231.863 143.093 232.055 142.88C232.247 142.667 232.556 142.56 232.983 142.56H235.063C235.98 142.56 236.407 142.987 236.343 143.84L235.063 162.72C235.041 163.147 234.924 163.467 234.711 163.68C234.519 163.893 234.209 164 233.783 164H231.703C231.255 164 230.913 163.883 230.679 163.648C230.657 163.605 230.636 163.573 230.615 163.552C230.593 163.509 230.561 163.477 230.519 163.456L222.455 151.424V163.36ZM257.165 164.64C257.165 165.451 256.728 165.856 255.853 165.856H253.773C252.941 165.856 252.525 165.419 252.525 164.544V163.168C251.992 163.445 251.395 163.659 250.733 163.808C250.072 163.936 249.443 164 248.845 164C246.733 164 244.899 163.552 243.341 162.656C241.805 161.739 240.611 160.459 239.757 158.816C238.925 157.152 238.509 155.2 238.509 152.96C238.509 150.784 238.957 148.896 239.853 147.296C240.749 145.675 241.997 144.416 243.597 143.52C245.219 142.624 247.117 142.176 249.293 142.176C250.445 142.176 251.629 142.336 252.845 142.656C254.083 142.976 255.224 143.456 256.269 144.096C256.632 144.331 256.696 144.725 256.461 145.28L255.501 147.648C255.373 147.968 255.203 148.171 254.989 148.256C254.776 148.32 254.488 148.277 254.125 148.128C253.763 147.957 253.304 147.787 252.749 147.616C252.216 147.445 251.64 147.296 251.021 147.168C250.424 147.04 249.848 146.976 249.293 146.976C247.949 146.976 246.819 147.243 245.901 147.776C245.005 148.288 244.323 149.003 243.853 149.92C243.384 150.816 243.149 151.829 243.149 152.96C243.149 154.219 243.384 155.349 243.853 156.352C244.344 157.333 245.069 158.112 246.029 158.688C246.989 159.243 248.205 159.52 249.677 159.52C250.019 159.52 250.445 159.499 250.957 159.456C251.469 159.392 251.992 159.264 252.525 159.072V156.288L249.165 156.448C249.059 156.448 248.963 156.448 248.877 156.448C248.792 156.427 248.707 156.405 248.621 156.384C248.152 156.235 247.917 155.84 247.917 155.2V154.656V153.088C247.917 152.256 248.344 151.829 249.197 151.808L255.885 151.488C255.992 151.488 256.088 151.499 256.173 151.52C256.28 151.52 256.376 151.531 256.461 151.552C256.931 151.701 257.165 152.107 257.165 152.768V154.08C257.165 154.187 257.165 154.304 257.165 154.432C257.165 154.539 257.165 154.645 257.165 154.752V164.64ZM276.213 158.4C276.213 157.867 275.978 157.387 275.509 156.96C275.061 156.533 274.474 156.128 273.749 155.744C273.023 155.36 272.255 154.955 271.445 154.528C270.655 154.101 269.898 153.611 269.173 153.056C268.447 152.48 267.85 151.808 267.381 151.04C266.933 150.272 266.709 149.365 266.709 148.32C266.709 146.485 267.306 145.003 268.501 143.872C269.695 142.741 271.359 142.176 273.493 142.176C274.111 142.176 274.751 142.24 275.413 142.368C276.095 142.496 276.746 142.677 277.365 142.912C278.005 143.125 278.559 143.392 279.029 143.712C279.391 143.947 279.605 144.181 279.669 144.416C279.754 144.629 279.711 144.917 279.541 145.28L278.645 147.232C278.495 147.531 278.314 147.723 278.101 147.808C277.909 147.872 277.621 147.829 277.237 147.68C276.639 147.403 275.999 147.168 275.317 146.976C274.655 146.763 274.047 146.656 273.493 146.656C272.895 146.656 272.383 146.763 271.957 146.976C271.551 147.168 271.349 147.509 271.349 148C271.349 148.491 271.573 148.949 272.021 149.376C272.49 149.781 273.087 150.187 273.813 150.592C274.538 150.976 275.295 151.392 276.085 151.84C276.895 152.267 277.663 152.768 278.389 153.344C279.114 153.899 279.701 154.549 280.149 155.296C280.618 156.043 280.853 156.917 280.853 157.92C280.853 159.925 280.213 161.504 278.933 162.656C277.674 163.808 275.925 164.384 273.685 164.384C272.895 164.384 272.074 164.299 271.221 164.128C270.367 163.957 269.535 163.712 268.725 163.392C267.935 163.072 267.221 162.688 266.581 162.24C266.239 161.984 266.015 161.76 265.909 161.568C265.823 161.355 265.877 161.056 266.069 160.672L266.997 158.752C267.167 158.432 267.349 158.229 267.541 158.144C267.733 158.037 268.021 158.091 268.405 158.304C269.343 158.816 270.303 159.211 271.285 159.488C272.287 159.765 273.151 159.904 273.877 159.904C274.559 159.904 275.114 159.808 275.541 159.616C275.989 159.403 276.213 158.997 276.213 158.4ZM297.936 164.288C297.574 164.352 297.296 164.363 297.104 164.32C296.912 164.277 296.731 164.149 296.56 163.936C296.411 163.723 296.198 163.413 295.92 163.008L290.544 154.976L288.048 157.44V162.72C288.048 163.573 287.622 164 286.768 164H284.688C283.835 164 283.408 163.573 283.408 162.72V144.48C283.408 143.627 283.835 143.2 284.688 143.2H286.768C287.622 143.2 288.048 143.627 288.048 144.48V151.136L296.56 142.72C296.838 142.443 297.126 142.283 297.424 142.24C297.723 142.176 298.043 142.293 298.384 142.592L299.792 143.872C300.112 144.149 300.294 144.448 300.336 144.768C300.4 145.067 300.283 145.365 299.984 145.664L293.744 151.84C293.787 151.925 293.851 152.032 293.936 152.16C294.022 152.267 294.107 152.395 294.192 152.544L300.4 162.112C300.742 162.624 300.827 163.029 300.656 163.328C300.486 163.627 300.102 163.84 299.504 163.968L297.936 164.288ZM307.798 163.36C307.798 164.213 307.372 164.64 306.518 164.64H304.438C303.585 164.64 303.158 164.213 303.158 163.36V143.2C303.158 142.347 303.585 141.92 304.438 141.92H306.518C307.372 141.92 307.798 142.347 307.798 143.2V163.36ZM323.659 163.968L312.907 163.36C312.054 163.36 311.627 162.944 311.627 162.112V143.84C311.627 142.987 312.054 142.56 312.907 142.56H314.987C315.84 142.56 316.267 142.987 316.267 143.84V159.072L323.627 159.488C324.054 159.509 324.374 159.627 324.587 159.84C324.8 160.032 324.907 160.341 324.907 160.768V162.72C324.907 163.573 324.491 163.989 323.659 163.968ZM339.315 163.968L328.563 163.36C327.71 163.36 327.283 162.944 327.283 162.112V143.84C327.283 142.987 327.71 142.56 328.563 142.56H330.643C331.497 142.56 331.923 142.987 331.923 143.84V159.072L339.283 159.488C339.71 159.509 340.03 159.627 340.243 159.84C340.457 160.032 340.563 160.341 340.563 160.768V162.72C340.563 163.573 340.147 163.989 339.315 163.968ZM351.932 158.4C351.932 157.867 351.697 157.387 351.228 156.96C350.78 156.533 350.193 156.128 349.468 155.744C348.742 155.36 347.974 154.955 347.164 154.528C346.374 154.101 345.617 153.611 344.892 153.056C344.166 152.48 343.569 151.808 343.1 151.04C342.652 150.272 342.428 149.365 342.428 148.32C342.428 146.485 343.025 145.003 344.22 143.872C345.414 142.741 347.078 142.176 349.212 142.176C349.83 142.176 350.47 142.24 351.132 142.368C351.814 142.496 352.465 142.677 353.084 142.912C353.724 143.125 354.278 143.392 354.748 143.712C355.11 143.947 355.324 144.181 355.388 144.416C355.473 144.629 355.43 144.917 355.26 145.28L354.364 147.232C354.214 147.531 354.033 147.723 353.82 147.808C353.628 147.872 353.34 147.829 352.956 147.68C352.358 147.403 351.718 147.168 351.036 146.976C350.374 146.763 349.766 146.656 349.212 146.656C348.614 146.656 348.102 146.763 347.676 146.976C347.27 147.168 347.068 147.509 347.068 148C347.068 148.491 347.292 148.949 347.74 149.376C348.209 149.781 348.806 150.187 349.532 150.592C350.257 150.976 351.014 151.392 351.804 151.84C352.614 152.267 353.382 152.768 354.108 153.344C354.833 153.899 355.42 154.549 355.868 155.296C356.337 156.043 356.572 156.917 356.572 157.92C356.572 159.925 355.932 161.504 354.652 162.656C353.393 163.808 351.644 164.384 349.404 164.384C348.614 164.384 347.793 164.299 346.94 164.128C346.086 163.957 345.254 163.712 344.444 163.392C343.654 163.072 342.94 162.688 342.3 162.24C341.958 161.984 341.734 161.76 341.628 161.568C341.542 161.355 341.596 161.056 341.788 160.672L342.716 158.752C342.886 158.432 343.068 158.229 343.26 158.144C343.452 158.037 343.74 158.091 344.124 158.304C345.062 158.816 346.022 159.211 347.004 159.488C348.006 159.765 348.87 159.904 349.596 159.904C350.278 159.904 350.833 159.808 351.26 159.616C351.708 159.403 351.932 158.997 351.932 158.4Z" fill="#C383D9"/>
<path d="M127.137 62.0257L125.535 64.0701L125.846 66.6478L123.268 66.9612L121.666 69.0056L119.619 67.4034L114.684 63.5323L116.286 61.4879L115.975 58.9102L118.552 58.5968L120.157 56.5524L122.201 58.1546L125.092 60.4213L127.137 62.0257Z" fill="#BCBEC0"/>
<path d="M139.94 56.006L131.005 57.0882L136.558 50.0039C138.069 48.0772 137.731 45.2884 135.805 43.7773C133.878 42.2662 131.089 42.604 129.578 44.5306L124.025 51.615L122.943 42.6795C122.647 40.2485 120.438 38.5152 118.007 38.8107C115.576 39.1063 113.843 41.3151 114.138 43.7462L115.22 52.6816L108.136 47.1284C106.21 45.6173 103.421 45.9551 101.91 47.8817C100.398 49.8083 100.736 52.5972 102.663 54.1083L109.747 59.6615L100.812 60.7437C98.3807 61.0393 96.6474 63.2481 96.943 65.6792C97.2385 68.1103 99.4474 69.8436 101.878 69.548L110.814 68.4658L105.261 75.5502C104.505 76.5146 104.212 77.6923 104.347 78.819C104.483 79.9456 105.05 81.0212 106.014 81.7767C107.941 83.2878 110.729 82.95 112.241 81.0234L117.794 73.9391L118.876 82.8745C119.023 84.09 119.649 85.1322 120.543 85.8322C121.436 86.5322 122.596 86.8922 123.811 86.7455C126.243 86.45 127.976 84.2411 127.68 81.8101L126.598 72.8746L133.682 78.4279C134.647 79.1834 135.825 79.4768 136.951 79.3412C138.078 79.2057 139.153 78.639 139.909 77.6746C141.42 75.7479 141.082 72.9591 139.156 71.448L132.071 65.8947L141.007 64.8125C142.222 64.6659 143.262 64.0392 143.964 63.1459C144.664 62.2526 145.024 61.0926 144.878 59.8771C144.582 57.446 142.373 55.7127 139.942 56.0082L139.94 56.006ZM125.534 64.0681L125.847 66.6459L123.269 66.9592L121.667 69.0036L119.623 67.4014L117.045 67.7147L116.732 65.137L114.687 63.5348L116.289 61.4904L115.976 58.9126L118.554 58.5993L120.156 56.5549L122.2 58.1571L124.778 57.8438L125.091 60.4215L127.136 62.0237L125.534 64.0681Z" fill="#FFC33F"/>
<path d="M127.137 62.0257L125.535 64.0701L123.268 66.9612L121.666 69.0056L119.619 67.4034L117.041 67.7145L116.728 65.1367L114.684 63.5323L116.286 61.4879L118.552 58.5968L120.157 56.5524L122.201 58.1546L124.779 57.8435L125.092 60.4213L127.137 62.0257Z" fill="#BCBEC0"/>
<path d="M127.137 62.0257L125.535 64.0701L125.846 66.6479L117.041 67.7145L116.728 65.1368L114.684 63.5324L116.286 61.488L115.975 58.9102L124.779 57.8436L125.092 60.4213L127.137 62.0257Z" fill="#BCBEC0"/>
<path d="M124.777 57.844L125.844 66.6483L123.266 66.9616L121.664 69.0061L119.617 67.4039L117.039 67.715L115.973 58.9107L118.55 58.5973L120.155 56.5529L122.199 58.1551L124.777 57.844Z" fill="#BCBEC0"/>
<path d="M120.91 71.2424C125.584 71.2424 129.374 67.4528 129.374 62.7781C129.374 58.1034 125.584 54.3138 120.91 54.3138C116.235 54.3138 112.445 58.1034 112.445 62.7781C112.445 67.4528 116.235 71.2424 120.91 71.2424Z" fill="#FF6835"/>
<mask id="mask5_332_809" style="mask-type:alpha" maskUnits="userSpaceOnUse" x="115" y="58" width="6" height="7">
<ellipse cx="117.823" cy="61.2375" rx="2.24473" ry="2.82836" fill="white"/>
</mask>
<g mask="url(#mask5_332_809)">
<rect x="114.277" y="58.3032" width="7.1178" height="5.85107" fill="white"/>
<rect x="115.379" y="59.2889" width="2.87325" height="3.09772" rx="1.43663" fill="black"/>
</g>
<mask id="mask6_332_809" style="mask-type:alpha" maskUnits="userSpaceOnUse" x="121" y="58" width="6" height="7">
<ellipse cx="123.995" cy="61.2367" rx="2.24473" ry="2.82836" fill="white"/>
</mask>
<g mask="url(#mask6_332_809)">
<rect x="120.449" y="58.3021" width="7.1178" height="5.85107" fill="white"/>
<rect x="121.551" y="59.2881" width="2.87325" height="3.09772" rx="1.43663" fill="black"/>
</g>
<path d="M118.762 65.962C119.386 66.8573 121.154 68.1108 123.232 65.962" stroke="black" stroke-width="0.888875" stroke-linecap="round"/>
<path d="M169.822 68.6779C169.822 68.1446 169.587 67.6646 169.118 67.2379C168.67 66.8112 168.083 66.4059 167.358 66.0219C166.633 65.6379 165.865 65.2326 165.054 64.8059C164.265 64.3792 163.507 63.8886 162.782 63.3339C162.057 62.7579 161.459 62.0859 160.99 61.3179C160.542 60.5499 160.318 59.6432 160.318 58.5979C160.318 56.7632 160.915 55.2806 162.11 54.1499C163.305 53.0192 164.969 52.4539 167.102 52.4539C167.721 52.4539 168.361 52.5179 169.022 52.6459C169.705 52.7739 170.355 52.9552 170.974 53.1899C171.614 53.4032 172.169 53.6699 172.638 53.9899C173.001 54.2246 173.214 54.4592 173.278 54.6939C173.363 54.9072 173.321 55.1952 173.15 55.5579L172.254 57.5099C172.105 57.8086 171.923 58.0006 171.71 58.0859C171.518 58.1499 171.23 58.1072 170.846 57.9579C170.249 57.6806 169.609 57.4459 168.926 57.2539C168.265 57.0406 167.657 56.9339 167.102 56.9339C166.505 56.9339 165.993 57.0406 165.566 57.2539C165.161 57.4459 164.958 57.7872 164.958 58.2779C164.958 58.7686 165.182 59.2272 165.63 59.6539C166.099 60.0592 166.697 60.4646 167.422 60.8699C168.147 61.2539 168.905 61.6699 169.694 62.1179C170.505 62.5446 171.273 63.0459 171.998 63.6219C172.723 64.1766 173.31 64.8272 173.758 65.5739C174.227 66.3206 174.462 67.1952 174.462 68.1979C174.462 70.2032 173.822 71.7819 172.542 72.9339C171.283 74.0859 169.534 74.6619 167.294 74.6619C166.505 74.6619 165.683 74.5766 164.83 74.4059C163.977 74.2352 163.145 73.9899 162.334 73.6699C161.545 73.3499 160.83 72.9659 160.19 72.5179C159.849 72.2619 159.625 72.0379 159.518 71.8459C159.433 71.6326 159.486 71.3339 159.678 70.9499L160.606 69.0299C160.777 68.7099 160.958 68.5072 161.15 68.4219C161.342 68.3152 161.63 68.3686 162.014 68.5819C162.953 69.0939 163.913 69.4886 164.894 69.7659C165.897 70.0432 166.761 70.1819 167.486 70.1819C168.169 70.1819 168.723 70.0859 169.15 69.8939C169.598 69.6806 169.822 69.2752 169.822 68.6779ZM180.378 74.9179H178.298C177.444 74.9179 177.018 74.4912 177.018 73.6379V54.1179C177.018 53.2646 177.444 52.8379 178.298 52.8379H183.354C185.167 52.8379 186.788 53.1046 188.218 53.6379C189.647 54.1712 190.767 55.0352 191.578 56.2299C192.41 57.4246 192.826 59.0246 192.826 61.0299C192.826 62.8432 192.388 64.3259 191.514 65.4779C190.639 66.6299 189.476 67.5152 188.026 68.1339C186.575 68.7312 184.996 69.1152 183.29 69.2859L181.658 69.4459V73.6379C181.658 74.4912 181.231 74.9179 180.378 74.9179ZM183.482 57.6379H181.658V64.6459L183.418 64.4859C184.25 64.4006 185.028 64.2299 185.754 63.9739C186.479 63.6966 187.066 63.3126 187.514 62.8219C187.962 62.3312 188.186 61.7339 188.186 61.0299C188.186 60.1552 187.962 59.4726 187.514 58.9819C187.087 58.4912 186.511 58.1499 185.786 57.9579C185.082 57.7446 184.314 57.6379 183.482 57.6379ZM196.415 74.2779C195.54 74.2779 195.114 73.8512 195.135 72.9979L195.775 54.1179C195.796 53.2646 196.223 52.8379 197.055 52.8379H208.095C208.948 52.8379 209.375 53.2646 209.375 54.1179V56.0699C209.375 56.9019 208.959 57.3179 208.127 57.3179H200.159L199.999 61.4139L206.815 60.9659C207.668 60.9019 208.095 61.3286 208.095 62.2459V64.1979C208.095 64.9659 207.679 65.3819 206.847 65.4459L199.871 65.9259L199.711 69.7979H208.095C208.948 69.7979 209.375 70.2246 209.375 71.0779V73.0299C209.375 73.8619 208.959 74.2779 208.127 74.2779H196.415ZM223.371 66.2139L220.235 59.3659L218.123 66.2139H223.371ZM215.755 73.9259C215.542 74.5872 215.286 74.9926 214.987 75.1419C214.71 75.2912 214.294 75.3126 213.739 75.2059L211.851 74.8219C211.254 74.6939 210.902 74.5019 210.795 74.2459C210.71 73.9686 210.763 73.5419 210.955 72.9659L217.131 54.1179C217.323 53.5632 217.526 53.2112 217.739 53.0619C217.952 52.9126 218.262 52.8379 218.667 52.8379H221.419C221.696 52.8379 221.888 52.8699 221.995 52.9339C222.102 52.9766 222.187 53.0939 222.251 53.2859C222.336 53.4566 222.464 53.7339 222.635 54.1179L231.403 72.3899C231.68 72.9659 231.744 73.3926 231.595 73.6699C231.467 73.9472 231.104 74.1392 230.507 74.2459L228.779 74.5659C228.182 74.6726 227.744 74.6512 227.467 74.5019C227.211 74.3739 226.923 73.9686 226.603 73.2859L225.195 70.2139H216.907L215.755 73.9259ZM248.452 74.5659C248.089 74.6299 247.812 74.6406 247.62 74.5979C247.428 74.5552 247.247 74.4272 247.076 74.2139C246.927 74.0006 246.713 73.6912 246.436 73.2859L241.06 65.2539L238.564 67.7179V72.9979C238.564 73.8512 238.137 74.2779 237.284 74.2779H235.204C234.351 74.2779 233.924 73.8512 233.924 72.9979V54.7579C233.924 53.9046 234.351 53.4779 235.204 53.4779H237.284C238.137 53.4779 238.564 53.9046 238.564 54.7579V61.4139L247.076 52.9979C247.353 52.7206 247.641 52.5606 247.94 52.5179C248.239 52.4539 248.559 52.5712 248.9 52.8699L250.308 54.1499C250.628 54.4272 250.809 54.7259 250.852 55.0459C250.916 55.3446 250.799 55.6432 250.5 55.9419L244.26 62.1179C244.303 62.2032 244.367 62.3099 244.452 62.4379C244.537 62.5446 244.623 62.6726 244.708 62.8219L250.916 72.3899C251.257 72.9019 251.343 73.3072 251.172 73.6059C251.001 73.9046 250.617 74.1179 250.02 74.2459L248.452 74.5659ZM258.314 73.6379C258.314 74.4912 257.887 74.9179 257.034 74.9179H254.954C254.101 74.9179 253.674 74.4912 253.674 73.6379V53.4779C253.674 52.6246 254.101 52.1979 254.954 52.1979H257.034C257.887 52.1979 258.314 52.6246 258.314 53.4779V73.6379ZM266.783 73.6379C266.783 74.4912 266.356 74.9179 265.503 74.9179H263.423C262.569 74.9179 262.143 74.4912 262.143 73.6379V54.7579C262.143 53.9046 262.569 53.4779 263.423 53.4779H265.503C265.823 53.4779 266.057 53.5206 266.207 53.6059C266.228 53.6059 266.239 53.6166 266.239 53.6379C266.26 53.6379 266.271 53.6486 266.271 53.6699C266.292 53.6699 266.313 53.6699 266.335 53.6699C266.335 53.6912 266.335 53.7019 266.335 53.7019C266.356 53.7019 266.367 53.7019 266.367 53.7019C266.388 53.7232 266.409 53.7446 266.431 53.7659C266.452 53.7659 266.473 53.7872 266.495 53.8299C266.537 53.8726 266.569 53.9046 266.591 53.9259L266.623 53.9899L275.167 66.7579L276.031 54.1179C276.073 53.6912 276.191 53.3712 276.383 53.1579C276.575 52.9446 276.884 52.8379 277.311 52.8379H279.391C280.308 52.8379 280.735 53.2646 280.671 54.1179L279.391 72.9979C279.369 73.4246 279.252 73.7446 279.039 73.9579C278.847 74.1712 278.537 74.2779 278.111 74.2779H276.031C275.583 74.2779 275.241 74.1606 275.007 73.9259C274.985 73.8832 274.964 73.8512 274.943 73.8299C274.921 73.7872 274.889 73.7552 274.847 73.7339L266.783 61.7019V73.6379ZM301.493 74.9179C301.493 75.7286 301.056 76.1339 300.181 76.1339H298.101C297.269 76.1339 296.853 75.6966 296.853 74.8219V73.4459C296.32 73.7232 295.723 73.9366 295.061 74.0859C294.4 74.2139 293.771 74.2779 293.173 74.2779C291.061 74.2779 289.227 73.8299 287.669 72.9339C286.133 72.0166 284.939 70.7366 284.085 69.0939C283.253 67.4299 282.837 65.4779 282.837 63.2379C282.837 61.0619 283.285 59.1739 284.181 57.5739C285.077 55.9526 286.325 54.6939 287.925 53.7979C289.547 52.9019 291.445 52.4539 293.621 52.4539C294.773 52.4539 295.957 52.6139 297.173 52.9339C298.411 53.2539 299.552 53.7339 300.597 54.3739C300.96 54.6086 301.024 55.0032 300.789 55.5579L299.829 57.9259C299.701 58.2459 299.531 58.4486 299.317 58.5339C299.104 58.5979 298.816 58.5552 298.453 58.4059C298.091 58.2352 297.632 58.0646 297.077 57.8939C296.544 57.7232 295.968 57.5739 295.349 57.4459C294.752 57.3179 294.176 57.2539 293.621 57.2539C292.277 57.2539 291.147 57.5206 290.229 58.0539C289.333 58.5659 288.651 59.2806 288.181 60.1979C287.712 61.0939 287.477 62.1072 287.477 63.2379C287.477 64.4966 287.712 65.6272 288.181 66.6299C288.672 67.6112 289.397 68.3899 290.357 68.9659C291.317 69.5206 292.533 69.7979 294.005 69.7979C294.347 69.7979 294.773 69.7766 295.285 69.7339C295.797 69.6699 296.32 69.5419 296.853 69.3499V66.5659L293.493 66.7259C293.387 66.7259 293.291 66.7259 293.205 66.7259C293.12 66.7046 293.035 66.6832 292.949 66.6619C292.48 66.5126 292.245 66.1179 292.245 65.4779V64.9339V63.3659C292.245 62.5339 292.672 62.1072 293.525 62.0859L300.213 61.7659C300.32 61.7659 300.416 61.7766 300.501 61.7979C300.608 61.7979 300.704 61.8086 300.789 61.8299C301.259 61.9792 301.493 62.3846 301.493 63.0459V64.3579C301.493 64.4646 301.493 64.5819 301.493 64.7099C301.493 64.8166 301.493 64.9232 301.493 65.0299V74.9179ZM320.541 68.6779C320.541 68.1446 320.306 67.6646 319.837 67.2379C319.389 66.8112 318.802 66.4059 318.077 66.0219C317.352 65.6379 316.584 65.2326 315.773 64.8059C314.984 64.3792 314.226 63.8886 313.501 63.3339C312.776 62.7579 312.178 62.0859 311.709 61.3179C311.261 60.5499 311.037 59.6432 311.037 58.5979C311.037 56.7632 311.634 55.2806 312.829 54.1499C314.024 53.0192 315.688 52.4539 317.821 52.4539C318.44 52.4539 319.08 52.5179 319.741 52.6459C320.424 52.7739 321.074 52.9552 321.693 53.1899C322.333 53.4032 322.888 53.6699 323.357 53.9899C323.72 54.2246 323.933 54.4592 323.997 54.6939C324.082 54.9072 324.04 55.1952 323.869 55.5579L322.973 57.5099C322.824 57.8086 322.642 58.0006 322.429 58.0859C322.237 58.1499 321.949 58.1072 321.565 57.9579C320.968 57.6806 320.328 57.4459 319.645 57.2539C318.984 57.0406 318.376 56.9339 317.821 56.9339C317.224 56.9339 316.712 57.0406 316.285 57.2539C315.88 57.4459 315.677 57.7872 315.677 58.2779C315.677 58.7686 315.901 59.2272 316.349 59.6539C316.818 60.0592 317.416 60.4646 318.141 60.8699C318.866 61.2539 319.624 61.6699 320.413 62.1179C321.224 62.5446 321.992 63.0459 322.717 63.6219C323.442 64.1766 324.029 64.8272 324.477 65.5739C324.946 66.3206 325.181 67.1952 325.181 68.1979C325.181 70.2032 324.541 71.7819 323.261 72.9339C322.002 74.0859 320.253 74.6619 318.013 74.6619C317.224 74.6619 316.402 74.5766 315.549 74.4059C314.696 74.2352 313.864 73.9899 313.053 73.6699C312.264 73.3499 311.549 72.9659 310.909 72.5179C310.568 72.2619 310.344 72.0379 310.237 71.8459C310.152 71.6326 310.205 71.3339 310.397 70.9499L311.325 69.0299C311.496 68.7099 311.677 68.5072 311.869 68.4219C312.061 68.3152 312.349 68.3686 312.733 68.5819C313.672 69.0939 314.632 69.4886 315.613 69.7659C316.616 70.0432 317.48 70.1819 318.205 70.1819C318.888 70.1819 319.442 70.0859 319.869 69.8939C320.317 69.6806 320.541 69.2752 320.541 68.6779ZM342.264 74.5659C341.902 74.6299 341.624 74.6406 341.432 74.5979C341.24 74.5552 341.059 74.4272 340.888 74.2139C340.739 74.0006 340.526 73.6912 340.248 73.2859L334.872 65.2539L332.376 67.7179V72.9979C332.376 73.8512 331.95 74.2779 331.096 74.2779H329.016C328.163 74.2779 327.736 73.8512 327.736 72.9979V54.7579C327.736 53.9046 328.163 53.4779 329.016 53.4779H331.096C331.95 53.4779 332.376 53.9046 332.376 54.7579V61.4139L340.888 52.9979C341.166 52.7206 341.454 52.5606 341.752 52.5179C342.051 52.4539 342.371 52.5712 342.712 52.8699L344.12 54.1499C344.44 54.4272 344.622 54.7259 344.664 55.0459C344.728 55.3446 344.611 55.6432 344.312 55.9419L338.072 62.1179C338.115 62.2032 338.179 62.3099 338.264 62.4379C338.35 62.5446 338.435 62.6726 338.52 62.8219L344.728 72.3899C345.07 72.9019 345.155 73.3072 344.984 73.6059C344.814 73.9046 344.43 74.1179 343.832 74.2459L342.264 74.5659ZM352.126 73.6379C352.126 74.4912 351.7 74.9179 350.846 74.9179H348.766C347.913 74.9179 347.486 74.4912 347.486 73.6379V53.4779C347.486 52.6246 347.913 52.1979 348.766 52.1979H350.846C351.7 52.1979 352.126 52.6246 352.126 53.4779V73.6379ZM367.987 74.2459L357.235 73.6379C356.382 73.6379 355.955 73.2219 355.955 72.3899V54.1179C355.955 53.2646 356.382 52.8379 357.235 52.8379H359.315C360.168 52.8379 360.595 53.2646 360.595 54.1179V69.3499L367.955 69.7659C368.382 69.7872 368.702 69.9046 368.915 70.1179C369.128 70.3099 369.235 70.6192 369.235 71.0459V72.9979C369.235 73.8512 368.819 74.2672 367.987 74.2459ZM383.643 74.2459L372.891 73.6379C372.038 73.6379 371.611 73.2219 371.611 72.3899V54.1179C371.611 53.2646 372.038 52.8379 372.891 52.8379H374.971C375.825 52.8379 376.251 53.2646 376.251 54.1179V69.3499L383.611 69.7659C384.038 69.7872 384.358 69.9046 384.571 70.1179C384.785 70.3099 384.891 70.6192 384.891 71.0459V72.9979C384.891 73.8512 384.475 74.2672 383.643 74.2459ZM396.26 68.6779C396.26 68.1446 396.025 67.6646 395.556 67.2379C395.108 66.8112 394.521 66.4059 393.796 66.0219C393.07 65.6379 392.302 65.2326 391.492 64.8059C390.702 64.3792 389.945 63.8886 389.22 63.3339C388.494 62.7579 387.897 62.0859 387.428 61.3179C386.98 60.5499 386.756 59.6432 386.756 58.5979C386.756 56.7632 387.353 55.2806 388.548 54.1499C389.742 53.0192 391.406 52.4539 393.54 52.4539C394.158 52.4539 394.798 52.5179 395.46 52.6459C396.142 52.7739 396.793 52.9552 397.412 53.1899C398.052 53.4032 398.606 53.6699 399.076 53.9899C399.438 54.2246 399.652 54.4592 399.716 54.6939C399.801 54.9072 399.758 55.1952 399.588 55.5579L398.692 57.5099C398.542 57.8086 398.361 58.0006 398.148 58.0859C397.956 58.1499 397.668 58.1072 397.284 57.9579C396.686 57.6806 396.046 57.4459 395.364 57.2539C394.702 57.0406 394.094 56.9339 393.54 56.9339C392.942 56.9339 392.43 57.0406 392.004 57.2539C391.598 57.4459 391.396 57.7872 391.396 58.2779C391.396 58.7686 391.62 59.2272 392.068 59.6539C392.537 60.0592 393.134 60.4646 393.86 60.8699C394.585 61.2539 395.342 61.6699 396.132 62.1179C396.942 62.5446 397.71 63.0459 398.436 63.6219C399.161 64.1766 399.748 64.8272 400.196 65.5739C400.665 66.3206 400.9 67.1952 400.9 68.1979C400.9 70.2032 400.26 71.7819 398.98 72.9339C397.721 74.0859 395.972 74.6619 393.732 74.6619C392.942 74.6619 392.121 74.5766 391.268 74.4059C390.414 74.2352 389.582 73.9899 388.772 73.6699C387.982 73.3499 387.268 72.9659 386.628 72.5179C386.286 72.2619 386.062 72.0379 385.956 71.8459C385.87 71.6326 385.924 71.3339 386.116 70.9499L387.044 69.0299C387.214 68.7099 387.396 68.5072 387.588 68.4219C387.78 68.3152 388.068 68.3686 388.452 68.5819C389.39 69.0939 390.35 69.4886 391.332 69.7659C392.334 70.0432 393.198 70.1819 393.924 70.1819C394.606 70.1819 395.161 70.0859 395.588 69.8939C396.036 69.6806 396.26 69.2752 396.26 68.6779Z" fill="#FFC33F"/>
</g>
<defs>
<filter id="filter0_d_332_809" x="99" y="275" width="354" height="126" filterUnits="userSpaceOnUse" color-interpolation-filters="sRGB">
<feFlood flood-opacity="0" result="BackgroundImageFix"/>
<feColorMatrix in="SourceAlpha" type="matrix" values="0 0 0 0 0 0 0 0 0 0 0 0 0 0 0 0 0 0 127 0" result="hardAlpha"/>
<feOffset/>
<feGaussianBlur stdDeviation="4"/>
<feComposite in2="hardAlpha" operator="out"/>
<feColorMatrix type="matrix" values="0 0 0 0 0 0 0 0 0 0 0 0 0 0 0 0 0 0 0.15 0"/>
<feBlend mode="normal" in2="BackgroundImageFix" result="effect1_dropShadow_332_809"/>
<feBlend mode="normal" in="SourceGraphic" in2="effect1_dropShadow_332_809" result="shape"/>
</filter>
<filter id="filter1_d_332_809" x="32" y="169" width="386" height="159" filterUnits="userSpaceOnUse" color-interpolation-filters="sRGB">
<feFlood flood-opacity="0" result="BackgroundImageFix"/>
<feColorMatrix in="SourceAlpha" type="matrix" values="0 0 0 0 0 0 0 0 0 0 0 0 0 0 0 0 0 0 127 0" result="hardAlpha"/>
<feOffset/>
<feGaussianBlur stdDeviation="12"/>
<feComposite in2="hardAlpha" operator="out"/>
<feColorMatrix type="matrix" values="0 0 0 0 0 0 0 0 0 0 0 0 0 0 0 0 0 0 0.1 0"/>
<feBlend mode="normal" in2="BackgroundImageFix" result="effect1_dropShadow_332_809"/>
<feBlend mode="normal" in="SourceGraphic" in2="effect1_dropShadow_332_809" result="shape"/>
</filter>
<filter id="filter2_d_332_809" x="68" y="8" width="353" height="126" filterUnits="userSpaceOnUse" color-interpolation-filters="sRGB">
<feFlood flood-opacity="0" result="BackgroundImageFix"/>
<feColorMatrix in="SourceAlpha" type="matrix" values="0 0 0 0 0 0 0 0 0 0 0 0 0 0 0 0 0 0 127 0" result="hardAlpha"/>
<feOffset/>
<feGaussianBlur stdDeviation="4"/>
<feComposite in2="hardAlpha" operator="out"/>
<feColorMatrix type="matrix" values="0 0 0 0 0 0 0 0 0 0 0 0 0 0 0 0 0 0 0.15 0"/>
<feBlend mode="normal" in2="BackgroundImageFix" result="effect1_dropShadow_332_809"/>
<feBlend mode="normal" in="SourceGraphic" in2="effect1_dropShadow_332_809" result="shape"/>
</filter>
<filter id="filter3_d_332_809" x="3" y="73" width="386" height="159" filterUnits="userSpaceOnUse" color-interpolation-filters="sRGB">
<feFlood flood-opacity="0" result="BackgroundImageFix"/>
<feColorMatrix in="SourceAlpha" type="matrix" values="0 0 0 0 0 0 0 0 0 0 0 0 0 0 0 0 0 0 127 0" result="hardAlpha"/>
<feOffset/>
<feGaussianBlur stdDeviation="12"/>
<feComposite in2="hardAlpha" operator="out"/>
<feColorMatrix type="matrix" values="0 0 0 0 0 0 0 0 0 0 0 0 0 0 0 0 0 0 0.1 0"/>
<feBlend mode="normal" in2="BackgroundImageFix" result="effect1_dropShadow_332_809"/>
<feBlend mode="normal" in="SourceGraphic" in2="effect1_dropShadow_332_809" result="shape"/>
</filter>
<clipPath id="clip0_332_809">
<rect width="359" height="409" fill="white"/>
</clipPath>
<clipPath id="clip1_332_809">
<path d="M107 307C107 293.745 117.745 283 131 283H445V393H131C117.745 393 107 382.255 107 369V307Z" fill="white"/>
</clipPath>
<clipPath id="clip2_332_809">
<path d="M56 217C56 203.745 66.7452 193 80 193H394V304H80C66.7452 304 56 293.255 56 280V217Z" fill="white"/>
</clipPath>
</defs>
</svg>
