<svg width="219" height="137" viewBox="0 0 219 137" fill="none" xmlns="http://www.w3.org/2000/svg">
<path fill-rule="evenodd" clip-rule="evenodd" d="M120.355 31.3296C125.942 28.4555 132.236 26.7365 138.932 26.499C161.036 25.7147 179.915 41.3462 183.829 62.4582C202.692 62.6808 218.237 77.6984 218.913 96.7501C219.609 116.374 204.266 132.846 184.642 133.542C176.817 133.82 169.493 131.547 163.47 127.469C157.752 131.964 150.607 134.75 142.782 135.027C132.367 135.397 122.84 131.248 116.087 124.339C109.842 131.71 100.632 136.524 90.2157 136.893C76.3852 137.384 64.1203 129.907 57.8401 118.58C52.1297 123.053 45.0028 125.824 37.1991 126.101C17.5753 126.798 1.10279 111.454 0.406575 91.8297C-0.289638 72.2063 15.0542 55.7337 34.6778 55.0375C34.9531 55.0278 35.2277 55.0212 35.5016 55.0177C34.8628 52.2784 34.4781 49.4379 34.3747 46.521C33.5116 22.1928 52.5337 1.77125 76.8622 0.908131C96.9843 0.19422 114.435 13.0848 120.355 31.3296Z" fill="#6692FD"/>
</svg>
