<svg width="167" height="167" viewBox="0 0 167 167" fill="none" xmlns="http://www.w3.org/2000/svg">
<path d="M105.18 81.2961L99.6376 88.3687L100.714 97.2865L91.7961 98.3704L86.2534 105.443L79.173 99.9003L62.0986 86.5083L67.6415 79.4357L66.5652 70.5179L75.4829 69.434L81.0334 62.3613L88.1061 67.9041L98.1078 75.7456L105.18 81.2961Z" fill="#BCBEC0"/>
<path d="M149.477 60.471L118.565 64.2149L137.776 39.7065C143.004 33.0413 141.835 23.3933 135.17 18.1656C128.505 12.938 118.857 14.1065 113.629 20.7718L94.4176 45.2801L90.6737 14.3679C89.6512 5.95761 82.0096 -0.038789 73.5993 0.983673C65.189 2.00613 59.1926 9.6477 60.2151 18.058L63.959 48.9702L39.4507 29.7587C32.7854 24.5311 23.1374 25.6996 17.9098 32.3648C12.6821 39.03 13.8507 48.6781 20.5159 53.9057L45.0242 73.1172L14.112 76.8611C5.70172 77.8836 -0.294648 85.5251 0.727814 93.9354C1.75028 102.346 9.3918 108.342 17.8021 107.32L48.7143 103.576L29.5028 128.084C26.889 131.421 25.8742 135.495 26.3431 139.393C26.8121 143.29 28.7724 147.011 32.1089 149.625C38.7741 154.853 48.4222 153.684 53.6498 147.019L72.8613 122.511L76.6052 153.423C77.1126 157.628 79.2805 161.233 82.3709 163.655C85.4614 166.077 89.4744 167.322 93.6795 166.815C102.09 165.792 108.086 158.151 107.064 149.74L103.32 118.828L127.828 138.04C131.165 140.653 135.239 141.668 139.137 141.199C143.034 140.73 146.755 138.77 149.369 135.434C154.597 128.768 153.428 119.12 146.763 113.893L122.255 94.6811L153.167 90.9372C157.372 90.4299 160.97 88.2619 163.399 85.1715C165.821 82.081 167.066 78.0681 166.559 73.8629C165.536 65.4526 157.895 59.4562 149.484 60.4786L149.477 60.471ZM99.6375 88.3619L100.721 97.2796L91.8037 98.3635L86.2609 105.436L79.1883 99.8934L70.2705 100.977L69.1866 92.0596L62.1139 86.5168L67.6568 79.4442L66.5728 70.5265L75.4905 69.4425L81.0333 62.3698L88.106 67.9126L97.0237 66.8287L98.1076 75.7464L105.18 81.2892L99.6375 88.3619Z" fill="#FFC33F"/>
<path d="M105.18 81.2961L99.6376 88.3687L91.7961 98.3704L86.2534 105.443L79.173 99.9003L70.2553 100.977L69.1713 92.0588L62.0986 86.5083L67.6415 79.4357L75.4829 69.434L81.0334 62.3613L88.1061 67.9041L97.0238 66.8279L98.1078 75.7456L105.18 81.2961Z" fill="#BCBEC0"/>
<path d="M105.18 81.2963L99.6376 88.369L100.714 97.2867L70.2553 100.977L69.1713 92.0591L62.0986 86.5086L67.6415 79.4359L66.5652 70.5182L97.0238 66.8281L98.1078 75.7458L105.18 81.2963Z" fill="#BCBEC0"/>
<path d="M97.024 66.8288L100.714 97.2874L91.7964 98.3714L86.2536 105.444L79.1732 99.9012L70.2556 100.978L66.5654 70.5189L75.4832 69.435L81.0337 62.3623L88.1063 67.9051L97.024 66.8288Z" fill="#BCBEC0"/>
<path d="M83.6426 113.181C99.8148 113.181 112.925 100.071 112.925 83.8985C112.925 67.7263 99.8148 54.6162 83.6426 54.6162C67.4704 54.6162 54.3604 67.7263 54.3604 83.8985C54.3604 100.071 67.4704 113.181 83.6426 113.181Z" fill="#FF6835"/>
</svg>
