<svg width="56" height="56" viewBox="0 0 56 56" fill="none" xmlns="http://www.w3.org/2000/svg">
<path d="M43.6252 50.7113L50.6896 43.647L12.2344 5.19182L5.17009 12.2562L43.6252 50.7113Z" fill="#C383D9"/>
<path d="M5.16862 43.6483L12.233 50.7126L50.6881 12.2575L43.6238 5.19315L5.16862 43.6483Z" fill="#C383D9"/>
<path d="M55.1205 32.9462V22.9557L0.736691 22.9557V32.9462H55.1205Z" fill="#C383D9"/>
<path d="M22.9333 55.143H32.9238L32.9238 0.759212H22.9333L22.9333 55.143Z" fill="#C383D9"/>
<path d="M40.5175 27.9528L36.8327 31.6981V36.9949H31.6168L27.9287 40.7369L24.2406 36.9949H19.0246V31.6981L15.3398 27.9528L19.0246 24.2076V18.9107H24.2406L27.9287 15.1688L31.6168 18.9107H36.8327V24.2076L40.5175 27.9528Z" fill="#EFD9F9"/>
<mask id="mask0_371_107" style="mask-type:alpha" maskUnits="userSpaceOnUse" x="21" y="22" width="6" height="8">
<ellipse cx="24.4294" cy="26.2038" rx="2.54331" ry="3.20457" fill="white"/>
</mask>
<g mask="url(#mask0_371_107)">
<rect x="20.4107" y="22.8163" width="8.06456" height="6.75276" fill="white"/>
<rect x="24.0463" y="24.4489" width="2.76954" height="3.50976" rx="1.38477" fill="black"/>
</g>
<mask id="mask1_371_107" style="mask-type:alpha" maskUnits="userSpaceOnUse" x="28" y="22" width="7" height="8">
<ellipse cx="31.4791" cy="26.2035" rx="2.54331" ry="3.20457" fill="white"/>
</mask>
<g mask="url(#mask1_371_107)">
<rect x="27.4606" y="22.816" width="8.06456" height="6.75276" fill="white"/>
<path d="M31.092 25.8334C31.092 25.0687 31.712 24.4487 32.4768 24.4487V24.4487C33.2416 24.4487 33.8616 25.0687 33.8616 25.8334V26.5737C33.8616 27.3384 33.2416 27.9584 32.4768 27.9584V27.9584C31.712 27.9584 31.092 27.3384 31.092 26.5737V25.8334Z" fill="black"/>
</g>
<path d="M26.001 31.557C26.7084 32.5714 28.7117 33.9916 31.0655 31.557" stroke="black" stroke-width="0.88" stroke-linecap="round"/>
</svg>
