<svg width="55" height="54" viewBox="0 0 55 54" fill="none" xmlns="http://www.w3.org/2000/svg">
<path d="M46.904 46.1137L46.905 46.1127C48.8416 44.1813 48.8416 41.05 46.905 39.1186L15.7389 8.03656C13.8023 6.1052 10.6625 6.1052 8.72592 8.03656L8.72496 8.03752C6.78837 9.96889 6.78837 13.1002 8.72496 15.0316L39.891 46.1137C41.8276 48.045 44.9674 48.045 46.904 46.1137Z" fill="#69B06C"/>
<path d="M8.72573 46.112L8.72669 46.1129C10.6633 48.0443 13.8031 48.0443 15.7397 46.1129L46.9057 15.0309C48.8423 13.0995 48.8423 9.96816 46.9057 8.0368L46.9048 8.03584C44.9682 6.10447 41.8284 6.10447 39.8918 8.03584L8.72573 39.1179C6.78914 41.0493 6.78914 44.1806 8.72573 46.112Z" fill="#69B06C"/>
<path d="M54.8115 27.0774V27.0761C54.8115 24.3447 52.5913 22.1305 49.8526 22.1305L5.77709 22.1305C3.03835 22.1305 0.818161 24.3447 0.818161 27.0761V27.0774C0.818161 29.8088 3.03835 32.023 5.77709 32.023H49.8526C52.5913 32.023 54.8115 29.8088 54.8115 27.0774Z" fill="#69B06C"/>
<path d="M27.8134 53.9999H27.8147C30.5535 53.9999 32.7737 51.7857 32.7737 49.0543L32.7737 5.09764C32.7737 2.36628 30.5535 0.152077 27.8147 0.152077H27.8134C25.0746 0.152077 22.8545 2.36628 22.8545 5.09764L22.8545 49.0543C22.8545 51.7857 25.0746 53.9999 27.8134 53.9999Z" fill="#69B06C"/>
<path d="M27.8151 35.2682C32.3521 35.2682 36.03 31.6002 36.03 27.0754C36.03 22.5507 32.3521 18.8827 27.8151 18.8827C23.2782 18.8827 19.6002 22.5507 19.6002 27.0754C19.6002 31.6002 23.2782 35.2682 27.8151 35.2682Z" fill="#FFC33F"/>
</svg>
