<svg width="53" height="54" viewBox="0 0 53 54" fill="none" xmlns="http://www.w3.org/2000/svg">
<path d="M33.429 26.0705L31.6846 28.2964L32.0233 31.1029L29.2168 31.4441L27.4723 33.6699L25.244 31.9255L19.8705 27.7109L21.6149 25.485L21.2761 22.6784L24.0827 22.3373L25.8295 20.1114L28.0554 21.8558L31.2031 24.3236L33.429 26.0705Z" fill="#BCBEC0"/>
<path d="M47.3699 19.5166L37.6413 20.6949L43.6875 12.9817C45.3327 10.884 44.965 7.84763 42.8673 6.20241C40.7697 4.55719 37.7333 4.92494 36.0881 7.0226L30.0419 14.7358L28.8636 5.0072C28.5418 2.36033 26.1369 0.473168 23.49 0.794954C20.8432 1.11674 18.956 3.52167 19.2778 6.16854L20.4561 15.8971L12.7429 9.85093C10.6452 8.20571 7.60882 8.57346 5.9636 10.6711C4.31838 12.7688 4.68614 15.8052 6.78379 17.4504L14.497 23.4966L4.7684 24.6748C2.12153 24.9966 0.234368 27.4015 0.556154 30.0484C0.87794 32.6953 3.28286 34.5825 5.92972 34.2607L15.6583 33.0824L9.61212 40.7956C8.78951 41.8456 8.47013 43.1279 8.61772 44.3546C8.76531 45.5812 9.38226 46.7522 10.4323 47.5749C12.53 49.2201 15.5664 48.8523 17.2116 46.7547L23.2578 39.0415L24.436 48.7701C24.5957 50.0935 25.278 51.2282 26.2506 51.9903C27.2232 52.7525 28.4862 53.1444 29.8096 52.9847C32.4565 52.6629 34.3436 50.258 34.0219 47.6111L32.8436 37.8826L40.5568 43.9288C41.6068 44.7514 42.8891 45.0707 44.1158 44.9231C45.3424 44.7756 46.5134 44.1586 47.336 43.1086C48.9813 41.0109 48.6135 37.9745 46.5159 36.3293L38.8027 30.2831L48.5313 29.1048C49.8547 28.9452 50.987 28.2629 51.7515 27.2903C52.5137 26.3176 52.9056 25.0547 52.7459 23.7313C52.4241 21.0844 50.0192 19.1972 47.3723 19.519L47.3699 19.5166ZM31.6847 28.2943L32.0258 31.1009L29.2193 31.442L27.4748 33.6679L25.249 31.9235L22.4424 32.2646L22.1013 29.4581L19.8754 27.7137L21.6198 25.4878L21.2787 22.6812L24.0852 22.3401L25.8296 20.1142L28.0555 21.8586L30.8621 21.5175L31.2032 24.324L33.4291 26.0684L31.6847 28.2943Z" fill="#FFC33F"/>
<path d="M33.429 26.0705L31.6846 28.2964L29.2168 31.4441L27.4723 33.6699L25.244 31.9255L22.4375 32.2642L22.0963 29.4577L19.8705 27.7109L21.6149 25.485L24.0827 22.3373L25.8295 20.1114L28.0554 21.8558L30.862 21.5171L31.2031 24.3236L33.429 26.0705Z" fill="#BCBEC0"/>
<path d="M33.429 26.0704L31.6846 28.2962L32.0233 31.1028L22.4375 32.2641L22.0963 29.4576L19.8705 27.7107L21.6149 25.4849L21.2761 22.6783L30.862 21.517L31.2031 24.3235L33.429 26.0704Z" fill="#BCBEC0"/>
<path d="M30.8624 21.5171L32.0238 31.1029L29.2172 31.4441L27.4728 33.6699L25.2445 31.9255L22.438 32.2642L21.2766 22.6784L24.0832 22.3373L25.83 20.1114L28.0559 21.8558L30.8624 21.5171Z" fill="#BCBEC0"/>
<path d="M26.6507 36.1057C31.7404 36.1057 35.8663 31.9797 35.8663 26.8901C35.8663 21.8004 31.7404 17.6744 26.6507 17.6744C21.5611 17.6744 17.4351 21.8004 17.4351 26.8901C17.4351 31.9797 21.5611 36.1057 26.6507 36.1057Z" fill="#FF6835"/>
<mask id="mask0_371_123" style="mask-type:alpha" maskUnits="userSpaceOnUse" x="20" y="22" width="6" height="7">
<ellipse cx="23.2882" cy="25.2115" rx="2.44398" ry="3.07942" fill="white"/>
</mask>
<g mask="url(#mask0_371_123)">
<rect x="19.427" y="22.0162" width="7.74962" height="6.37044" fill="white"/>
<rect x="20.6534" y="24.5414" width="3.1283" height="3.3727" rx="1.56415" fill="black"/>
</g>
<mask id="mask1_371_123" style="mask-type:alpha" maskUnits="userSpaceOnUse" x="27" y="22" width="6" height="7">
<ellipse cx="30.0132" cy="25.2115" rx="2.44398" ry="3.07942" fill="white"/>
</mask>
<g mask="url(#mask1_371_123)">
<rect x="26.1519" y="22.0162" width="7.74962" height="6.37044" fill="white"/>
<rect x="27.3784" y="24.5414" width="3.1283" height="3.3727" rx="1.56415" fill="black"/>
</g>
<path d="M24.3145 30.355C24.9943 31.3298 26.9194 32.6945 29.1812 30.355" stroke="black" stroke-width="0.8" stroke-linecap="round"/>
</svg>
