<svg width="312" height="196" viewBox="0 0 312 196" fill="none" xmlns="http://www.w3.org/2000/svg">
<g id="Cloud" clip-path="url(#clip0_42_156)">
<path id="Vector" fill-rule="evenodd" clip-rule="evenodd" d="M171.042 44.4794C179.008 40.3818 187.981 37.9311 197.527 37.5924C229.041 36.4743 255.957 58.7601 261.537 88.8593C288.43 89.1767 310.593 110.587 311.557 137.749C312.549 165.726 290.674 189.211 262.696 190.203C251.54 190.599 241.098 187.359 232.512 181.545C224.359 187.953 214.173 191.925 203.017 192.32C188.168 192.847 174.585 186.932 164.958 177.082C156.054 187.591 142.923 194.454 128.073 194.981C108.355 195.68 90.8689 185.021 81.9153 168.872C73.7739 175.249 63.6131 179.2 52.4874 179.595C24.5099 180.588 1.02507 158.712 0.0324858 130.734C-0.960103 102.757 20.9155 79.2723 48.8929 78.2797C49.2853 78.2658 49.6768 78.2564 50.0674 78.2514C49.1566 74.3461 48.6082 70.2963 48.4607 66.1377C47.2302 31.4531 74.35 2.3382 109.035 1.10766C137.723 0.0898355 162.602 18.4678 171.042 44.4794Z" fill="#6692FD"/>
<g id="Group 71">
<g id="Mask group">
<mask id="mask0_42_156" style="mask-type:alpha" maskUnits="userSpaceOnUse" x="110" y="65" width="39" height="49">
<ellipse id="mask" cx="129.631" cy="89.5203" rx="19.2598" ry="24.2674" fill="white"/>
</mask>
<g mask="url(#mask0_42_156)">
<rect id="background" x="99.2012" y="64.3574" width="61.071" height="50.1764" fill="white"/>
<rect id="retina" x="117.305" y="76.231" width="24.6526" height="26.5786" rx="12.3263" fill="black"/>
</g>
</g>
<g id="Mask group_2">
<mask id="mask1_42_156" style="mask-type:alpha" maskUnits="userSpaceOnUse" x="163" y="65" width="39" height="49">
<ellipse id="mask_2" cx="182.371" cy="89.5203" rx="19.2598" ry="24.2674" fill="white"/>
</mask>
<g mask="url(#mask1_42_156)">
<rect id="background_2" x="151.941" y="64.3574" width="61.071" height="50.1764" fill="white"/>
<rect id="retina_2" x="170.045" y="76.231" width="24.6526" height="26.5786" rx="12.3263" fill="black"/>
</g>
</g>
<path id="Vector 33" d="M134.672 129.803C140.029 137.485 155.199 148.24 173.024 129.803" stroke="black" stroke-width="8" stroke-linecap="round"/>
</g>
</g>
<defs>
<clipPath id="clip0_42_156">
<rect width="312" height="195" fill="white" transform="translate(0 0.407227)"/>
</clipPath>
</defs>
</svg>
