<svg width="130" height="48" viewBox="0 0 130 48" fill="none" xmlns="http://www.w3.org/2000/svg">
<path d="M41.3498 0.444336H7.31164C3.7015 0.444336 0.774902 3.37094 0.774902 6.98108V41.0192C0.774902 44.6294 3.7015 47.556 7.31164 47.556H41.3498C44.96 47.556 47.8866 44.6294 47.8866 41.0192V6.98108C47.8866 3.37094 44.96 0.444336 41.3498 0.444336Z" fill="white"/>
<path d="M41.3499 0.888899C44.7143 0.888899 47.4422 3.61615 47.4422 6.98119V41.0199C47.4422 44.3844 44.7149 47.1122 41.3499 47.1122H7.31169C3.94721 47.1122 1.2194 44.385 1.2194 41.0199V6.98119C1.2194 3.61671 3.94665 0.888899 7.31169 0.888899H41.3504M41.3504 0H7.31169C5.44723 0 3.69387 0.72612 2.37552 2.04447C1.05717 3.36282 0.331055 5.11617 0.331055 6.98064V41.0194C0.331055 42.8838 1.05717 44.6372 2.37552 45.9555C3.69387 47.2739 5.44723 48 7.31169 48H41.3504C43.2149 48 44.9682 47.2739 46.2866 45.9555C47.6049 44.6372 48.3311 42.8838 48.3311 41.0194V6.98119C48.3311 5.11673 47.6049 3.36337 46.2866 2.04502C44.9682 0.726675 43.2149 0.000555681 41.3504 0.000555681V0Z" fill="white"/>
<path d="M46.3311 6.87561V40.9005C46.3311 43.7172 44.0477 46.0005 41.231 46.0005H7.32451C4.56615 46.0005 2.33057 43.7649 2.33057 41.0066V7.21228C2.33057 4.33336 4.66393 2 7.54285 2H41.4555C44.1483 2 46.3311 4.18336 46.3311 6.87561Z" fill="white"/>
<path d="M21.2935 16.951C20.2391 16.1721 19.5552 14.9188 19.5552 13.5054C19.5552 12.5804 19.8485 11.7248 20.3469 11.0254C19.8646 11.706 19.5746 12.5304 19.5585 13.4188C19.5313 14.8649 20.2196 16.1527 21.2935 16.951Z" fill="#ED1C24"/>
<path d="M20.799 10.4863C20.7824 10.5036 20.7657 10.5208 20.749 10.5386C20.759 10.528 20.7685 10.5174 20.7785 10.5069C20.7851 10.4997 20.7918 10.493 20.799 10.4863Z" fill="#ED1C24"/>
<path d="M21.6663 17.1992C21.6935 17.2153 21.7213 17.2314 21.749 17.247C21.7324 17.2381 21.7163 17.2287 21.6996 17.2192L21.6663 17.1992Z" fill="#ED1C24"/>
<path d="M22.778 17.6601C22.6896 17.6379 22.6024 17.6123 22.5168 17.584C22.6024 17.6118 22.6896 17.6373 22.778 17.6601Z" fill="#ED1C24"/>
<path d="M23.3898 5.0567L23.022 2H23.3898V5.0567Z" fill="#FF6835"/>
<path d="M23.8308 23.5005H17.1202C17.1441 23.6639 17.1568 23.8305 17.1568 24.0005C17.1568 25.8494 15.6579 27.3483 13.809 27.3483C11.9601 27.3483 10.4612 25.8494 10.4612 24.0005C10.4612 23.8305 10.474 23.6639 10.4979 23.5005H2.33057V7.21255C2.33057 4.33363 4.66393 2.00027 7.54285 2.00027L21.9969 1.99805L22.1291 2.94028L22.1325 2.96472L22.8997 9.32091C22.6164 9.38424 22.3441 9.47591 22.0852 9.59258H22.073C21.7591 9.73703 21.4647 9.91814 21.1969 10.1304C21.1797 10.1443 21.1625 10.1581 21.1452 10.172C21.1436 10.1731 21.1419 10.1748 21.1402 10.1759C21.1375 10.1781 21.1347 10.1804 21.1319 10.1826C21.1219 10.1915 21.1119 10.1998 21.1019 10.2081C21.0786 10.2276 21.0552 10.2476 21.0324 10.2676C21.0058 10.2909 20.9791 10.3143 20.953 10.3381C20.9502 10.3409 20.9469 10.3437 20.9441 10.3465C20.9208 10.3676 20.898 10.3887 20.8758 10.4109C20.8674 10.4187 20.8591 10.427 20.8508 10.4354C20.833 10.4526 20.8163 10.4693 20.7991 10.487C20.7824 10.5043 20.7658 10.5215 20.7491 10.5393C20.718 10.5715 20.6874 10.6043 20.6574 10.6376C20.6486 10.6481 20.6391 10.6587 20.6297 10.6687C20.6063 10.6954 20.583 10.7226 20.5602 10.7498C20.543 10.7698 20.5263 10.7904 20.5102 10.8109C20.4891 10.8359 20.4691 10.8615 20.4491 10.8876C20.4141 10.9326 20.3802 10.9787 20.3469 11.0254C19.8647 11.7059 19.5747 12.5304 19.5585 13.4187C19.5313 14.8649 20.2197 16.1527 21.2936 16.951C21.3286 16.9777 21.3641 17.0032 21.4002 17.0277C21.4869 17.0877 21.5758 17.1449 21.6663 17.1988C21.6936 17.2149 21.7213 17.231 21.7491 17.2466C21.7752 17.2616 21.8013 17.276 21.828 17.2899C21.8563 17.3054 21.8858 17.3204 21.9147 17.3354C21.9613 17.3588 22.0086 17.3816 22.0563 17.4038C22.1036 17.426 22.1519 17.4471 22.2002 17.4671C22.2514 17.4882 22.3036 17.5088 22.3564 17.5288C22.4091 17.5482 22.4625 17.5666 22.5164 17.5843C22.6019 17.6121 22.6891 17.6377 22.7775 17.6604C22.8069 17.6677 22.8364 17.6749 22.8658 17.6821C22.8958 17.6888 22.9258 17.6955 22.9564 17.7021C22.9714 17.7055 22.9864 17.7088 23.0019 17.7116C23.0291 17.7171 23.0569 17.7227 23.0841 17.7271C23.1547 17.7405 23.2258 17.751 23.2975 17.7599C23.4719 17.7832 23.6497 17.7949 23.8303 17.796V23.5005H23.8308Z" fill="#FF6835"/>
<path d="M27.6786 35.0001C27.6786 36.849 26.1797 38.3479 24.3308 38.3479C24.1608 38.3479 23.9942 38.3352 23.8308 38.3113V46.0002H7.32451C4.56615 46.0002 2.33057 43.7647 2.33057 41.0063V24.5H9.53343C9.78121 26.6417 11.6007 28.3045 13.809 28.3045C16.0174 28.3045 17.8369 26.6417 18.0846 24.5H23.8308V31.689C23.9942 31.6651 24.1608 31.6523 24.3308 31.6523C26.1797 31.6523 27.6786 33.1512 27.6786 35.0001Z" fill="#C383D9"/>
<path d="M46.3313 24.5002V40.9004C46.3313 43.7171 44.0479 46.0004 41.2312 46.0004H24.8311V39.2759C26.9727 39.0281 28.6355 37.2086 28.6355 35.0003C28.6355 32.7919 26.9727 30.9725 24.8311 30.7247V24.5002H32.02C31.9961 24.3368 31.9834 24.1702 31.9834 24.0002C31.9834 22.1513 33.4823 20.6523 35.3312 20.6523C37.1801 20.6523 38.679 22.1513 38.679 24.0002C38.679 24.1702 38.6662 24.3368 38.6423 24.5002H46.3313Z" fill="#FFC33F"/>
<path d="M46.331 6.87561V6.88172L46.3132 20.7602L40.2665 21.5397C39.7626 19.4435 37.7559 18.0124 35.5636 18.2791C33.3714 18.5452 31.7658 20.4152 31.778 22.5714L25.5991 23.3219L24.7896 16.6602C24.6302 16.7041 24.4663 16.7368 24.2974 16.7574C22.4618 16.9802 20.7935 15.6729 20.5701 13.8374C20.3474 12.0023 21.6546 10.3334 23.4896 10.1106C23.6585 10.0901 23.8257 10.0823 23.9907 10.0862L23.0196 2H41.4554C44.1482 2 46.331 4.18336 46.331 6.87561Z" fill="#6692FD"/>
<path d="M37.3231 33.1193C37.4736 33.1193 37.6209 33.131 37.7653 33.1526L37.8498 30.2754H36.8003L36.8847 33.1515C37.0275 33.1299 37.1736 33.1188 37.3225 33.1188L37.3231 33.1193Z" fill="#BCBEC0"/>
<path d="M39.1281 33.7524L40.6337 31.2996L39.7237 30.7773L38.3647 33.314C38.4992 33.3663 38.632 33.4296 38.7609 33.5035C38.8914 33.5785 39.0136 33.6618 39.1275 33.7529L39.1281 33.7524Z" fill="#BCBEC0"/>
<path d="M39.8173 34.552C39.8929 34.682 39.9579 34.8153 40.0112 34.9509L42.5385 33.5731L42.0096 32.667L39.5679 34.1903C39.6584 34.3026 39.7423 34.4231 39.8173 34.552Z" fill="#BCBEC0"/>
<path d="M40.2114 35.9867C40.2125 36.1373 40.202 36.2845 40.1808 36.4289L43.0587 36.4928L43.0509 35.4434L40.1753 35.5489C40.1981 35.6917 40.2103 35.8378 40.2114 35.9867Z" fill="#BCBEC0"/>
<path d="M39.8387 37.4271C39.7648 37.5582 39.682 37.681 39.592 37.7954L42.056 39.2832L42.5715 38.3693L40.0248 37.0293C39.9737 37.1643 39.9115 37.2976 39.8382 37.4271H39.8387Z" fill="#BCBEC0"/>
<path d="M38.7976 38.4919C38.6682 38.5686 38.5354 38.6341 38.4004 38.6886L39.7965 41.2058L40.6988 40.6703L39.1576 38.2402C39.046 38.3319 38.926 38.4163 38.7976 38.4919Z" fill="#BCBEC0"/>
<path d="M37.3652 38.8959C37.2146 38.8981 37.0669 38.8887 36.9224 38.8687L36.8796 41.7465L37.9291 41.7315L37.8024 38.8564C37.6602 38.8803 37.5141 38.8937 37.3652 38.8959Z" fill="#BCBEC0"/>
<path d="M35.5513 38.2891L34.0813 40.7635L34.9991 41.2724L36.3208 38.7163C36.1852 38.6657 36.0519 38.6046 35.9219 38.533C35.7902 38.4602 35.6669 38.3785 35.5519 38.2891H35.5513Z" fill="#BCBEC0"/>
<path d="M34.8503 37.5006C34.7725 37.3717 34.7058 37.2395 34.6503 37.1045L32.1436 38.519L32.6858 39.4173L35.1047 37.8584C35.0125 37.7473 34.9269 37.6278 34.8503 37.5006Z" fill="#BCBEC0"/>
<path d="M34.4353 36.0699C34.432 35.9194 34.4403 35.7716 34.4592 35.6271L31.5808 35.6055L31.6036 36.6544L34.4775 36.5066C34.4525 36.3644 34.4381 36.2183 34.4347 36.0694L34.4353 36.0699Z" fill="#BCBEC0"/>
<path d="M34.7867 34.6247C34.859 34.4925 34.9395 34.3686 35.0278 34.2525L32.5423 32.8008L32.04 33.7219L34.6062 35.0247C34.6556 34.8891 34.7156 34.7552 34.7867 34.6241V34.6247Z" fill="#BCBEC0"/>
<path d="M35.8124 33.5466C35.9408 33.4677 36.0724 33.4005 36.2069 33.3438L34.7741 30.8477L33.8796 31.3966L35.4563 33.8038C35.5669 33.7105 35.6858 33.6244 35.8124 33.5466Z" fill="#BCBEC0"/>
<path d="M37.584 32.7267C37.7413 32.7267 37.8957 32.7389 38.0463 32.7617L38.1346 29.7539H37.0374L37.1257 32.7612C37.2751 32.7384 37.4279 32.7267 37.5835 32.7267H37.584Z" fill="#F7EDDA"/>
<path d="M39.4714 33.3879L41.0458 30.8235L40.0942 30.2773L38.6736 32.9296C38.8141 32.984 38.953 33.0502 39.088 33.1274C39.2241 33.2057 39.3525 33.2929 39.4714 33.3879Z" fill="#F7EDDA"/>
<path d="M40.1923 34.2245C40.2717 34.36 40.3389 34.4995 40.395 34.6412L43.0373 33.2011L42.484 32.2539L39.9312 33.8467C40.0262 33.9639 40.1134 34.0906 40.1917 34.225L40.1923 34.2245Z" fill="#F7EDDA"/>
<path d="M40.6038 35.726C40.6049 35.8832 40.5938 36.0377 40.5721 36.1888L43.5805 36.2554L43.5721 35.1582L40.5654 35.2688C40.5893 35.4177 40.6021 35.571 40.6032 35.7265L40.6038 35.726Z" fill="#F7EDDA"/>
<path d="M40.2138 37.232C40.1366 37.3686 40.0505 37.4975 39.9561 37.6175L42.5322 39.1731L43.0716 38.2175L40.4094 36.8164C40.3555 36.9575 40.2911 37.0964 40.2144 37.2325L40.2138 37.232Z" fill="#F7EDDA"/>
<path d="M39.1258 38.3434C38.9908 38.4234 38.8519 38.4923 38.7102 38.549L40.1697 41.1807L41.113 40.6207L39.5019 38.0801C39.3852 38.1756 39.2597 38.264 39.1258 38.3434Z" fill="#F7EDDA"/>
<path d="M37.6278 38.7677C37.4706 38.7699 37.3162 38.7605 37.1651 38.7393L37.1206 41.7483L38.2173 41.7322L38.0851 38.7266C37.9362 38.7516 37.7834 38.7655 37.6278 38.7677Z" fill="#F7EDDA"/>
<path d="M35.7315 38.1324L34.1948 40.7196L35.1543 41.2519L36.536 38.5791C36.3943 38.5263 36.2548 38.4624 36.1187 38.3868C35.9815 38.3107 35.8521 38.2252 35.7315 38.1318V38.1324Z" fill="#F7EDDA"/>
<path d="M34.9985 37.3074C34.9174 37.173 34.8479 37.0347 34.7896 36.8936L32.1685 38.3725L32.7351 39.3114L35.264 37.6813C35.1674 37.5652 35.0785 37.4402 34.9979 37.3069L34.9985 37.3074Z" fill="#F7EDDA"/>
<path d="M34.5645 35.8131C34.5612 35.6559 34.5695 35.5015 34.5895 35.3503L31.5806 35.3281L31.6045 36.4248L34.6089 36.2704C34.5828 36.1215 34.5678 35.9687 34.5645 35.8131Z" fill="#F7EDDA"/>
<path d="M34.9327 34.3012C35.0077 34.1634 35.0921 34.0334 35.1849 33.9123L32.5865 32.3945L32.0615 33.3579L34.7443 34.7201C34.796 34.5779 34.8588 34.4384 34.9332 34.3018L34.9327 34.3012Z" fill="#F7EDDA"/>
<path d="M36.0045 33.1723C36.1384 33.0901 36.2761 33.0195 36.4167 32.9606L34.9189 30.3506L33.9839 30.9245L35.6322 33.4412C35.7478 33.344 35.8717 33.2534 36.0045 33.1723Z" fill="#F7EDDA"/>
<path d="M37.584 38.1597C38.9169 38.1597 39.9974 37.0792 39.9974 35.7464C39.9974 34.4135 38.9169 33.333 37.584 33.333C36.2512 33.333 35.1707 34.4135 35.1707 35.7464C35.1707 37.0792 36.2512 38.1597 37.584 38.1597Z" fill="#FF6835"/>
<path d="M37.5839 38.159C38.6789 38.159 39.5667 37.2712 39.5667 36.1762C39.5667 35.0811 38.6789 34.1934 37.5839 34.1934C36.4888 34.1934 35.6011 35.0811 35.6011 36.1762C35.6011 37.2712 36.4888 38.159 37.5839 38.159Z" fill="#EFE1C3"/>
<path d="M15.2942 17.5227L16.853 15.9639L8.36765 7.47849L6.80885 9.03728L15.2942 17.5227Z" fill="#F2DFDA"/>
<path d="M6.80864 15.9646L8.36743 17.5234L16.8528 9.03806L15.294 7.47926L6.80864 15.9646Z" fill="#F2DFDA"/>
<path d="M17.8308 13.6029V11.3984H5.83067V13.6029H17.8308Z" fill="#F2DFDA"/>
<path d="M10.7284 18.5H12.9329L12.9329 6.49986H10.7284L10.7284 18.5Z" fill="#F2DFDA"/>
<path d="M13.9546 12.4999L13.3329 13.1221V14.0021H12.4529L11.8307 14.6238L11.2085 14.0021H10.3285V13.1221L9.70679 12.4999L10.3285 11.8777V10.9977H11.2085L11.8307 10.376L12.4529 10.9977H13.3329V11.8777L13.9546 12.4999Z" fill="#FF6835"/>
<path d="M35.8875 10.3117L35.487 10.8228L35.5648 11.4673L34.9203 11.5456L34.5197 12.0567L34.0081 11.6562L32.7742 10.6884L33.1747 10.1773L33.097 9.53281L33.7414 9.45448L34.1425 8.94336L34.6536 9.34392L35.3764 9.91059L35.8875 10.3117Z" fill="#BCBEC0"/>
<path d="M39.0888 8.80714L36.8549 9.0777L38.2433 7.30657C38.621 6.8249 38.5366 6.12767 38.0549 5.74989C37.5733 5.37211 36.876 5.45655 36.4982 5.93822L35.1099 7.70935L34.8393 5.47544C34.7654 4.86766 34.2132 4.43432 33.6054 4.50821C32.9976 4.5821 32.5643 5.13432 32.6382 5.74211L32.9088 7.97602L31.1376 6.58768C30.656 6.20989 29.9587 6.29434 29.5809 6.77601C29.2032 7.25768 29.2876 7.95491 29.7693 8.3327L31.5404 9.72104L29.3065 9.9916C28.6987 10.0655 28.2654 10.6177 28.3393 11.2255C28.4132 11.8333 28.9654 12.2666 29.5732 12.1927L31.8071 11.9222L30.4187 13.6933C30.2298 13.9344 30.1565 14.2289 30.1904 14.5105C30.2243 14.7922 30.3659 15.0611 30.6071 15.25C31.0887 15.6278 31.786 15.5433 32.1637 15.0617L33.5521 13.2905L33.8227 15.5244C33.8593 15.8283 34.016 16.0889 34.2393 16.2639C34.4627 16.4389 34.7527 16.5289 35.0566 16.4922C35.6643 16.4183 36.0977 15.8661 36.0238 15.2583L35.7532 13.0244L37.5244 14.4128C37.7655 14.6017 38.0599 14.675 38.3416 14.6411C38.6233 14.6072 38.8922 14.4655 39.081 14.2244C39.4588 13.7428 39.3744 13.0455 38.8927 12.6677L37.1216 11.2794L39.3555 11.0088C39.6594 10.9722 39.9194 10.8155 40.095 10.5922C40.27 10.3688 40.36 10.0788 40.3233 9.77493C40.2494 9.16715 39.6972 8.73381 39.0894 8.8077L39.0888 8.80714ZM35.4871 10.8227L35.5655 11.4672L34.921 11.5455L34.5204 12.0566L34.0093 11.6561L33.3649 11.7344L33.2865 11.0899L32.7754 10.6894L33.176 10.1783L33.0976 9.53382L33.7421 9.45549L34.1427 8.94437L34.6538 9.34493L35.2982 9.2666L35.3766 9.91105L35.8877 10.3116L35.4871 10.8227Z" fill="#D9E2F4"/>
<path d="M35.8875 10.3117L35.487 10.8228L34.9203 11.5456L34.5197 12.0567L34.0081 11.6562L33.3636 11.7339L33.2853 11.0895L32.7742 10.6884L33.1747 10.1773L33.7414 9.45448L34.1425 8.94336L34.6536 9.34392L35.2981 9.26614L35.3764 9.91059L35.8875 10.3117Z" fill="#BCBEC0"/>
<path d="M35.8875 10.3122L35.487 10.8233L35.5648 11.4677L33.3636 11.7344L33.2853 11.09L32.7742 10.6888L33.1747 10.1777L33.097 9.53327L35.2981 9.2666L35.3764 9.91105L35.8875 10.3122Z" fill="#BCBEC0"/>
<path d="M35.2983 9.26614L35.565 11.4673L34.9205 11.5456L34.52 12.0567L34.0083 11.6562L33.3638 11.7339L33.0972 9.53281L33.7416 9.45448L34.1427 8.94336L34.6539 9.34392L35.2983 9.26614Z" fill="#BCBEC0"/>
<path d="M34.331 12.3323C35.3426 12.3323 36.1626 11.5122 36.1626 10.5006C36.1626 9.48902 35.3426 8.66895 34.331 8.66895C33.3193 8.66895 32.4993 9.48902 32.4993 10.5006C32.4993 11.5122 33.3193 12.3323 34.331 12.3323Z" fill="#FFC33F"/>
<path d="M15.5732 32.5303C15.5732 33.1736 15.4115 33.7792 15.1259 34.3081C14.7465 35.0114 14.1492 35.5798 13.4242 35.9226C12.9431 36.1503 12.4053 36.2787 11.8381 36.2809C11.8298 36.2809 11.8214 36.2809 11.8131 36.2809H11.807C11.8037 36.2809 11.8003 36.2809 11.797 36.2809C11.792 36.2809 11.7864 36.2809 11.7814 36.2809C11.2042 36.2748 10.6587 36.1387 10.1725 35.8998C9.52197 35.5803 8.97697 35.0781 8.60529 34.4598C8.26696 33.8964 8.07251 33.237 8.07251 32.532C8.07251 32.417 8.07751 32.3036 8.08807 32.1914C10.107 32.1992 11.7498 33.8031 11.8203 35.807C11.822 35.807 11.8237 35.807 11.8253 35.807C11.8959 33.8031 13.5387 32.1997 15.5576 32.1914C15.5676 32.3036 15.5732 32.4175 15.5732 32.532V32.5303Z" fill="#EFD9F9"/>
<path d="M17.8306 36.0011C17.8306 37.0305 17.5717 37.9989 17.1151 38.845C16.5084 39.97 15.5528 40.8795 14.3928 41.4278C13.6228 41.7922 12.7628 41.9972 11.855 42.0011C11.8417 42.0011 11.8289 42.0011 11.8156 42.0011H11.8061C11.8006 42.0011 11.7956 42.0011 11.79 42.0011C11.7817 42.0011 11.7733 42.0011 11.765 42.0011C10.8417 41.9917 9.96888 41.7734 9.19054 41.3911C8.14942 40.8806 7.27774 40.0767 6.68329 39.0867C6.68329 39.0867 6.68329 39.0867 6.68329 39.0861C6.14217 38.185 5.83105 37.13 5.83105 36.0016C5.83105 35.8177 5.83939 35.6361 5.8555 35.4561C9.08609 35.4688 11.7139 38.0344 11.8272 41.2406C11.83 41.2406 11.8328 41.2406 11.835 41.2406C11.9478 38.0344 14.5762 35.4688 17.8067 35.4561C17.8229 35.6355 17.8312 35.8177 17.8312 36.0016L17.8306 36.0011Z" fill="#EFD9F9"/>
<path d="M15.5732 32.5303C15.5732 33.1736 15.4115 33.7792 15.1259 34.3081C14.7465 35.0114 14.1492 35.5798 13.4242 35.9226C12.9431 36.1503 12.4053 36.2787 11.8381 36.2809C11.8298 36.2809 11.8214 36.2809 11.8131 36.2809H11.807C11.8037 36.2809 11.8003 36.2809 11.797 36.2809C11.792 36.2809 11.7864 36.2809 11.7814 36.2809C11.2042 36.2748 10.6587 36.1387 10.1725 35.8998C9.52197 35.5803 8.97697 35.0781 8.60529 34.4598C8.26696 33.8964 8.07251 33.237 8.07251 32.532C8.07251 32.417 8.07751 32.3036 8.08807 32.1914C10.107 32.1992 11.7498 33.8031 11.8203 35.807C11.822 35.807 11.8237 35.807 11.8253 35.807C11.8959 33.8031 13.5387 32.1997 15.5576 32.1914C15.5676 32.3036 15.5732 32.4175 15.5732 32.532V32.5303Z" fill="#EFD9F9"/>
<path d="M17.8306 36.0011C17.8306 37.0305 17.5717 37.9989 17.1151 38.845C16.5084 39.97 15.5528 40.8795 14.3928 41.4278C13.6228 41.7922 12.7628 41.9972 11.855 42.0011C11.8417 42.0011 11.8289 42.0011 11.8156 42.0011H11.8061C11.8006 42.0011 11.7956 42.0011 11.79 42.0011C11.7817 42.0011 11.7733 42.0011 11.765 42.0011C10.8417 41.9917 9.96888 41.7734 9.19054 41.3911C8.14942 40.8806 7.27774 40.0767 6.68329 39.0867C6.68329 39.0867 6.68329 39.0867 6.68329 39.0861C6.14217 38.185 5.83105 37.13 5.83105 36.0016C5.83105 35.8177 5.83939 35.6361 5.8555 35.4561C9.08609 35.4688 11.7139 38.0344 11.8272 41.2406C11.83 41.2406 11.8328 41.2406 11.835 41.2406C11.9478 38.0344 14.5762 35.4688 17.8067 35.4561C17.8229 35.6355 17.8312 35.8177 17.8312 36.0016L17.8306 36.0011Z" fill="#EFD9F9"/>
<path d="M11.791 41.1895H11.8549C12.0101 41.1895 12.136 41.0636 12.136 40.9083L12.136 32.4705C12.136 32.3152 12.0101 32.1893 11.8549 32.1893H11.791C11.6357 32.1893 11.5099 32.3152 11.5099 32.4705L11.5099 40.9083C11.5099 41.0636 11.6357 41.1895 11.791 41.1895Z" fill="#EFD9F9"/>
<path d="M14.0731 30.2127C14.0731 30.5988 13.9758 30.9621 13.8047 31.2794C13.5769 31.701 13.2186 32.0421 12.7836 32.2477C12.4947 32.3844 12.1725 32.4616 11.8319 32.4627C11.8269 32.4627 11.8219 32.4627 11.8169 32.4627H11.8136C11.8136 32.4627 11.8097 32.4627 11.8075 32.4627C11.8041 32.4627 11.8014 32.4627 11.798 32.4627C11.4519 32.4594 11.1247 32.3771 10.8325 32.2338C10.4419 32.0421 10.1152 31.741 9.89245 31.3699C9.68967 31.0321 9.573 30.636 9.573 30.2132C9.573 30.1443 9.57633 30.076 9.58244 30.0088C10.7941 30.0138 11.7797 30.976 11.8219 32.1783C11.823 32.1783 11.8241 32.1783 11.8247 32.1783C11.8669 30.976 12.8525 30.0138 14.0642 30.0088C14.0703 30.076 14.0736 30.1443 14.0736 30.2132L14.0731 30.2127Z" fill="#00A79D"/>
<path d="M63.1511 14.5C63.1511 14.1667 63.0044 13.8667 62.7111 13.6C62.4311 13.3333 62.0644 13.08 61.6111 12.84C61.1577 12.6 60.6777 12.3467 60.1711 12.08C59.6777 11.8133 59.2044 11.5067 58.7511 11.16C58.2977 10.8 57.9244 10.38 57.6311 9.9C57.3511 9.42 57.2111 8.85333 57.2111 8.2C57.2111 7.05333 57.5844 6.12667 58.3311 5.42C59.0777 4.71333 60.1177 4.36 61.4511 4.36C61.8377 4.36 62.2377 4.4 62.6511 4.48C63.0777 4.56 63.4844 4.67333 63.8711 4.82C64.2711 4.95333 64.6177 5.12 64.9111 5.32C65.1377 5.46667 65.2711 5.61333 65.3111 5.76C65.3644 5.89333 65.3377 6.07333 65.2311 6.3L64.6711 7.52C64.5777 7.70667 64.4644 7.82667 64.3311 7.88C64.2111 7.92 64.0311 7.89333 63.7911 7.8C63.4177 7.62667 63.0177 7.48 62.5911 7.36C62.1777 7.22667 61.7977 7.16 61.4511 7.16C61.0777 7.16 60.7577 7.22667 60.4911 7.36C60.2377 7.48 60.1111 7.69333 60.1111 8C60.1111 8.30667 60.2511 8.59333 60.5311 8.86C60.8244 9.11333 61.1977 9.36667 61.6511 9.62C62.1044 9.86 62.5777 10.12 63.0711 10.4C63.5777 10.6667 64.0577 10.98 64.5111 11.34C64.9644 11.6867 65.3311 12.0933 65.6111 12.56C65.9044 13.0267 66.0511 13.5733 66.0511 14.2C66.0511 15.4533 65.6511 16.44 64.8511 17.16C64.0644 17.88 62.9711 18.24 61.5711 18.24C61.0777 18.24 60.5644 18.1867 60.0311 18.08C59.4977 17.9733 58.9777 17.82 58.4711 17.62C57.9777 17.42 57.5311 17.18 57.1311 16.9C56.9177 16.74 56.7777 16.6 56.7111 16.48C56.6577 16.3467 56.6911 16.16 56.8111 15.92L57.3911 14.72C57.4977 14.52 57.6111 14.3933 57.7311 14.34C57.8511 14.2733 58.0311 14.3067 58.2711 14.44C58.8577 14.76 59.4577 15.0067 60.0711 15.18C60.6977 15.3533 61.2377 15.44 61.6911 15.44C62.1177 15.44 62.4644 15.38 62.7311 15.26C63.0111 15.1267 63.1511 14.8733 63.1511 14.5ZM71.8482 22.2C71.1549 22.2 70.4416 22.1133 69.7082 21.94C68.9749 21.7667 68.3549 21.4733 67.8482 21.06C67.6882 20.9267 67.6149 20.7933 67.6282 20.66C67.6549 20.54 67.7016 20.3933 67.7682 20.22L68.2482 19.02C68.3549 18.74 68.4616 18.5467 68.5682 18.44C68.6749 18.3467 68.8149 18.3533 68.9882 18.46C69.2416 18.5933 69.5282 18.7267 69.8482 18.86C70.1682 18.9933 70.4949 19.1 70.8282 19.18C71.1749 19.26 71.5016 19.3 71.8082 19.3C72.1816 19.3 72.5082 19.2467 72.7882 19.14C73.0816 19.0333 73.3082 18.8533 73.4682 18.6C73.6416 18.3467 73.7282 17.9933 73.7282 17.54V16.1C73.3549 16.6867 72.8749 17.1267 72.2882 17.42C71.7149 17.7 71.1482 17.84 70.5882 17.84C69.6149 17.84 68.8082 17.5133 68.1682 16.86C67.5282 16.1933 67.2082 15.1333 67.2082 13.68V8.4C67.2082 7.86667 67.4749 7.6 68.0082 7.6H69.2082C69.7416 7.6 70.0082 7.86667 70.0082 8.4V12.78C70.0082 13.5133 70.1416 14.06 70.4082 14.42C70.6882 14.7667 71.0682 14.94 71.5482 14.94C71.9882 14.94 72.3682 14.8467 72.6882 14.66C73.0216 14.4733 73.2749 14.1867 73.4482 13.8C73.6349 13.4 73.7282 12.8933 73.7282 12.28V8.8C73.7282 8.26667 73.9949 8 74.5282 8H75.7282C76.2616 8 76.5282 8.26667 76.5282 8.8V17.82C76.5282 18.86 76.3216 19.7 75.9082 20.34C75.4949 20.9933 74.9349 21.4667 74.2282 21.76C73.5216 22.0533 72.7282 22.2 71.8482 22.2ZM81.1248 17.6C81.1248 18.1333 80.8581 18.4 80.3248 18.4H79.1248C78.5915 18.4 78.3248 18.1333 78.3248 17.6V8C78.3248 7.46667 78.5915 7.2 79.1248 7.2H80.3248C80.8581 7.2 81.1248 7.46667 81.1248 8V9.5C81.5115 8.91333 81.9915 8.48 82.5648 8.2C83.1381 7.90667 83.7048 7.76 84.2648 7.76C85.2381 7.76 86.0448 8.09333 86.6848 8.76C87.3248 9.41333 87.6448 10.4667 87.6448 11.92V17.2C87.6448 17.7333 87.3781 18 86.8448 18H85.6448C85.1115 18 84.8448 17.7333 84.8448 17.2V12.82C84.8448 12.0867 84.7048 11.5467 84.4248 11.2C84.1581 10.84 83.7848 10.66 83.3048 10.66C82.8648 10.66 82.4781 10.7533 82.1448 10.94C81.8248 11.1267 81.5715 11.42 81.3848 11.82C81.2115 12.2067 81.1248 12.7067 81.1248 13.32V17.6ZM94.0614 18.24C93.008 18.24 92.088 18.02 91.3014 17.58C90.5147 17.14 89.9014 16.5267 89.4614 15.74C89.0347 14.94 88.8214 14.0267 88.8214 13C88.8214 12.04 89.008 11.1667 89.3814 10.38C89.7547 9.58 90.3147 8.94667 91.0614 8.48C91.808 8 92.7347 7.76 93.8414 7.76C94.708 7.76 95.4614 7.94667 96.1014 8.32C96.7547 8.68 97.2614 9.2 97.6214 9.88C97.9814 10.5467 98.1614 11.3467 98.1614 12.28C98.1614 12.68 98.1147 12.9733 98.0214 13.16C97.9414 13.3467 97.728 13.46 97.3814 13.5L91.8014 14.14C92.0014 14.58 92.3214 14.94 92.7614 15.22C93.2014 15.5 93.7614 15.64 94.4414 15.64C94.828 15.64 95.2214 15.5467 95.6214 15.36C96.0347 15.1733 96.408 14.9867 96.7414 14.8C96.888 14.7067 97.028 14.7 97.1614 14.78C97.308 14.8467 97.4147 14.9733 97.4814 15.16L97.8814 16.2C97.948 16.3867 97.988 16.54 98.0014 16.66C98.028 16.78 97.9614 16.9067 97.8014 17.04C97.308 17.4267 96.7214 17.7267 96.0414 17.94C95.3614 18.14 94.7014 18.24 94.0614 18.24ZM93.6414 10.36C93.1214 10.36 92.6947 10.4867 92.3614 10.74C92.028 10.98 91.8014 11.3933 91.6814 11.98L95.2814 11.56C95.188 11.2 94.9947 10.9133 94.7014 10.7C94.4214 10.4733 94.068 10.36 93.6414 10.36ZM102.179 17.2C102.179 17.7333 101.913 18 101.379 18H100.179C99.6462 18 99.3795 17.7333 99.3795 17.2V7.8C99.3795 7.26667 99.6462 7 100.179 7H101.379C101.913 7 102.179 7.26667 102.179 7.8V9.46C102.513 8.91333 102.913 8.49333 103.379 8.2C103.859 7.90667 104.333 7.76 104.799 7.76C105.026 7.76 105.239 7.78667 105.439 7.84C105.653 7.88 105.826 7.94 105.959 8.02C106.106 8.11333 106.166 8.24 106.139 8.4L105.939 10.7C105.926 10.8467 105.873 10.9467 105.779 11C105.699 11.0533 105.573 11.06 105.399 11.02C105.119 10.9533 104.879 10.9133 104.679 10.9C104.479 10.8733 104.293 10.86 104.119 10.86C103.573 10.86 103.113 11.0667 102.739 11.48C102.366 11.8933 102.179 12.5067 102.179 13.32V17.2ZM111.531 14.7C111.998 14.7 112.398 14.6 112.731 14.4C113.064 14.1867 113.318 13.88 113.491 13.48C113.664 13.08 113.751 12.6 113.751 12.04V10.94C113.458 10.8333 113.144 10.76 112.811 10.72C112.491 10.6667 112.138 10.64 111.751 10.64C111.111 10.64 110.578 10.8267 110.151 11.2C109.738 11.5733 109.531 12.1333 109.531 12.88C109.531 13.2267 109.611 13.54 109.771 13.82C109.944 14.1 110.178 14.32 110.471 14.48C110.778 14.6267 111.131 14.7 111.531 14.7ZM111.871 22.2C111.178 22.2 110.464 22.1133 109.731 21.94C108.998 21.7667 108.378 21.4733 107.871 21.06C107.711 20.9267 107.638 20.7933 107.651 20.66C107.678 20.54 107.724 20.3933 107.791 20.22L108.271 19.02C108.351 18.8333 108.458 18.7 108.591 18.62C108.724 18.5533 108.864 18.5667 109.011 18.66C109.251 18.78 109.524 18.8867 109.831 18.98C110.151 19.0867 110.484 19.1667 110.831 19.22C111.178 19.2733 111.511 19.3 111.831 19.3C112.204 19.3 112.531 19.2467 112.811 19.14C113.104 19.0333 113.331 18.8533 113.491 18.6C113.664 18.3467 113.751 17.9933 113.751 17.54V16.46C113.404 16.8333 112.984 17.12 112.491 17.32C112.011 17.5067 111.498 17.6 110.951 17.6C110.178 17.6 109.471 17.4067 108.831 17.02C108.191 16.6333 107.678 16.0867 107.291 15.38C106.918 14.66 106.731 13.8267 106.731 12.88C106.731 11.8267 106.951 10.92 107.391 10.16C107.844 9.4 108.451 8.81333 109.211 8.4C109.971 7.97333 110.818 7.76 111.751 7.76C112.098 7.76 112.431 7.78 112.751 7.82C113.084 7.86 113.418 7.92 113.751 8V7.8C113.751 7.26667 114.018 7 114.551 7H115.751C116.284 7 116.551 7.26667 116.551 7.8V17.82C116.551 18.86 116.344 19.7 115.931 20.34C115.518 20.9933 114.958 21.4667 114.251 21.76C113.544 22.0533 112.751 22.2 111.871 22.2ZM122.844 22.2C122.151 22.2 121.438 22.1133 120.704 21.94C119.971 21.7667 119.351 21.4733 118.844 21.06C118.684 20.9267 118.611 20.7933 118.624 20.66C118.651 20.54 118.698 20.3933 118.764 20.22L119.244 19.02C119.351 18.74 119.458 18.5467 119.564 18.44C119.671 18.3467 119.811 18.3533 119.984 18.46C120.238 18.5933 120.524 18.7267 120.844 18.86C121.164 18.9933 121.491 19.1 121.824 19.18C122.171 19.26 122.498 19.3 122.804 19.3C123.178 19.3 123.504 19.2467 123.784 19.14C124.078 19.0333 124.304 18.8533 124.464 18.6C124.638 18.3467 124.724 17.9933 124.724 17.54V16.1C124.351 16.6867 123.871 17.1267 123.284 17.42C122.711 17.7 122.144 17.84 121.584 17.84C120.611 17.84 119.804 17.5133 119.164 16.86C118.524 16.1933 118.204 15.1333 118.204 13.68V8.4C118.204 7.86667 118.471 7.6 119.004 7.6H120.204C120.738 7.6 121.004 7.86667 121.004 8.4V12.78C121.004 13.5133 121.138 14.06 121.404 14.42C121.684 14.7667 122.064 14.94 122.544 14.94C122.984 14.94 123.364 14.8467 123.684 14.66C124.018 14.4733 124.271 14.1867 124.444 13.8C124.631 13.4 124.724 12.8933 124.724 12.28V8.8C124.724 8.26667 124.991 8 125.524 8H126.724C127.258 8 127.524 8.26667 127.524 8.8V17.82C127.524 18.86 127.318 19.7 126.904 20.34C126.491 20.9933 125.931 21.4667 125.224 21.76C124.518 22.0533 123.724 22.2 122.844 22.2ZM58.1311 39C57.5844 39 57.3177 38.7333 57.3311 38.2L57.7311 26.4C57.7444 25.8667 58.0111 25.6 58.5311 25.6H65.4311C65.9644 25.6 66.2311 25.8667 66.2311 26.4V27.62C66.2311 28.14 65.9711 28.4 65.4511 28.4H60.4711L60.3711 30.96L64.6311 30.68C65.1644 30.64 65.4311 30.9067 65.4311 31.48V32.7C65.4311 33.18 65.1711 33.44 64.6511 33.48L60.2911 33.78L60.1911 36.2H65.4311C65.9644 36.2 66.2311 36.4667 66.2311 37V38.22C66.2311 38.74 65.9711 39 65.4511 39H58.1311ZM70.5584 38.6C70.5584 39.1333 70.2917 39.4 69.7584 39.4H68.5584C68.0251 39.4 67.7584 39.1333 67.7584 38.6V29C67.7584 28.4667 68.0251 28.2 68.5584 28.2H69.7584C70.2917 28.2 70.5584 28.4667 70.5584 29V30.5C70.9451 29.9133 71.4251 29.48 71.9984 29.2C72.5717 28.9067 73.1384 28.76 73.6984 28.76C74.6717 28.76 75.4784 29.0933 76.1184 29.76C76.7584 30.4133 77.0784 31.4667 77.0784 32.92V38.2C77.0784 38.7333 76.8117 39 76.2784 39H75.0784C74.5451 39 74.2784 38.7333 74.2784 38.2V33.82C74.2784 33.0867 74.1384 32.5467 73.8584 32.2C73.5917 31.84 73.2184 31.66 72.7384 31.66C72.2984 31.66 71.9117 31.7533 71.5784 31.94C71.2584 32.1267 71.0051 32.42 70.8184 32.82C70.6451 33.2067 70.5584 33.7067 70.5584 34.32V38.6ZM83.035 35.7C83.5016 35.7 83.9016 35.6 84.235 35.4C84.5683 35.1867 84.8216 34.88 84.995 34.48C85.1683 34.08 85.255 33.6 85.255 33.04V31.94C84.9616 31.8333 84.6483 31.76 84.315 31.72C83.995 31.6667 83.6416 31.64 83.255 31.64C82.615 31.64 82.0816 31.8267 81.655 32.2C81.2416 32.5733 81.035 33.1333 81.035 33.88C81.035 34.2267 81.115 34.54 81.275 34.82C81.4483 35.1 81.6816 35.32 81.975 35.48C82.2816 35.6267 82.635 35.7 83.035 35.7ZM83.375 43.2C82.6816 43.2 81.9683 43.1133 81.235 42.94C80.5016 42.7667 79.8816 42.4733 79.375 42.06C79.215 41.9267 79.1416 41.7933 79.155 41.66C79.1816 41.54 79.2283 41.3933 79.295 41.22L79.775 40.02C79.855 39.8333 79.9616 39.7 80.095 39.62C80.2283 39.5533 80.3683 39.5667 80.515 39.66C80.755 39.78 81.0283 39.8867 81.335 39.98C81.655 40.0867 81.9883 40.1667 82.335 40.22C82.6816 40.2733 83.015 40.3 83.335 40.3C83.7083 40.3 84.035 40.2467 84.315 40.14C84.6083 40.0333 84.835 39.8533 84.995 39.6C85.1683 39.3467 85.255 38.9933 85.255 38.54V37.46C84.9083 37.8333 84.4883 38.12 83.995 38.32C83.515 38.5067 83.0016 38.6 82.455 38.6C81.6816 38.6 80.975 38.4067 80.335 38.02C79.695 37.6333 79.1816 37.0867 78.795 36.38C78.4216 35.66 78.235 34.8267 78.235 33.88C78.235 32.8267 78.455 31.92 78.895 31.16C79.3483 30.4 79.955 29.8133 80.715 29.4C81.475 28.9733 82.3216 28.76 83.255 28.76C83.6016 28.76 83.935 28.78 84.255 28.82C84.5883 28.86 84.9216 28.92 85.255 29V28.8C85.255 28.2667 85.5216 28 86.055 28H87.255C87.7883 28 88.055 28.2667 88.055 28.8V38.82C88.055 39.86 87.8483 40.7 87.435 41.34C87.0216 41.9933 86.4616 42.4667 85.755 42.76C85.0483 43.0533 84.255 43.2 83.375 43.2ZM92.7482 38.2C92.7482 38.7333 92.4816 39 91.9482 39H90.6482C90.1149 39 89.8482 38.7333 89.8482 38.2V25.4C89.8482 24.8667 90.1149 24.6 90.6482 24.6H91.9482C92.4816 24.6 92.7482 24.8667 92.7482 25.4V38.2ZM95.9553 28.02C95.5019 28.02 95.1019 27.8533 94.7553 27.52C94.4219 27.1733 94.2553 26.7667 94.2553 26.3C94.2553 25.8333 94.4219 25.4333 94.7553 25.1C95.1019 24.7667 95.5019 24.6 95.9553 24.6C96.4219 24.6 96.8219 24.7667 97.1553 25.1C97.4886 25.4333 97.6553 25.8333 97.6553 26.3C97.6553 26.7667 97.4886 27.1733 97.1553 27.52C96.8219 27.8533 96.4219 28.02 95.9553 28.02ZM97.3553 38.2C97.3553 38.7333 97.0886 39 96.5553 39H95.3553C94.8219 39 94.5553 38.7333 94.5553 38.2V30.2C94.5553 29.6667 94.8219 29.4 95.3553 29.4H96.5553C97.0886 29.4 97.3553 29.6667 97.3553 30.2V38.2ZM98.8846 31.98C98.8846 31.06 99.218 30.2933 99.8846 29.68C100.551 29.0667 101.471 28.76 102.645 28.76C103.005 28.76 103.385 28.7933 103.785 28.86C104.185 28.9267 104.571 29.0267 104.945 29.16C105.331 29.2933 105.665 29.4667 105.945 29.68C106.105 29.8 106.171 29.9333 106.145 30.08C106.131 30.2133 106.091 30.36 106.025 30.52L105.605 31.56C105.538 31.7333 105.431 31.8533 105.285 31.92C105.151 31.9733 105.011 31.9733 104.865 31.92C104.385 31.7333 103.951 31.5867 103.565 31.48C103.178 31.36 102.778 31.3 102.365 31.3C101.845 31.3 101.585 31.48 101.585 31.84C101.585 32.08 101.698 32.26 101.925 32.38C102.165 32.5 102.471 32.6 102.845 32.68C103.218 32.76 103.611 32.8533 104.025 32.96C104.438 33.0667 104.831 33.22 105.205 33.42C105.578 33.62 105.878 33.9067 106.105 34.28C106.345 34.64 106.465 35.12 106.465 35.72C106.465 36.5867 106.265 37.28 105.865 37.8C105.478 38.3067 104.985 38.6733 104.385 38.9C103.785 39.1267 103.171 39.24 102.545 39.24C102.118 39.24 101.685 39.2 101.245 39.12C100.805 39.0533 100.385 38.94 99.9846 38.78C99.598 38.62 99.2446 38.4133 98.9246 38.16C98.7646 38.0267 98.698 37.8933 98.7246 37.76C98.7513 37.6267 98.7913 37.48 98.8446 37.32L99.2446 36.2C99.3113 36.0267 99.4113 35.9 99.5446 35.82C99.6913 35.74 99.838 35.7467 99.9846 35.84C100.318 36.0133 100.731 36.1867 101.225 36.36C101.718 36.52 102.211 36.6 102.705 36.6C103.038 36.6 103.298 36.56 103.485 36.48C103.671 36.4 103.765 36.26 103.765 36.06C103.765 35.82 103.645 35.64 103.405 35.52C103.178 35.3867 102.878 35.28 102.505 35.2C102.131 35.1067 101.738 35 101.325 34.88C100.911 34.76 100.518 34.5933 100.145 34.38C99.7713 34.1667 99.4646 33.8733 99.2246 33.5C98.998 33.1133 98.8846 32.6067 98.8846 31.98ZM110.519 38.2C110.519 38.7333 110.253 39 109.719 39H108.519C107.986 39 107.719 38.7333 107.719 38.2V25.8C107.719 25.2667 107.986 25 108.519 25H109.719C110.253 25 110.519 25.2667 110.519 25.8V30.5C110.906 29.9133 111.386 29.48 111.959 29.2C112.533 28.9067 113.099 28.76 113.659 28.76C114.633 28.76 115.439 29.0933 116.079 29.76C116.719 30.4133 117.039 31.4667 117.039 32.92V38.6C117.039 39.1333 116.773 39.4 116.239 39.4H115.039C114.506 39.4 114.239 39.1333 114.239 38.6V33.82C114.239 33.0867 114.099 32.5467 113.819 32.2C113.553 31.84 113.179 31.66 112.699 31.66C112.259 31.66 111.873 31.7533 111.539 31.94C111.219 32.1267 110.966 32.42 110.779 32.82C110.606 33.2067 110.519 33.7067 110.519 34.32V38.2Z" fill="black"/>
</svg>
