<svg width="230" height="230" viewBox="0 0 230 230" fill="none" xmlns="http://www.w3.org/2000/svg">
<g id="Moon-initial">
<g id="moon">
<circle id="Ellipse 38" cx="114.907" cy="114.907" r="114.907" fill="#FF6835"/>
<g id="Eyes">
<g id="Left Eye" clip-path="url(#clip0_37_126)">
<g id="Mask group">
<mask id="mask0_37_126" style="mask-type:alpha" maskUnits="userSpaceOnUse" x="35" y="56" width="51" height="64">
<g id="Group">
<path id="Vector" d="M60.3639 119.23C74.0559 119.23 85.1555 105.171 85.1555 87.8275C85.1555 70.4843 74.0559 56.4248 60.3639 56.4248C46.6718 56.4248 35.5723 70.4843 35.5723 87.8275C35.5723 105.171 46.6718 119.23 60.3639 119.23Z" fill="white"/>
</g>
</mask>
<g mask="url(#mask0_37_126)">
<g id="Group_2">
<path id="Vector_2" d="M99.6702 55.6089H21.0586V119.962H99.6702V55.6089Z" fill="white"/>
<path id="Vector_3" d="M76.2312 86.4555C76.2312 77.6926 69.1275 70.5889 60.3646 70.5889C51.6018 70.5889 44.498 77.6926 44.498 86.4555V89.1157C44.498 97.8785 51.6018 104.982 60.3646 104.982C69.1275 104.982 76.2312 97.8785 76.2312 89.1157V86.4555Z" fill="black"/>
</g>
</g>
</g>
</g>
<g id="Right Eye" clip-path="url(#clip1_37_126)">
<g id="Mask group_2">
<mask id="mask1_37_126" style="mask-type:alpha" maskUnits="userSpaceOnUse" x="103" y="56" width="51" height="64">
<g id="Group_3">
<path id="Vector_4" d="M128.364 119.23C142.056 119.23 153.155 105.171 153.155 87.8275C153.155 70.4843 142.056 56.4248 128.364 56.4248C114.672 56.4248 103.572 70.4843 103.572 87.8275C103.572 105.171 114.672 119.23 128.364 119.23Z" fill="white"/>
</g>
</mask>
<g mask="url(#mask1_37_126)">
<g id="Group_4">
<path id="Vector_5" d="M167.67 55.6089H89.0586V119.962H167.67V55.6089Z" fill="white"/>
<path id="Vector_6" d="M144.231 86.4555C144.231 77.6926 137.128 70.5889 128.365 70.5889C119.602 70.5889 112.498 77.6926 112.498 86.4555V89.1157C112.498 97.8785 119.602 104.982 128.365 104.982C137.128 104.982 144.231 97.8785 144.231 89.1157V86.4555Z" fill="black"/>
</g>
</g>
</g>
</g>
<path id="Mouth" d="M72.4316 140.288C79.3274 150.228 98.8551 164.146 121.799 140.288" stroke="black" stroke-width="8" stroke-linecap="round"/>
</g>
</g>
</g>
<defs>
<clipPath id="clip0_37_126">
<rect width="51" height="64" fill="white" transform="translate(35 56)"/>
</clipPath>
<clipPath id="clip1_37_126">
<rect width="51" height="64" fill="white" transform="translate(103 56)"/>
</clipPath>
</defs>
</svg>
