<svg width="445" height="419" viewBox="0 0 445 419" fill="none" xmlns="http://www.w3.org/2000/svg">
<g clip-path="url(#clip0_148_56)">
<circle cx="409.342" cy="117.095" r="63.5749" fill="white"/>
<path fill-rule="evenodd" clip-rule="evenodd" d="M407.513 65.9762C408.331 64.577 410.353 64.577 411.17 65.9762L416.101 74.4164L423.399 67.9124C424.609 66.8343 426.532 67.4592 426.877 69.0425L428.958 78.5942L437.909 74.6639C439.392 74.0125 441.028 75.2009 440.867 76.8133L439.895 86.5411L449.623 85.5684C451.235 85.4071 452.424 87.0429 451.772 88.5266L447.842 97.4784L457.393 99.559C458.977 99.9039 459.602 101.827 458.523 103.037L452.019 110.335L460.46 115.267C461.86 116.084 461.859 118.106 460.46 118.923L452.019 123.854L458.524 131.152C459.602 132.362 458.977 134.285 457.394 134.63L447.842 136.712L451.772 145.662C452.424 147.146 451.235 148.782 449.623 148.62L439.895 147.648L440.867 157.376C441.028 158.988 439.392 160.177 437.909 159.525L428.958 155.594L426.877 165.146C426.532 166.729 424.609 167.354 423.399 166.276L416.101 159.772L411.17 168.213C410.353 169.612 408.331 169.612 407.513 168.213L402.583 159.772L395.285 166.276C394.075 167.354 392.152 166.729 391.807 165.146L389.725 155.594L380.775 159.525C379.291 160.177 377.655 158.988 377.816 157.376L378.788 147.648L369.061 148.62C367.448 148.782 366.26 147.145 366.911 145.662L370.842 136.712L361.291 134.63C359.707 134.285 359.082 132.362 360.161 131.152L366.665 123.854L358.223 118.923C356.824 118.106 356.824 116.084 358.223 115.267L366.665 110.335L360.161 103.037C359.083 101.827 359.708 99.9039 361.291 99.559L370.842 97.4784L366.911 88.5268C366.26 87.043 367.448 85.4071 369.061 85.5684L378.788 86.5411L377.816 76.8133C377.655 75.2009 379.291 74.0125 380.774 74.6639L389.725 78.5942L391.807 69.0424C392.152 67.4591 394.075 66.8343 395.285 67.9125L402.583 74.4164L407.513 65.9762Z" fill="#FF43B1"/>
<path d="M475.681 117.095C475.681 153.733 445.98 183.434 409.342 183.434C372.704 183.434 343.003 153.733 343.003 117.095C343.003 80.4568 372.704 50.7559 409.342 50.7559C445.98 50.7559 475.681 80.4568 475.681 117.095ZM350.383 117.095C350.383 149.657 376.78 176.054 409.342 176.054C441.904 176.054 468.301 149.657 468.301 117.095C468.301 84.5326 441.904 58.1357 409.342 58.1357C376.78 58.1357 350.383 84.5326 350.383 117.095Z" fill="black"/>
<path d="M395.474 106.277C395.186 106.775 394.794 106.88 394.296 106.592L393.176 105.946C392.678 105.658 392.573 105.266 392.86 104.768L399.435 93.381C399.722 92.8832 400.115 92.778 400.612 93.0654L407.239 96.8914C407.737 97.1788 407.842 97.5714 407.555 98.0692L406.897 99.2079C406.617 99.6933 406.234 99.7958 405.749 99.5156L400.97 96.7566L399.311 99.6313L403.305 101.938C403.803 102.225 403.908 102.618 403.621 103.116L402.963 104.254C402.683 104.74 402.301 104.842 401.815 104.562L397.802 102.245L395.474 106.277ZM409.968 115.864C409.727 115.792 409.552 115.708 409.442 115.611C409.337 115.534 409.271 115.404 409.243 115.222C409.228 115.047 409.221 114.786 409.223 114.439L409.213 109.928C409 109.838 408.784 109.738 408.565 109.629C408.359 109.526 408.143 109.41 407.919 109.281L406.93 108.71L405.335 111.472C405.048 111.97 404.655 112.075 404.157 111.788L402.944 111.088C402.446 110.8 402.341 110.408 402.628 109.91L408.987 98.8961C409.274 98.3983 409.667 98.2931 410.165 98.5805L413.114 100.283C414.881 101.304 416.029 102.464 416.556 103.764C417.09 105.051 416.919 106.454 416.042 107.972C415.08 109.64 413.782 110.508 412.149 110.578L412.044 115.371C412.018 116.136 411.635 116.396 410.897 116.152L409.968 115.864ZM411.572 103.127L410.508 102.512L408.547 105.91L409.611 106.524C410.569 107.077 411.352 107.33 411.96 107.283C412.568 107.236 413.027 106.945 413.336 106.41C413.645 105.874 413.667 105.332 413.404 104.782C413.141 104.231 412.531 103.68 411.572 103.127ZM413.841 117.379C413.331 117.084 413.225 116.692 413.525 116.201L420.257 105.403C420.557 104.912 420.95 104.807 421.435 105.087L427.875 108.806C428.373 109.093 428.478 109.486 428.191 109.983L427.534 111.122C427.253 111.607 426.871 111.71 426.385 111.43L421.737 108.746L420.264 111.082L424.391 113.116C424.911 113.366 425.016 113.759 424.707 114.294L424.049 115.433C423.791 115.881 423.408 115.983 422.901 115.74L418.67 113.671L417.272 115.876L422.163 118.699C422.661 118.987 422.766 119.379 422.479 119.877L421.821 121.016C421.541 121.501 421.158 121.604 420.673 121.323L413.841 117.379ZM423.667 123.052C423.156 122.757 423.051 122.365 423.351 121.874L430.083 111.076C430.383 110.585 430.776 110.48 431.261 110.76L437.701 114.479C438.199 114.766 438.304 115.159 438.017 115.656L437.359 116.795C437.079 117.28 436.696 117.383 436.211 117.103L431.563 114.419L430.09 116.755L434.217 118.789C434.736 119.039 434.842 119.432 434.533 119.967L433.875 121.105C433.616 121.553 433.234 121.656 432.727 121.413L428.496 119.344L427.098 121.549L431.989 124.372C432.487 124.66 432.592 125.052 432.305 125.55L431.647 126.689C431.367 127.174 430.984 127.277 430.499 126.996L423.667 123.052ZM383.343 119.43C383.803 119.696 384.338 119.905 384.947 120.057C385.563 120.197 386.066 120.289 386.456 120.332C386.725 120.354 386.908 120.426 387.003 120.548C387.099 120.67 387.13 120.845 387.097 121.075L386.86 122.78C386.81 123.182 386.639 123.391 386.349 123.406C385.531 123.415 384.709 123.314 383.885 123.103C383.08 122.888 382.348 122.589 381.689 122.209C380.457 121.497 379.529 120.605 378.904 119.531C378.292 118.464 378.011 117.298 378.061 116.032C378.112 114.767 378.514 113.481 379.268 112.174C380.023 110.868 380.935 109.876 382.006 109.2C383.077 108.524 384.233 108.188 385.476 108.192C386.718 108.195 387.961 108.557 389.206 109.275C389.865 109.656 390.486 110.147 391.068 110.749C391.657 111.338 392.146 111.985 392.535 112.691C392.668 112.95 392.572 113.202 392.248 113.446L390.891 114.504C390.708 114.648 390.541 114.708 390.387 114.686C390.241 114.652 390.088 114.53 389.927 114.321C389.694 114.004 389.36 113.62 388.924 113.169C388.494 112.706 388.05 112.341 387.589 112.075C386.83 111.637 386.096 111.429 385.386 111.45C384.677 111.472 384.03 111.688 383.445 112.097C382.867 112.493 382.377 113.04 381.975 113.737C381.566 114.447 381.33 115.157 381.268 115.868C381.213 116.566 381.354 117.228 381.689 117.853C382.033 118.466 382.584 118.992 383.343 119.43ZM394.587 129.332L388.52 125.356C388.022 125.069 387.913 124.682 388.194 124.197L394.348 113.538C394.635 113.04 395.028 112.935 395.525 113.222L396.739 113.923C397.236 114.21 397.342 114.603 397.054 115.101L391.924 123.986L396.078 126.708C396.319 126.864 396.466 127.04 396.519 127.236C396.579 127.42 396.537 127.637 396.393 127.886L395.736 129.024C395.448 129.522 395.066 129.625 394.587 129.332ZM404.674 133.687L405.019 133.09C404.234 133.5 403.425 133.68 402.591 133.629C401.757 133.579 400.948 133.328 400.164 132.875C399.467 132.473 398.922 131.951 398.53 131.309C398.149 130.675 397.973 129.959 398.002 129.163C398.037 128.354 398.325 127.483 398.864 126.549L403.369 118.746C403.656 118.249 404.049 118.143 404.546 118.431L405.76 119.131C406.258 119.419 406.363 119.811 406.075 120.309L402.217 126.992C401.664 127.95 401.434 128.722 401.528 129.307C401.641 129.887 402.002 130.353 402.612 130.705C403.11 130.992 403.632 131.152 404.177 131.185C404.742 131.212 405.277 131.09 405.783 130.818C406.301 130.553 406.729 130.128 407.066 129.543L410.601 123.42C410.889 122.922 411.281 122.817 411.779 123.104L412.992 123.805C413.49 124.092 413.595 124.485 413.308 124.983L407.38 135.25C407.093 135.747 406.7 135.853 406.203 135.565L404.989 134.865C404.491 134.577 404.386 134.185 404.674 133.687ZM412.981 140.474L409.49 138.459C409.005 138.179 408.906 137.79 409.193 137.292L415.767 125.905C415.911 125.656 416.078 125.511 416.267 125.471C416.463 125.419 416.689 125.458 416.945 125.589L420.32 127.289C421.801 128.028 422.748 128.931 423.16 129.999C423.58 131.054 423.499 132.086 422.917 133.094C422.529 133.766 422.011 134.247 421.362 134.536C420.714 134.825 420.085 134.952 419.476 134.915C420.255 135.664 420.71 136.441 420.842 137.247C420.987 138.061 420.84 138.847 420.401 139.606C419.668 140.876 418.682 141.592 417.443 141.756C416.21 141.907 414.723 141.48 412.981 140.474ZM418.251 129.579L417.472 129.204L416.146 131.5L417.173 132.092C417.907 132.516 418.487 132.719 418.913 132.699C419.347 132.667 419.682 132.446 419.919 132.035C420.156 131.624 420.164 131.223 419.943 130.829C419.722 130.436 419.158 130.019 418.251 129.579ZM412.978 136.988L414.938 138.119C415.672 138.543 416.263 138.727 416.711 138.67C417.158 138.613 417.519 138.348 417.792 137.875C418.065 137.403 418.08 136.93 417.838 136.459C417.608 135.994 417.07 135.518 416.224 135.029L414.637 134.113L412.978 136.988ZM427.011 143.721C427.19 143.41 427.215 143.051 427.085 142.644C426.967 142.244 426.762 141.81 426.468 141.342C426.174 140.873 425.862 140.378 425.533 139.856C425.216 139.341 424.94 138.8 424.704 138.232C424.474 137.652 424.352 137.059 424.337 136.453C424.335 135.854 424.509 135.249 424.861 134.64C425.479 133.569 426.327 132.906 427.405 132.648C428.482 132.391 429.644 132.622 430.888 133.34C431.249 133.549 431.601 133.802 431.943 134.099C432.299 134.404 432.617 134.729 432.899 135.074C433.2 135.414 433.434 135.756 433.6 136.101C433.733 136.36 433.778 136.569 433.736 136.727C433.714 136.88 433.592 137.034 433.371 137.188L432.191 138.025C432.003 138.149 431.832 138.2 431.679 138.178C431.546 138.15 431.392 138.029 431.218 137.812C430.963 137.449 430.669 137.097 430.335 136.755C430.022 136.408 429.703 136.141 429.379 135.954C429.031 135.753 428.696 135.642 428.375 135.623C428.074 135.599 427.841 135.729 427.676 136.016C427.511 136.302 427.487 136.645 427.604 137.045C427.742 137.439 427.954 137.877 428.24 138.358C428.534 138.826 428.836 139.324 429.145 139.851C429.474 140.373 429.754 140.924 429.983 141.504C430.219 142.072 430.342 142.649 430.352 143.236C430.374 143.829 430.217 144.419 429.879 145.003C429.204 146.173 428.299 146.879 427.164 147.12C426.042 147.368 424.827 147.115 423.52 146.36C423.06 146.094 422.61 145.768 422.169 145.381C421.729 144.994 421.326 144.571 420.961 144.111C420.608 143.658 420.321 143.194 420.098 142.717C419.986 142.452 419.93 142.246 419.933 142.098C419.955 141.945 420.087 141.789 420.328 141.63L421.516 140.822C421.723 140.693 421.897 140.636 422.038 140.651C422.186 140.653 422.336 140.781 422.488 141.035C422.863 141.65 423.29 142.203 423.769 142.696C424.261 143.195 424.718 143.567 425.141 143.811C425.54 144.041 425.895 144.172 426.209 144.204C426.542 144.23 426.809 144.069 427.011 143.721Z" fill="white"/>
<path d="M297.468 356.074L293.771 363.769L296.593 371.822L288.541 374.651L284.845 382.346L277.143 378.651L258.565 369.718L262.261 362.023L259.439 353.969L267.491 351.141L271.194 343.444L278.889 347.141L289.771 352.371L297.468 356.074Z" fill="#BCBEC0"/>
<path d="M334.306 327.697L306.393 337.491L319.205 310.826C322.692 303.573 319.636 294.861 312.383 291.374C305.131 287.887 296.419 290.943 292.932 298.196L280.119 324.861L270.326 296.948C267.658 289.354 259.343 285.354 251.749 288.022C244.155 290.69 240.155 299.005 242.823 306.599L252.616 334.512L225.951 321.699C218.699 318.212 209.987 321.268 206.499 328.521C203.012 335.773 206.069 344.485 213.321 347.972L239.986 360.785L212.073 370.578C204.48 373.246 200.479 381.562 203.147 389.155C205.815 396.749 214.13 400.749 221.724 398.081L249.637 388.288L236.824 414.953C235.082 418.583 234.973 422.57 236.205 426.091C237.437 429.611 240.016 432.662 243.646 434.405C250.898 437.892 259.61 434.835 263.098 427.583L275.91 400.918L285.703 428.831C287.034 432.628 289.782 435.53 293.145 437.145C296.507 438.76 300.484 439.095 304.282 437.764C311.876 435.096 315.876 426.781 313.208 419.187L303.415 391.274L330.08 404.087C333.71 405.83 337.697 405.938 341.217 404.706C344.738 403.474 347.789 400.895 349.532 397.265C353.019 390.013 349.962 381.301 342.71 377.814L316.045 365.001L343.958 355.208C347.755 353.877 350.65 351.13 352.272 347.767C353.887 344.404 354.222 340.427 352.891 336.629C350.223 329.036 341.908 325.035 334.314 327.703L334.306 327.697ZM293.77 363.762L296.599 371.814L288.547 374.643L284.851 382.338L277.156 378.641L269.104 381.47L266.275 373.419L258.581 369.722L262.277 362.027L259.448 353.976L267.5 351.147L271.196 343.452L278.891 347.148L286.943 344.32L289.771 352.371L297.466 356.068L293.77 363.762Z" fill="#FFC33F"/>
<path d="M297.468 356.074L293.771 363.769L288.541 374.651L284.845 382.346L277.143 378.651L269.09 381.473L266.261 373.421L258.565 369.718L262.261 362.023L267.491 351.141L271.194 343.444L278.889 347.141L286.943 344.319L289.771 352.371L297.468 356.074Z" fill="#BCBEC0"/>
<path d="M297.468 356.075L293.771 363.77L296.593 371.823L269.09 381.473L266.261 373.422L258.565 369.718L262.261 362.023L259.439 353.97L286.942 344.32L289.771 352.371L297.468 356.075Z" fill="#BCBEC0"/>
<path d="M286.943 344.32L296.594 371.823L288.542 374.652L284.846 382.347L277.144 378.652L269.091 381.474L259.44 353.971L267.492 351.142L271.195 343.445L278.89 347.142L286.943 344.32Z" fill="#BCBEC0"/>
<path d="M284.005 390.059C299.008 386.753 308.491 371.909 305.185 356.906C301.878 341.902 287.035 332.42 272.032 335.726C257.028 339.033 247.546 353.876 250.852 368.879C254.158 383.883 269.001 393.365 284.005 390.059Z" fill="#FF6835"/>
<mask id="mask0_148_56" style="mask-type:alpha" maskUnits="userSpaceOnUse" x="259" y="350" width="16" height="20">
<ellipse cx="267.017" cy="360.129" rx="7.37737" ry="9.29549" transform="rotate(-12.4277 267.017 360.129)" fill="white"/>
</mask>
<g mask="url(#mask0_148_56)">
<rect x="253.558" y="353.22" width="23.3929" height="19.2297" transform="rotate(-12.4277 253.558 353.22)" fill="white"/>
<rect x="257.793" y="355.604" width="9.44304" height="10.1808" rx="4.72152" transform="rotate(-12.4277 257.793 355.604)" fill="black"/>
</g>
<mask id="mask1_148_56" style="mask-type:alpha" maskUnits="userSpaceOnUse" x="279" y="346" width="16" height="19">
<ellipse cx="286.841" cy="355.761" rx="7.37737" ry="9.29549" transform="rotate(-12.4277 286.841 355.761)" fill="white"/>
</mask>
<g mask="url(#mask1_148_56)">
<rect x="273.382" y="348.851" width="23.3929" height="19.2297" transform="rotate(-12.4277 273.382 348.851)" fill="white"/>
<rect x="277.618" y="351.235" width="9.44304" height="10.1808" rx="4.72152" transform="rotate(-12.4277 277.618 351.235)" fill="black"/>
</g>
<path d="M273.385 374.627C276.022 377.059 282.583 379.831 287.731 371.465" stroke="black" stroke-width="2.92132" stroke-linecap="round"/>
<path d="M168.369 421.625L185.625 404.369L91.6907 310.435L74.4347 327.691L168.369 421.625Z" fill="#C383D9"/>
<path d="M74.4305 404.369L91.6865 421.625L185.621 327.691L168.365 310.435L74.4305 404.369Z" fill="#C383D9"/>
<path d="M196.448 378.228V353.824H63.6051V378.228H196.448Z" fill="#C383D9"/>
<path d="M117.825 432.448H142.229L142.229 299.605H117.825L117.825 432.448Z" fill="#C383D9"/>
<path d="M160.778 366.026L151.777 375.175V388.113H139.036L130.027 397.254L121.018 388.113H108.277V375.175L99.2764 366.026L108.277 356.878V343.939H121.018L130.027 334.799L139.036 343.939H151.777V356.878L160.778 366.026Z" fill="#EFD9F9"/>
<mask id="mask2_148_56" style="mask-type:alpha" maskUnits="userSpaceOnUse" x="115" y="353" width="13" height="17">
<ellipse cx="121.478" cy="361.758" rx="6.21252" ry="7.82778" fill="white"/>
</mask>
<g mask="url(#mask2_148_56)">
<rect x="111.662" y="353.486" width="19.6993" height="16.495" fill="white"/>
<rect x="115.695" y="355.87" width="6.76516" height="8.57329" rx="3.38258" fill="black"/>
</g>
<mask id="mask3_148_56" style="mask-type:alpha" maskUnits="userSpaceOnUse" x="132" y="353" width="13" height="17">
<ellipse cx="138.699" cy="361.758" rx="6.21252" ry="7.82778" fill="white"/>
</mask>
<g mask="url(#mask3_148_56)">
<rect x="128.883" y="353.486" width="19.6993" height="16.495" fill="white"/>
<path d="M132.916 359.253C132.916 357.385 134.43 355.87 136.299 355.87V355.87C138.167 355.87 139.681 357.385 139.681 359.253V361.061C139.681 362.929 138.167 364.443 136.299 364.443V364.443C134.43 364.443 132.916 362.929 132.916 361.061V359.253Z" fill="black"/>
</g>
<path d="M124.289 375.24C125.697 377.353 129.684 380.311 134.369 375.24M133.809 373.28C133.762 374.447 134.817 376.668 136.609 376.22" stroke="black" stroke-width="1.6" stroke-linecap="round"/>
<circle cx="424.783" cy="389.982" r="70.6696" fill="#FF6835"/>
<mask id="mask4_148_56" style="mask-type:alpha" maskUnits="userSpaceOnUse" x="376" y="354" width="31" height="39">
<ellipse cx="391.409" cy="373.327" rx="15.2472" ry="19.3131" fill="white"/>
</mask>
<g mask="url(#mask4_148_56)">
<rect x="367.236" y="353.513" width="48.3473" height="39.5783" fill="white"/>
<rect x="390.353" y="357.97" width="19.5164" height="21.1524" rx="9.7582" fill="black"/>
</g>
<mask id="mask5_148_56" style="mask-type:alpha" maskUnits="userSpaceOnUse" x="417" y="354" width="31" height="39">
<ellipse cx="432.708" cy="373.327" rx="15.2472" ry="19.3131" fill="white"/>
</mask>
<g mask="url(#mask5_148_56)">
<rect x="408.535" y="353.513" width="48.3473" height="39.5783" fill="white"/>
<rect x="432.174" y="357.97" width="19.5164" height="21.1524" rx="9.7582" fill="black"/>
</g>
<path d="M398.66 405.591C402.901 411.705 414.911 420.264 429.022 405.591" stroke="black" stroke-width="4.92012" stroke-linecap="round"/>
<path d="M512.983 247.315L492.452 268.182V297.695H463.391L442.842 318.543L422.293 297.695H393.232V268.182L372.701 247.315L393.232 226.448V196.936H422.293L442.842 176.087L463.391 196.936H492.452V226.448L512.983 247.315Z" fill="#C383D9"/>
<mask id="mask6_148_56" style="mask-type:alpha" maskUnits="userSpaceOnUse" x="411" y="224" width="31" height="38">
<ellipse cx="426.526" cy="243.108" rx="14.7928" ry="18.7376" fill="white"/>
</mask>
<g mask="url(#mask6_148_56)">
<rect x="403.073" y="223.884" width="46.9065" height="38.3989" fill="white"/>
<rect x="411.641" y="228.208" width="18.9348" height="20.5221" rx="9.46741" fill="black"/>
</g>
<path d="M441.607 271.421C443.528 274.189 448.965 278.064 455.354 271.421" stroke="black" stroke-width="2.22763" stroke-linecap="round"/>
<path d="M379.886 221.4C381.974 222.829 381.974 225.91 379.886 227.34L358.924 241.695C357.653 242.565 357.076 244.148 357.49 245.632L365.353 273.816C366.107 276.522 363.611 279.011 360.908 278.248L332.69 270.289C331.427 269.933 330.07 270.292 329.149 271.227L314.713 285.874C313.303 287.305 310.995 287.305 309.585 285.874L295.148 271.227C294.227 270.292 292.87 269.933 291.607 270.289L263.39 278.248C260.686 279.011 258.19 276.522 258.945 273.816L266.811 245.618C267.223 244.141 266.654 242.565 265.393 241.692L244.659 227.329C242.592 225.898 242.592 222.842 244.659 221.411L265.391 207.05C266.653 206.176 267.222 204.598 266.808 203.12L258.907 174.888C258.149 172.181 260.649 169.688 263.354 170.454L291.606 178.449C292.869 178.806 294.228 178.447 295.15 177.512L309.585 162.866C310.995 161.435 313.303 161.435 314.713 162.866L329.148 177.512C330.07 178.447 331.428 178.806 332.692 178.449L360.943 170.454C363.649 169.688 366.148 172.181 365.39 174.888L357.493 203.106C357.078 204.591 357.654 206.175 358.926 207.047L379.886 221.4Z" fill="#69B06C"/>
<mask id="mask7_148_56" style="mask-type:alpha" maskUnits="userSpaceOnUse" x="281" y="204" width="27" height="35">
<ellipse cx="294.394" cy="221.185" rx="13.3135" ry="16.8638" fill="white"/>
</mask>
<g mask="url(#mask7_148_56)">
<rect x="273.286" y="203.884" width="42.2159" height="34.559" fill="white"/>
<rect x="289.097" y="212.275" width="17.0413" height="18.4699" rx="8.52067" fill="black"/>
</g>
<path fill-rule="evenodd" clip-rule="evenodd" d="M333.974 228.315C333.974 228.315 333.974 228.315 333.974 228.315C334.511 229.031 334.366 230.046 333.65 230.583C332.934 231.12 331.919 230.975 331.382 230.259L332.678 229.287C331.382 230.259 331.382 230.259 331.382 230.259L331.378 230.253L331.368 230.24L331.331 230.19C331.299 230.148 331.253 230.086 331.195 230.006C331.08 229.848 330.916 229.622 330.719 229.345C330.327 228.792 329.802 228.03 329.274 227.203C328.749 226.381 328.204 225.466 327.784 224.612C327.574 224.185 327.382 223.748 327.241 223.327C327.105 222.926 326.98 222.441 326.98 221.948C326.98 221.463 327.102 220.971 327.231 220.563C327.368 220.13 327.553 219.668 327.759 219.209C328.171 218.288 328.709 217.279 329.229 216.359C329.753 215.433 330.275 214.573 330.664 213.945C330.86 213.631 331.023 213.373 331.137 213.194C331.195 213.104 331.24 213.033 331.271 212.985L331.307 212.929L331.321 212.909C331.321 212.908 331.321 212.908 332.678 213.793L331.321 212.909C331.809 212.159 332.813 211.947 333.563 212.436C334.312 212.925 334.524 213.928 334.035 214.678L334.025 214.693L333.993 214.742C333.965 214.786 333.922 214.852 333.868 214.937C333.76 215.107 333.604 215.352 333.417 215.654C333.042 216.258 332.545 217.079 332.049 217.955C331.55 218.836 331.069 219.746 330.716 220.533C330.54 220.927 330.407 221.266 330.32 221.539C330.237 221.803 330.223 221.927 330.221 221.946C330.221 221.946 330.221 221.945 330.221 221.946C330.221 221.946 330.221 221.948 330.221 221.95C330.224 221.97 330.238 222.076 330.311 222.292C330.392 222.533 330.519 222.832 330.691 223.182C331.036 223.883 331.51 224.684 332.005 225.459C332.496 226.229 332.99 226.946 333.363 227.471C333.548 227.733 333.703 227.947 333.81 228.093C333.864 228.166 333.906 228.223 333.933 228.261L333.965 228.303L333.974 228.315Z" fill="#1B1B1B"/>
<path d="M298.181 248.083C301.349 252.837 310.32 259.493 320.861 248.083M319.601 243.673C319.496 246.298 321.869 251.296 325.901 250.288" stroke="black" stroke-width="2.7" stroke-linecap="round"/>
<g clip-path="url(#clip1_148_56)">
<path fill-rule="evenodd" clip-rule="evenodd" d="M181.303 221.474C184.831 218.906 188.967 217.055 193.536 216.178C208.62 213.283 223.242 221.997 228.179 236.067C241.147 234.208 253.415 242.856 255.911 255.857C258.481 269.249 249.708 282.189 236.316 284.759C230.976 285.783 225.708 285.005 221.141 282.849C217.696 286.543 213.09 289.216 207.75 290.241C200.643 291.605 193.662 289.774 188.292 285.753C184.792 291.477 178.986 295.762 171.877 297.127C162.439 298.938 153.226 295.115 147.708 288.012C144.267 291.69 139.672 294.352 134.346 295.374C120.955 297.944 108.015 289.171 105.445 275.779C102.875 262.388 111.647 249.448 125.039 246.878C125.227 246.842 125.415 246.808 125.602 246.777C124.872 244.965 124.305 243.057 123.923 241.066C120.737 224.464 131.612 208.422 148.215 205.236C161.947 202.601 175.296 209.585 181.303 221.474Z" fill="#6692FD"/>
<mask id="mask8_148_56" style="mask-type:alpha" maskUnits="userSpaceOnUse" x="155" y="234" width="20" height="25">
<ellipse cx="164.74" cy="246.251" rx="9.3813" ry="11.8204" transform="rotate(-8.83217 164.74 246.251)" fill="white"/>
</mask>
<g mask="url(#mask8_148_56)">
<rect x="148.212" y="236.416" width="29.7472" height="24.4405" transform="rotate(-8.83217 148.212 236.416)" fill="white"/>
<rect x="155.282" y="246.482" width="12.0081" height="12.9462" rx="6.00403" transform="rotate(-8.83217 155.282 246.482)" fill="black"/>
</g>
<mask id="mask9_148_56" style="mask-type:alpha" maskUnits="userSpaceOnUse" x="180" y="230" width="20" height="25">
<ellipse cx="190.125" cy="242.306" rx="9.3813" ry="11.8204" transform="rotate(-8.83217 190.125 242.306)" fill="white"/>
</mask>
<g mask="url(#mask9_148_56)">
<rect x="173.598" y="232.472" width="29.7472" height="24.4405" transform="rotate(-8.83217 173.598 232.472)" fill="white"/>
<rect x="180.666" y="242.538" width="12.0081" height="12.9462" rx="6.00403" transform="rotate(-8.83217 180.666 242.538)" fill="black"/>
</g>
<path d="M170.179 265.263C173.332 268.56 181.438 272.601 188.638 262.394" stroke="black" stroke-width="3.89673" stroke-linecap="round"/>
</g>
</g>
<defs>
<clipPath id="clip0_148_56">
<rect width="445" height="419" fill="white"/>
</clipPath>
<clipPath id="clip1_148_56">
<rect width="151.973" height="94.9828" fill="white" transform="translate(95.6826 213.054) rotate(-8.83217)"/>
</clipPath>
</defs>
</svg>
