<svg width="145" height="146" viewBox="0 0 145 146" fill="none" xmlns="http://www.w3.org/2000/svg">
<path d="M72.8415 142.205H72.8432C76.2381 142.205 78.9902 139.355 78.9902 135.84L78.9902 79.2632C78.9902 75.7476 76.2381 72.8977 72.8432 72.8977H72.8415C69.4466 72.8977 66.6944 75.7476 66.6944 79.2632L66.6944 135.84C66.6944 139.355 69.4466 142.205 72.8415 142.205Z" fill="#B7D7CB"/>
<path d="M144.594 7.08013C144.594 19.5165 141.486 31.2188 136.006 41.4454C128.726 55.0388 117.257 66.0253 103.341 72.6508C94.101 77.0538 83.7792 79.5345 72.8883 79.5766V79.5729C72.7301 79.5748 72.5719 79.5766 72.4119 79.5766H72.2992C72.2356 79.5766 72.1719 79.5766 72.1083 79.5747C72.0083 79.5729 71.9101 79.5729 71.8101 79.5711C60.7319 79.4557 50.2574 76.8176 40.9174 72.2004H40.9138C28.4192 66.0289 17.961 56.3149 10.8283 44.3582C10.8247 44.3545 10.8247 44.3527 10.8228 44.349C4.32829 33.4614 0.59375 20.7102 0.59375 7.08013C0.59375 4.85942 0.693749 2.66067 0.888295 0.491211C39.6538 0.646826 71.1901 31.6472 72.5465 70.3843C72.5792 70.3843 72.6101 70.3843 72.641 70.3861C73.9956 31.649 105.532 0.646826 144.299 0.491211C144.494 2.66067 144.594 4.85942 144.594 7.08013Z" fill="#00A79D"/>
<path d="M144.594 72.8087C144.594 85.245 141.486 96.9473 136.006 107.174C128.726 120.767 117.257 131.754 103.341 138.379C94.101 142.782 83.7792 145.263 72.8883 145.305V145.301C72.7301 145.303 72.5719 145.305 72.4119 145.305H72.2992C72.2356 145.305 72.1719 145.305 72.1083 145.303C72.0083 145.301 71.9101 145.301 71.8101 145.3C60.7319 145.184 50.2574 142.546 40.9174 137.929H40.9138C28.4192 131.757 17.961 122.043 10.8283 110.087C10.8247 110.083 10.8247 110.081 10.8228 110.078C4.32829 99.19 0.59375 86.4387 0.59375 72.8087C0.59375 70.5879 0.693749 68.3892 0.888295 66.2197C39.6538 66.3753 71.1901 97.3757 72.5465 136.113C72.5792 136.113 72.6101 136.113 72.641 136.115C73.9956 97.3775 105.532 66.3753 144.299 66.2197C144.494 68.3892 144.594 70.5879 144.594 72.8087Z" fill="#B7D7CB"/>
</svg>
