<?xml version="1.0" encoding="UTF-8"?>
<svg id="Layer_2" data-name="Layer 2" xmlns="http://www.w3.org/2000/svg" viewBox="0 0 340.85 76.31">
  <defs>
    <style>
      .cls-1 {
        fill: #6692fd;
      }

      .cls-2 {
        fill: #ff6835;
      }

      .cls-3 {
        fill: #c383d9;
      }

      .cls-4 {
        fill: none;
      }

      .cls-5 {
        fill: #fff;
        stroke: #eae3dc;
        stroke-miterlimit: 10;
      }

      .cls-6 {
        fill: #ffc33f;
      }
    </style>
  </defs>
  <g id="Layer_1-2" data-name="Layer 1">
    <g id="Shine_Bright" data-name="Shine Bright">
      <rect id="Bounding_Box" data-name="Bounding Box" class="cls-4" x=".5" y=".5" width="339.85" height="75.31"/>
      <g id="Shine_Bright-2" data-name="Shine Bright">
        <path class="cls-5" d="m336.35,58.82c-2.18,1.64-4.73,2.91-7.58,3.76-2.71.82-5.45,1.24-8.13,1.24-5.97,0-9.99-2.17-12.57-4.44-1.85,2.67-4.95,4.31-8.67,4.31h-3.83c-3.91,0-7.14-1.82-8.95-4.73-1.89,2.16-4.71,3.45-8.01,3.45h-3.83c-.26,0-.51-.01-.76-.02-.49,1.37-1.12,2.64-1.87,3.82-2.21,3.46-5.25,6.01-9.03,7.58-3.23,1.34-6.81,2.02-10.66,2.02-2.81,0-5.73-.36-8.66-1.05-3.52-.83-6.6-2.31-9.15-4.39-2.57-2.14-3.84-5.01-3.59-7.99-.26.02-.52.03-.79.03h-3.83c-5.06,0-8.97-3.04-10.17-7.55-1.2,4.51-5.11,7.55-10.17,7.55h-3.83c-2.79,0-5.24-.93-7.07-2.52-4.2,2.55-9.61,3.8-16.46,3.8h-11.92c-4.88,0-8.68-2.86-9.99-7.15-.31.34-.65.66-1.02.97-.05.04-.11.09-.17.14-2.35,1.84-5.11,3.25-8.22,4.19-2.92.89-5.82,1.34-8.64,1.34-4.73,0-9-1.05-12.71-3.12-.53-.3-1.05-.61-1.55-.95-1.89,2.07-4.65,3.3-7.87,3.3h-3.83c-3.3,0-6.12-1.29-8.01-3.45-1.81,2.91-5.04,4.73-8.95,4.73h-3.83c-2.39,0-4.52-.68-6.24-1.88-1.14.39-2.39.6-3.71.6h-3.82c-1.21,0-2.35-.17-3.41-.5-1.68,1.14-3.76,1.78-6.09,1.78h-3.83c-3.91,0-7.14-1.82-8.96-4.73-1.89,2.16-4.7,3.45-8,3.45h-3.83c-2.83,0-5.29-.95-7.13-2.57-3.58,2.22-7.92,3.34-12.96,3.34-2.09,0-4.27-.23-6.48-.67-2.17-.43-4.3-1.06-6.34-1.88-2.17-.87-4.16-1.93-5.93-3.17-.07-.05-.13-.1-.2-.15-1.76-1.32-2.99-2.74-3.75-4.36-.72-1.53-1.64-4.69.34-8.69l1.83-3.79c.04-.09.09-.19.14-.28.92-1.73,2.11-3.08,3.54-4.04-.96-1.07-1.81-2.23-2.55-3.46-1.66-2.78-2.5-5.99-2.5-9.53,0-5.84,2.1-10.91,6.07-14.67,3.91-3.7,9.1-5.57,15.45-5.57,1.72,0,3.53.18,5.35.52,1.74.33,3.45.8,5.08,1.38.61.22,1.2.45,1.77.72,1.88-2.35,4.81-3.77,8.27-3.77h3.83c6.11,0,10.55,4.44,10.55,10.55v1.55c.67-.07,1.34-.11,2.01-.11,2.2,0,4.3.34,6.25,1-.02-.28-.03-.56-.03-.84,0-3.66,1.39-6.96,4.02-9.54,2.6-2.54,5.85-3.88,9.4-3.88s6.9,1.36,9.48,3.93c2.11,2.11,3.41,4.69,3.81,7.55h2.4c2.83,0,5.3.95,7.14,2.58,1.8-.53,3.61-.8,5.42-.8,5.26,0,9.92,1.93,13.46,5.59.04.04.08.08.11.13.9-.81,1.89-1.55,2.94-2.21,3.67-2.33,8.09-3.51,13.15-3.51,4.14,0,7.91.94,11.18,2.8,2.91,1.65,5.29,3.91,7.07,6.72v-9.04c0-3.04,1.11-5.76,3.12-7.68,1.27-1.21,3.52-2.69,7.03-2.87l11.1-.63c.74-.04,1.49-.07,2.22-.07,5.88,0,10.77,1.52,14.52,4.51,1.66,1.32,3.03,2.83,4.1,4.49,1.18-.42,2.47-.65,3.85-.65h3.83c2.97,0,5.55,1.05,7.41,2.83.47-.11.95-.2,1.43-.26,0-3.66,1.39-6.95,4.02-9.53,2.59-2.54,5.84-3.88,9.4-3.88s6.9,1.36,9.47,3.93c2.59,2.58,3.95,5.86,3.95,9.49,0,.71-.05,1.41-.16,2.09,3.21-1.5,6.73-2.25,10.46-2.25.64,0,1.28.02,1.91.05,1.82-1.56,4.25-2.47,7.02-2.47h3.26c.45-5.6,4.73-9.57,10.51-9.57h3.83c6.11,0,10.55,4.44,10.55,10.55v1.55c.67-.07,1.34-.11,2.01-.11,3.93,0,7.52,1.08,10.56,3.15.54-5.07,4.59-8.76,9.85-8.76h5.1c5.65,0,9.91,4.26,9.91,9.91v.27l1.69.1c4.3.26,6.56,2.63,7.52,4.02,1.17,1.72,1.76,3.71,1.76,5.94v5.11c0,2.23-.72,4.39-2.05,6.17.82.88,1.5,1.92,2.01,3.1l1.64,3.65c.54,1.17.91,2.36,1.09,3.54.51,3.43-.95,6.72-3.9,8.86Z"/>
        <g>
          <path class="cls-2" d="m31.38,43.25c0-1.06-.46-2.02-1.37-2.87-.91-.85-2.09-1.66-3.54-2.42-1.45-.77-2.97-1.57-4.56-2.42-1.59-.85-3.12-1.84-4.56-2.96-1.45-1.13-2.63-2.46-3.54-3.99-.91-1.53-1.37-3.34-1.37-5.42,0-3.66,1.19-6.61,3.57-8.86,2.38-2.25,5.7-3.38,9.95-3.38,1.23,0,2.52.13,3.86.38,1.34.25,2.64.61,3.89,1.05,1.25.45,2.35.99,3.28,1.63.72.47,1.16.92,1.31,1.37.15.45.05,1.03-.29,1.75l-1.79,3.89c-.3.6-.65.97-1.05,1.12-.4.15-.99.08-1.75-.22-1.19-.55-2.46-1.03-3.79-1.43-1.34-.4-2.56-.61-3.67-.61-1.19,0-2.2.2-3.03.61-.83.4-1.24,1.09-1.24,2.07s.46,1.88,1.37,2.71,2.09,1.64,3.54,2.42c1.44.79,2.96,1.62,4.56,2.49,1.59.87,3.11,1.87,4.56,3,1.44,1.13,2.62,2.43,3.54,3.92s1.37,3.23,1.37,5.23c0,4-1.27,7.14-3.79,9.44-2.53,2.3-6.03,3.44-10.49,3.44-1.57,0-3.21-.17-4.91-.51-1.7-.34-3.35-.83-4.94-1.47-1.59-.64-3.03-1.4-4.3-2.3-.68-.51-1.12-.97-1.31-1.37-.19-.4-.1-.99.29-1.75l1.85-3.83c.34-.64.7-1.05,1.08-1.24s.96-.07,1.72.35c1.87,1.02,3.79,1.81,5.77,2.36,1.98.55,3.69.83,5.13.83,1.36,0,2.48-.2,3.35-.61.87-.4,1.31-1.2,1.31-2.39Z"/>
          <path class="cls-1" d="m52.81,51.86c0,1.7-.85,2.55-2.55,2.55h-3.83c-1.7,0-2.55-.85-2.55-2.55V12.32c0-1.7.85-2.55,2.55-2.55h3.83c1.7,0,2.55.85,2.55,2.55v14.99c1.23-1.87,2.76-3.26,4.59-4.18,1.83-.91,3.63-1.37,5.42-1.37,3.1,0,5.68,1.05,7.72,3.16,2.04,2.1,3.06,5.47,3.06,10.11v18.11c0,1.7-.85,2.55-2.55,2.55h-3.83c-1.7,0-2.55-.85-2.55-2.55v-15.24c0-2.34-.44-4.07-1.31-5.2-.87-1.13-2.07-1.69-3.6-1.69-1.4,0-2.63.3-3.67.89-1.04.6-1.85,1.52-2.42,2.77-.57,1.25-.86,2.86-.86,4.81v12.37Z"/>
          <path class="cls-3" d="m82.47,19.4c-1.45,0-2.71-.54-3.79-1.63-1.08-1.08-1.63-2.37-1.63-3.86s.54-2.76,1.63-3.83c1.08-1.06,2.35-1.59,3.79-1.59s2.76.53,3.83,1.59c1.06,1.06,1.59,2.34,1.59,3.83s-.53,2.77-1.59,3.86c-1.06,1.08-2.34,1.63-3.83,1.63Zm4.46,32.46c0,1.7-.85,2.55-2.55,2.55h-3.83c-1.7,0-2.55-.85-2.55-2.55v-25.51c0-1.7.85-2.55,2.55-2.55h3.83c1.7,0,2.55.85,2.55,2.55v25.51Z"/>
          <path class="cls-2" d="m100.71,53.14c0,1.7-.85,2.55-2.55,2.55h-3.83c-1.7,0-2.55-.85-2.55-2.55v-30.61c0-1.7.85-2.55,2.55-2.55h3.83c1.7,0,2.55.85,2.55,2.55v4.78c1.23-1.87,2.76-3.26,4.59-4.18,1.83-.91,3.63-1.37,5.42-1.37,3.1,0,5.68,1.05,7.72,3.16,2.04,2.1,3.06,5.47,3.06,10.11v16.84c0,1.7-.85,2.55-2.55,2.55h-3.83c-1.7,0-2.55-.85-2.55-2.55v-13.97c0-2.34-.44-4.07-1.31-5.2-.87-1.13-2.07-1.69-3.6-1.69-1.4,0-2.63.3-3.67.89-1.04.6-1.85,1.52-2.42,2.77-.57,1.25-.86,2.86-.86,4.81v13.65Z"/>
          <path class="cls-6" d="m141.07,55.18c-3.36,0-6.29-.7-8.8-2.1-2.51-1.4-4.45-3.37-5.83-5.9-1.38-2.53-2.07-5.43-2.07-8.71,0-3.06.6-5.86,1.79-8.39,1.19-2.53,2.98-4.55,5.36-6.06,2.38-1.51,5.33-2.26,8.86-2.26,2.76,0,5.18.58,7.24,1.75,2.06,1.17,3.67,2.83,4.82,4.97,1.15,2.15,1.72,4.71,1.72,7.68,0,1.28-.14,2.21-.42,2.81s-.97.96-2.07,1.08l-17.79,2.04c.64,1.4,1.66,2.55,3.06,3.44s3.19,1.34,5.36,1.34c1.23,0,2.5-.3,3.79-.89,1.3-.59,2.48-1.19,3.54-1.79.47-.3.92-.33,1.37-.1.45.23.78.65.99,1.24l1.28,3.32c.21.6.35,1.08.41,1.47s-.16.79-.67,1.21c-1.57,1.23-3.44,2.18-5.61,2.84-2.17.66-4.27.99-6.31.99Zm-1.34-25.13c-1.66,0-3.02.39-4.08,1.18-1.06.79-1.79,2.12-2.17,3.99l11.48-1.34c-.3-1.15-.9-2.07-1.82-2.77-.92-.7-2.05-1.05-3.41-1.05Z"/>
          <path class="cls-3" d="m182.08,55.69h-11.93c-1.66,0-2.49-.85-2.49-2.55V14.24c0-.85.21-1.48.64-1.88s1.06-.63,1.91-.67l11.16-.64c4.89-.3,8.65.61,11.29,2.71,2.64,2.1,3.95,4.88,3.95,8.32,0,2.3-.62,4.29-1.85,6-1.23,1.7-2.66,2.96-4.27,3.76,3.1.76,5.43,2.08,6.98,3.95,1.55,1.87,2.33,4.1,2.33,6.7,0,4.34-1.47,7.62-4.4,9.85-2.93,2.23-7.38,3.35-13.33,3.35Zm-2.62-35.71l-2.55.19v7.84h3.51c2.51,0,4.29-.35,5.36-1.05s1.59-1.75,1.59-3.16-.57-2.44-1.72-3.12c-1.15-.68-3.21-.91-6.19-.7Zm-2.55,26.79h6.7c2.51,0,4.29-.4,5.36-1.21s1.59-2.02,1.59-3.63-.65-2.85-1.95-3.7c-1.3-.85-3.39-1.28-6.28-1.28h-5.42v9.82Z"/>
          <path class="cls-6" d="m211.99,51.86c0,1.7-.85,2.55-2.55,2.55h-3.83c-1.7,0-2.55-.85-2.55-2.55v-29.97c0-1.7.85-2.55,2.55-2.55h3.83c1.7,0,2.55.85,2.55,2.55v5.29c1.06-1.74,2.35-3.08,3.86-4.02,1.51-.93,3.01-1.4,4.5-1.4.72,0,1.41.07,2.07.22.66.15,1.2.35,1.63.61.47.3.66.7.57,1.21l-.64,7.33c-.04.47-.2.79-.48.96s-.69.19-1.24.06c-.89-.21-1.66-.35-2.3-.41-.64-.06-1.23-.1-1.79-.1-1.74,0-3.21.66-4.4,1.98-1.19,1.32-1.79,3.27-1.79,5.87v12.37Z"/>
          <path class="cls-2" d="m231.7,19.4c-1.45,0-2.71-.54-3.79-1.63-1.08-1.08-1.63-2.37-1.63-3.86s.54-2.76,1.63-3.83c1.08-1.06,2.35-1.59,3.79-1.59s2.76.53,3.83,1.59c1.06,1.06,1.59,2.34,1.59,3.83s-.53,2.77-1.59,3.86c-1.06,1.08-2.34,1.63-3.83,1.63Zm4.46,32.46c0,1.7-.85,2.55-2.55,2.55h-3.83c-1.7,0-2.55-.85-2.55-2.55v-25.51c0-1.7.85-2.55,2.55-2.55h3.83c1.7,0,2.55.85,2.55,2.55v25.51Z"/>
          <path class="cls-3" d="m255.8,67.81c-2.21,0-4.49-.28-6.82-.83-2.34-.55-4.32-1.49-5.93-2.81-.51-.42-.73-.84-.67-1.24.06-.4.2-.88.41-1.43l1.53-3.83c.26-.6.6-1.01,1.02-1.24.42-.23.87-.2,1.34.1.76.38,1.65.73,2.65,1.05,1,.32,2.05.56,3.16.73s2.17.26,3.19.26c1.19,0,2.24-.17,3.16-.51.91-.34,1.64-.91,2.17-1.72.53-.81.8-1.93.8-3.38v-3.44c-1.11,1.19-2.43,2.09-3.99,2.71-1.55.62-3.2.92-4.94.92-2.47,0-4.72-.62-6.76-1.85-2.04-1.23-3.67-2.99-4.88-5.26s-1.82-4.92-1.82-7.94c0-3.36.71-6.25,2.14-8.67,1.42-2.42,3.35-4.3,5.77-5.64,2.42-1.34,5.12-2.01,8.1-2.01,1.11,0,2.18.06,3.22.19,1.04.13,2.09.32,3.16.57v-.64c0-1.7.85-2.55,2.55-2.55h3.83c1.7,0,2.55.85,2.55,2.55v31.95c0,3.32-.66,6-1.98,8.07-1.32,2.06-3.1,3.56-5.36,4.5-2.25.93-4.78,1.4-7.59,1.4Zm-1.08-23.92c1.49,0,2.76-.33,3.83-.99,1.06-.66,1.87-1.63,2.42-2.9.55-1.28.83-2.81.83-4.59v-3.51c-.94-.34-1.92-.58-2.96-.73-1.04-.15-2.18-.22-3.41-.22-2.04,0-3.73.6-5.07,1.79-1.34,1.19-2.01,2.98-2.01,5.36,0,1.11.27,2.1.8,3,.53.89,1.28,1.58,2.23,2.07.96.49,2.07.73,3.35.73Z"/>
          <path class="cls-6" d="m284.5,51.86c0,1.7-.85,2.55-2.55,2.55h-3.83c-1.7,0-2.55-.85-2.55-2.55V12.32c0-1.7.85-2.55,2.55-2.55h3.83c1.7,0,2.55.85,2.55,2.55v14.99c1.23-1.87,2.76-3.26,4.59-4.18,1.83-.91,3.63-1.37,5.42-1.37,3.1,0,5.68,1.05,7.72,3.16,2.04,2.1,3.06,5.47,3.06,10.11v18.11c0,1.7-.85,2.55-2.55,2.55h-3.83c-1.7,0-2.55-.85-2.55-2.55v-15.24c0-2.34-.44-4.07-1.31-5.2-.87-1.13-2.07-1.69-3.6-1.69-1.4,0-2.63.3-3.67.89-1.04.6-1.85,1.52-2.42,2.77-.57,1.25-.86,2.86-.86,4.81v12.37Z"/>
          <path class="cls-1" d="m334.95,52.37c-1.45,1.11-3.16,1.96-5.13,2.55-1.98.6-3.92.89-5.83.89-3.49,0-6.19-1.08-8.1-3.25-1.91-2.17-2.87-5.4-2.87-9.69v-8.29l-3.7-.19c-.68-.04-1.15-.23-1.4-.57-.25-.34-.38-.81-.38-1.4v-5.1c0-.59.2-1.12.61-1.56.4-.45.92-.65,1.56-.61l3.32.19v-7.27c0-1.28.64-1.91,1.91-1.91h5.1c1.28,0,1.91.64,1.91,1.91v7.78l9.18.57c.72.04,1.2.23,1.44.57.23.34.35.81.35,1.4v5.1c0,.6-.2,1.12-.61,1.56-.41.45-.92.65-1.56.61l-8.8-.51v6.12c0,2.04.39,3.45,1.18,4.24.79.79,1.84,1.18,3.16,1.18.85,0,1.71-.2,2.58-.61.87-.4,1.65-.82,2.33-1.24.47-.3.91-.33,1.34-.1.42.23.77.65,1.02,1.24l1.66,3.7c.25.55.41,1.04.48,1.47.06.42-.18.83-.73,1.21Z"/>
        </g>
      </g>
    </g>
  </g>
</svg>